<?xml version="1.0" encoding="UTF-8" standalone="no"?>
<!-- Created with Inkscape (http://www.inkscape.org/) -->

<svg
   width="512"
   height="512"
   viewBox="0 0 135.46666 135.46667"
   version="1.1"
   id="svg5"
   xml:space="preserve"
   inkscape:version="1.2.1 (9c6d41e410, 2022-07-14)"
   sodipodi:docname="heartflyer01.svg"
   xmlns:inkscape="http://www.inkscape.org/namespaces/inkscape"
   xmlns:sodipodi="http://sodipodi.sourceforge.net/DTD/sodipodi-0.dtd"
   xmlns:xlink="http://www.w3.org/1999/xlink"
   xmlns="http://www.w3.org/2000/svg"
   xmlns:svg="http://www.w3.org/2000/svg"><sodipodi:namedview
     id="namedview7"
     pagecolor="#ffffff"
     bordercolor="#000000"
     borderopacity="0.25"
     inkscape:showpageshadow="2"
     inkscape:pageopacity="0.0"
     inkscape:pagecheckerboard="0"
     inkscape:deskcolor="#d1d1d1"
     inkscape:document-units="px"
     showgrid="true"
     inkscape:zoom="0.49638341"
     inkscape:cx="237.71947"
     inkscape:cy="181.31146"
     inkscape:window-width="1920"
     inkscape:window-height="986"
     inkscape:window-x="-11"
     inkscape:window-y="-11"
     inkscape:window-maximized="1"
     inkscape:current-layer="layer1"><inkscape:grid
       type="xygrid"
       id="grid132"
       empspacing="8"
       spacingx="2.1166666"
       spacingy="2.1166666" /></sodipodi:namedview><defs
     id="defs2"><linearGradient
       inkscape:collect="always"
       id="linearGradient872"><stop
         style="stop-color:#ff6060;stop-opacity:1;"
         offset="0"
         id="stop868" /><stop
         style="stop-color:#ff00ca;stop-opacity:0.99539167;"
         offset="1"
         id="stop870" /></linearGradient><linearGradient
       inkscape:collect="always"
       xlink:href="#linearGradient872"
       id="linearGradient874"
       x1="2.6700509"
       y1="3.5861678"
       x2="22.09137"
       y2="20.337437"
       gradientUnits="userSpaceOnUse"
       gradientTransform="matrix(3.8099999,0,0,3.8099999,22.013321,22.373173)" /></defs><g
     inkscape:label="Layer 1"
     inkscape:groupmode="layer"
     id="layer1"><path
       d="M 67.733327,103.71666 62.208825,98.687473 C 42.587327,80.894781 29.633332,69.121865 29.633332,54.758172 c 0,-11.772893 9.220205,-20.954995 20.954995,-20.954995 6.6294,0 12.992098,3.086092 17.145,7.924796 4.152902,-4.838704 10.515604,-7.924796 17.144998,-7.924796 11.734803,0 20.955005,9.182102 20.955005,20.954995 0,14.363693 -12.954,26.136609 -32.575501,43.929301 z"
       id="path2"
       style="fill:url(#linearGradient874);fill-opacity:1;stroke-width:0.79374999;stroke:#ffffff;stroke-opacity:1;stroke-dasharray:none;paint-order:stroke markers fill" /><text
       xml:space="preserve"
       style="font-style:normal;font-variant:normal;font-weight:bold;font-stretch:normal;font-size:8.24473px;font-family:'Titillium Web';-inkscape-font-specification:'Titillium Web Bold';text-align:center;letter-spacing:-0.393961px;text-anchor:middle;fill:#64003a;fill-opacity:0.996078;stroke:#ffffff;stroke-width:1.05833332;stroke-linejoin:round;stroke-dasharray:none;stroke-opacity:1;paint-order:markers stroke fill"
       x="67.689537"
       y="113.53541"
       id="text390"
       transform="scale(1.0081626,0.99190349)"><tspan
         sodipodi:role="line"
         id="tspan388"
         style="font-style:normal;font-variant:normal;font-weight:bold;font-stretch:normal;font-family:'Titillium Web';-inkscape-font-specification:'Titillium Web Bold';fill:#64003a;fill-opacity:0.996078;stroke:#ffffff;stroke-width:1.05833332;stroke-dasharray:none;stroke-opacity:1"
         x="67.492554"
         y="113.53541">mingle.case.edu</tspan></text><g
       id="text1097"
       transform="matrix(0.96859052,0,0,1.032428,0,-1.2953713)"
       style="stroke:#ffffff;stroke-opacity:1;fill:#58081d;fill-opacity:0.99607801;stroke-width:0.79375;stroke-dasharray:none;paint-order:stroke markers fill"><path
         id="path3141"
         style="color:#000000;-inkscape-font-specification:'Homemade Apple Bold';display:inline;fill:#58081d;stroke:#ffffff;stroke-linejoin:round;stroke-opacity:1;paint-order:stroke markers fill;fill-opacity:0.99607801;stroke-width:0.79375;stroke-dasharray:none"
         d="m 108.90624,51.517362 c -0.0517,0 -0.10256,0.0035 -0.15419,0.01001 a 0.26460981,0.26460981 0 0 0 -0.0998,0.03304 c -0.40151,0.229443 -0.71288,0.527542 -0.91766,0.888947 -0.1887,0.322568 -0.34456,0.676712 -0.46523,1.060629 a 0.26460981,0.26460981 0 0 0 -0.002,0.0035 c -0.10693,0.363542 -0.20221,0.737058 -0.28757,1.121194 -0.0753,0.32862 -0.19203,0.636372 -0.33772,0.927988 -0.20068,0.176453 -0.39952,0.316336 -0.59754,0.402429 a 0.26460981,0.26460981 0 0 0 -0.004,0.002 c -0.20755,0.09434 -0.42195,0.154911 -0.64823,0.183195 a 0.26460981,0.26460981 0 0 0 -0.002,0 c -0.22199,0.02896 -0.45702,0.03372 -0.70318,0.01402 -0.25051,-0.03045 -0.51732,-0.0764 -0.80082,-0.137146 a 0.26460981,0.26460981 0 0 0 -0.191,0.03153 c -0.0742,0.04453 -0.1458,0.06725 -0.22088,0.07408 h 0.0256 c -0.12344,0 -0.23905,0.01234 -0.34946,0.03504 -0.13975,0.01648 -0.27458,0.08064 -0.3772,0.178189 -0.15606,0.135891 -0.18681,0.312374 -0.199,0.507541 a 0.26460981,0.26460981 0 0 0 -0.002,0.01552 v 0.158169 a 0.26460981,0.26460981 0 0 0 0.004,0.03754 c 0.024,0.167903 0.18836,0.323013 0.33985,0.360884 0.0997,0.0274 0.20562,0.03904 0.31638,0.03904 0.10397,0 0.20793,-0.0039 0.31265,-0.01552 a 0.26460981,0.26460981 0 0 0 0.0272,-0.006 c 0.0845,-0.01877 0.14696,-0.02503 0.16432,-0.02503 0.0219,0 0.0259,0.0014 0.0368,0.002 l 0.0939,0.03904 a 0.26460981,0.26460981 0 0 0 0.0117,0.006 c 0.1913,0.07174 0.38675,0.114427 0.58207,0.126635 a 0.26460981,0.26460981 0 0 0 0.002,0 c 0.18338,0.01079 0.36108,0.01552 0.53512,0.01552 0.16843,0 0.33138,0.0099 0.48817,0.02953 a 0.26460981,0.26460981 0 0 0 0.0155,0.002 c 0.0544,0.0034 0.11101,0.02694 0.16593,0.03704 -0.26604,0.677614 -0.52756,1.360839 -0.77734,2.054688 a 0.26460981,0.26460981 0 0 0 0,0.002 c -0.27581,0.784982 -0.5204,1.580436 -0.73253,2.386541 -0.0848,0.328739 -0.16377,0.658021 -0.23795,0.986551 -0.0731,0.31337 -0.15052,0.637769 -0.23421,0.972536 -0.0198,0.07931 -0.0405,0.146718 -0.0587,0.201214 a 0.26460981,0.26460981 0 0 0 -0.0101,0.04104 c -0.0159,0.09532 -0.0133,0.192233 -0.002,0.298818 0.0114,0.159596 0.0326,0.319393 0.0667,0.478509 a 0.26460981,0.26460981 0 0 0 0.006,0.02152 c 0.0366,0.118948 0.0593,0.236925 0.0683,0.353377 a 0.26460981,0.26460981 0 0 0 0.004,0.02353 c 0.0109,0.06566 -0.002,0.128807 -0.0176,0.195208 -0.042,0.03527 -0.0797,0.06715 -0.13285,0.113621 -0.0652,0.05577 -0.18936,0.154144 -0.36546,0.288807 a 0.26460981,0.26460981 0 0 0 -0.0976,0.156167 c -0.0342,0.162664 -0.0862,0.227475 -0.1131,0.246262 -0.06,0.03934 -0.13174,0.06661 -0.22461,0.08209 a 0.26460981,0.26460981 0 0 0 -0.004,0.002 l -0.32225,0.05856 c -0.18934,0.01721 -0.36391,0.125297 -0.4823,0.273291 a 0.26460981,0.26460981 0 0 0 -0.055,0.119127 c -0.0117,0.06602 -0.0273,0.103144 -0.0352,0.117124 -0.0569,0.02008 -0.12243,0.03497 -0.20274,0.04305 -0.12337,0.0024 -0.24542,0.02055 -0.36546,0.05656 -0.1446,0.04338 -0.18681,0.19736 -0.25556,0.324346 -0.1011,0.03217 -0.1807,0.04032 -0.21714,0.03303 -0.10359,-0.02072 -0.20038,-0.04151 -0.2929,-0.06207 l 0.0256,0.0075 c -0.12537,-0.04179 -0.25955,-0.05205 -0.39268,-0.04104 -0.1401,0.0021 -0.268503,0.06991 -0.398538,0.14065 -0.173218,-0.0081 -0.355347,-0.005 -0.550595,0.01552 a 0.26460981,0.26460981 0 0 0 -0.0021,0 c -0.129261,0.01436 -0.204455,-0.01041 -0.289169,-0.08209 a 0.26460981,0.26460981 0 0 0 -0.265694,-0.04455 c -0.05845,0.02273 -0.08627,0.02289 -0.107238,0.02503 -0.02694,-0.04534 -0.05394,-0.0957 -0.07416,-0.181193 -0.01797,-0.128964 -0.03146,-0.262321 -0.04108,-0.400426 0,-0.0927 -0.05911,-0.165325 -0.08216,-0.250267 0.05194,-0.04816 0.126013,-0.0689 0.154188,-0.134643 0.03589,-0.08373 0.0611,-0.172288 0.07629,-0.261779 0.01234,-0.04934 0.02913,-0.08372 0.04428,-0.118126 0.0033,0.0012 0.0017,0.003 0.0144,0.003 a 0.26460981,0.26460981 0 0 0 0.238485,-0.378904 c -0.106724,-0.222344 -0.100452,-0.342157 -0.06456,-0.413941 0.07327,-0.146545 0.1712,-0.291072 0.295038,-0.433962 0.144621,-0.166871 0.272234,-0.339929 0.384669,-0.519553 0.164384,-0.254048 0.183067,-0.574423 0.09764,-0.903963 a 0.26460981,0.26460981 0 0 0 -0.0021,-0.01001 c -0.03873,-0.129114 -0.09917,-0.245932 -0.207007,-0.33786 -0.08587,-0.08141 -0.197885,-0.136757 -0.314244,-0.156167 -0.10279,-0.02581 -0.211395,-0.03692 -0.318513,-0.02353 l 0.03308,-0.002 h -0.251823 a 0.26460981,0.26460981 0 0 0 -0.187266,0.07808 c -0.0801,0.0801 -0.169909,0.166253 -0.271563,0.257775 -0.106617,0.09477 -0.208098,0.200327 -0.300906,0.316337 a 0.26460981,0.26460981 0 0 0 -0.0096,0.01402 c -0.08253,0.117896 -0.153923,0.242029 -0.213409,0.372897 a 0.26460981,0.26460981 0 0 0 -0.0075,0.01952 c -0.04403,0.12108 -0.05918,0.252274 -0.06669,0.38491 -0.08191,0.102358 -0.163327,0.207219 -0.204872,0.331853 a 0.26460981,0.26460981 0 0 0 -0.0037,0.01351 c -0.03197,0.117239 -0.06397,0.241129 -0.09603,0.369394 a 0.26460981,0.26460981 0 0 0 -0.0037,0.01952 c -0.01875,0.112497 -0.04266,0.224783 -0.07043,0.33786 -0.02838,0.07529 -0.07183,0.144242 -0.140317,0.212727 a 0.26460981,0.26460981 0 0 0 -0.06669,0.113621 c -0.04718,0.165137 -0.08119,0.347744 -0.103503,0.548584 -0.01598,0.143848 -0.0144,0.287992 -0.01334,0.431459 l -0.519651,0.312834 c -0.146503,0.03035 -0.293633,0.06267 -0.439622,0.101608 a 0.26460981,0.26460981 0 0 0 -0.0096,0.0035 c -0.146526,0.04509 -0.298352,0.10169 -0.453494,0.168179 -0.07016,0.03007 -0.126211,0.07266 -0.191001,0.107614 l -0.07416,-0.125133 a 0.26460981,0.26460981 0 0 0 -0.185666,-0.127135 c -0.08353,-0.01392 -0.168184,-0.01167 -0.253956,-0.002 -0.07896,0.0011 -0.14489,0.05398 -0.217144,0.0901 -0.09588,-0.03895 -0.175279,-0.122759 -0.271029,-0.10361 -0.06477,0.01296 -0.107467,0.01048 -0.144584,0.004 -0.06967,-0.04685 -0.135658,-0.0905 -0.193669,-0.121129 l -0.0037,-0.002 c -0.04323,-0.02911 -0.07276,-0.05682 -0.09763,-0.08008 -0.01413,-0.02033 -0.0311,-0.04803 -0.04908,-0.08209 -0.01826,-0.06587 -0.04171,-0.153148 -0.06989,-0.275294 a 0.26460981,0.26460981 0 0 0 -0.195269,-0.19721 c -0.141161,-0.03321 -0.18261,-0.07909 -0.178197,-0.07057 -0.0217,-0.04807 -0.03929,-0.100382 -0.04642,-0.167678 -1.54e-4,-0.0015 1.47e-4,-0.0025 0,-0.004 -7.31e-4,-0.09914 -0.0049,-0.201611 -0.01387,-0.306826 -2.91e-4,-0.104528 -0.06991,-0.191791 -0.113106,-0.286806 0.03995,-0.0453 0.09879,-0.07131 0.12271,-0.127135 0.04567,-0.106568 0.06829,-0.224326 0.06829,-0.341864 10e-7,-0.09453 -0.0056,-0.189687 -0.01761,-0.285304 -0.0029,-0.02314 -0.0024,-0.04303 -0.0016,-0.06207 0.258372,-0.205624 0.435898,-0.459876 0.474301,-0.754303 0.04484,-0.264717 0.05012,-0.535448 0.01601,-0.808361 l 0.0016,0.002 c -0.03167,-0.274463 -0.06374,-0.531836 -0.0955,-0.775326 -0.02393,-0.191454 0.01501,-0.37807 0.138715,-0.590128 a 0.26460981,0.26460981 0 0 0 -0.114707,-0.372897 c -0.145153,-0.06831 -0.222418,-0.14144 -0.261959,-0.209223 -0.05935,-0.101741 -0.114541,-0.233542 -0.162191,-0.39442 -4.87e-4,-0.0016 -0.0016,-0.0024 -0.0021,-0.004 l -0.08963,-0.392417 -0.0021,-0.004 c -0.03538,-0.16334 -0.09012,-0.313662 -0.163791,-0.45098 -0.07268,-0.155496 -0.187022,-0.289728 -0.33025,-0.39442 -0.152223,-0.119394 -0.340825,-0.186798 -0.556464,-0.222737 a 0.26460981,0.26460981 0 0 0 -0.146718,0.01752 c -0.289008,0.122272 -0.555871,0.272345 -0.802417,0.450981 -0.0012,8.02e-4 -0.0031,0.0012 -0.0043,0.002 -7.12e-4,5.17e-4 -8.01e-4,0.0014 -0.0016,0.002 -0.235224,0.160605 -0.465094,0.331608 -0.689844,0.513547 a 0.26460981,0.26460981 0 0 0 -0.0059,0.004 c -0.21066,0.179063 -0.42501,0.363588 -0.646095,0.553089 a 0.26460981,0.26460981 0 0 0 -0.0064,0.0035 c -0.20111,0.181 -0.405327,0.352653 -0.615684,0.513547 -0.133318,0.06516 -0.249706,0.167702 -0.321714,0.297316 a 0.26460981,0.26460981 0 0 0 -0.0059,0.0095 c -0.04192,0.08385 -0.07276,0.175842 -0.09763,0.275293 a 0.26460981,0.26460981 0 0 0 -0.0059,0.02553 c -0.0068,0.04764 -0.01837,0.08826 -0.03681,0.125133 a 0.26460981,0.26460981 0 0 0 -0.01174,0.02553 0.26460981,0.26460981 0 0 0 -0.01387,0.0075 c 0.04316,-0.0259 0.01493,-0.002 -0.07043,-0.01752 a 0.26460981,0.26460981 0 0 0 -0.300906,0.333855 l 0.04695,0.164175 -0.253957,0.123131 a 0.26460981,0.26460981 0 0 0 -0.136581,0.154164 c -0.01427,0.04281 -0.03696,0.0968 -0.07203,0.158169 -0.04486,0.06908 -0.08567,0.141696 -0.119509,0.218733 -6.37e-4,0.0013 -9e-4,0.0027 -0.0016,0.004 -0.04838,0.09829 -0.07256,0.20798 -0.07256,0.318339 0,0.05937 0.04381,0.0972 0.06242,0.148658 -0.109055,0.106995 -0.222734,0.208252 -0.306242,0.341864 a 0.26460981,0.26460981 0 0 0 -0.0021,0.0035 c -0.09721,0.162008 -0.194539,0.334773 -0.291303,0.517551 a 0.26460981,0.26460981 0 0 0 -0.0037,0.006 c -0.08513,0.170266 -0.168982,0.346993 -0.253956,0.527561 -0.07857,0.156583 -0.16772,0.308023 -0.265694,0.454985 a 0.26460981,0.26460981 0 0 0 0.01387,0.31033 c 0.09982,0.12478 0.0939,0.176184 0.0939,0.176188 -0.02317,0.07522 -0.06491,0.160248 -0.126978,0.257775 l 0.01761,-0.02152 c -0.09084,0.113549 -0.168331,0.236664 -0.23635,0.368893 -3.62e-4,5.7e-4 3.61e-4,0.0014 0,0.002 -0.121981,0.193147 -0.122889,0.440032 -0.04108,0.658201 a 0.26460981,0.26460981 0 0 0 0.09924,0.129137 c 0.05888,0.03926 0.144731,0.118376 0.238484,0.240256 0.107057,0.139173 0.214645,0.273307 0.322248,0.402429 a 0.26460981,0.26460981 0 0 0 0.01547,0.01752 c 0.129527,0.129527 0.270911,0.233153 0.422016,0.310331 0.127178,0.07255 0.278088,0.03485 0.42415,0.01952 0.08355,0.08951 0.16639,0.183945 0.282766,0.222738 0.124963,0.04165 0.256853,0.05602 0.386804,0.04304 0.124724,-0.0018 0.250332,-0.01778 0.372931,-0.05456 0.09712,-0.01959 0.19107,-0.0389 0.279566,-0.05856 a 0.26460981,0.26460981 0 0 0 0.008,-0.002 c 0.05908,-0.01477 0.102694,-0.01087 0.181397,0.03504 a 0.26460981,0.26460981 0 0 0 0.391072,-0.168179 c 0.0335,-0.142386 0.0798,-0.206833 0.107238,-0.228743 0.07888,-0.05373 0.159048,-0.09088 0.240618,-0.113121 l 0.347323,-0.0956 a 0.26460981,0.26460981 0 0 0 0.01974,-0.006 c 0.152745,-0.05554 0.288632,-0.150382 0.398541,-0.271289 0.06987,-0.0705 0.129458,-0.150378 0.173395,-0.238254 0.01824,-0.03648 0.04445,-0.06963 0.07843,-0.10361 0.142879,-0.142879 0.284154,-0.275055 0.42575,-0.396422 0.119673,-0.102577 0.210478,-0.238873 0.304641,-0.369394 0.02474,0.01872 0.04872,0.0393 0.07203,0.06457 0.06885,0.347958 0.162804,0.659691 0.320646,0.896455 a 0.26460981,0.26460981 0 0 0 0.0021,0.006 c 0.165687,0.236695 0.370576,0.434468 0.609283,0.589628 0.229347,0.149077 0.485792,0.274166 0.765604,0.374899 0.262917,0.101342 0.536408,0.222516 0.822157,0.365389 a 0.26460981,0.26460981 0 0 0 0.290769,-0.03504 l 0.07043,-0.06257 c 0.096,0.03062 0.223607,0.04746 0.347857,-0.02753 0.0798,-0.04516 0.151661,-0.112857 0.193135,-0.193206 8.31e-4,1.19e-4 0.0012,0.0018 0.0021,0.002 0.03687,0.005 0.06636,0.03052 0.101369,0.02352 l -0.05069,0.006 h 0.1878 0.06029 c 0.02311,0.0044 0.04214,0.01552 0.06669,0.01552 0.141476,0 0.24101,-0.05369 0.345722,-0.119127 0.09588,-0.05402 0.191129,-0.118265 0.284901,-0.189702 l 0.01174,-0.0095 c 0.114526,-0.07388 0.227251,-0.161966 0.337719,-0.259777 0.164621,-0.10652 0.285175,-0.190953 0.386803,-0.267785 0.03806,0.05423 0.05647,0.123146 0.103504,0.170181 0.05876,0.05876 0.120713,0.116445 0.1894,0.173685 0.05055,0.04212 0.09816,0.08743 0.14085,0.138648 a 0.26460981,0.26460981 0 0 0 0.0037,0.006 c 0.06997,0.07996 0.140532,0.164816 0.211275,0.255772 a 0.26460981,0.26460981 0 0 0 0.0016,0.002 c 0.09588,0.119845 0.200277,0.224937 0.312644,0.312333 0.117375,0.09129 0.247747,0.1615 0.386803,0.203216 0.09221,0.02766 0.190115,0.0065 0.287035,0.002 0.0108,0.01176 0.01452,0.02575 0.02721,0.03704 0.05355,0.0476 0.137612,0.0798 0.223013,0.08809 0.112229,0.0156 0.2315,-0.0061 0.322247,-0.06057 0.0671,-0.04026 0.124495,-0.09294 0.176596,-0.151161 0.02434,-0.01657 0.04592,-0.02547 0.03414,-0.02252 a 0.26460981,0.26460981 0 0 0 0.01974,-0.006 c 0.01328,-0.0044 0.05635,-0.01162 0.124845,-0.004 a 0.26460981,0.26460981 0 0 0 0.0021,0 c 0.109974,0.011 0.200557,0.01752 0.279032,0.01752 0.19497,0 0.35177,0.0044 0.46683,0.01402 0.17355,0.01446 0.35566,-0.01399 0.55486,-0.07258 a 0.26460981,0.26460981 0 0 0 0.16966,-0.156166 c 0.0338,-0.08462 0.0579,-0.105362 0.0592,-0.108616 0.0727,-0.01546 0.14435,-0.02403 0.21607,-0.02403 0.12222,0 0.23638,-0.021 0.34412,-0.06257 0.10748,-0.03153 0.19872,-0.107478 0.25183,-0.189702 0.0199,-0.03077 0.023,-0.0673 0.0368,-0.09961 a 0.26460981,0.26460981 0 0 0 0.0688,-0.02503 c 0.29126,-0.197634 0.51761,-0.34208 0.67384,-0.429958 0.16691,-0.09389 0.31777,-0.17697 0.45296,-0.249766 a 0.26460981,0.26460981 0 0 0 0.0139,-0.008 c 0.14687,-0.09038 0.29695,-0.195433 0.45083,-0.316337 a 0.26460981,0.26460981 0 0 0 0.008,-0.008 c 0.021,-0.01802 0.0502,-0.04976 0.0726,-0.07007 0.0445,0.131662 0.0714,0.268348 0.13285,0.39442 a 0.26460981,0.26460981 0 0 0 0.004,0.008 c 0.23182,0.440438 0.57733,0.812356 1.01956,1.107179 0.0847,0.05644 0.18709,0.105244 0.31265,0.158169 6.4e-4,3.23e-4 0.001,-3.22e-4 0.002,0 0.006,0.0024 0.008,0.0056 0.0133,0.008 0.12526,0.06205 0.22966,0.108519 0.32811,0.136646 a 0.26460981,0.26460981 0 0 0 0.0198,0.004 c 0.30349,0.06323 0.63178,0.03397 0.97634,-0.06857 0.30484,-0.07907 0.54937,-0.200071 0.76774,-0.341864 0.056,0.0026 0.11265,0.01119 0.16806,0.002 0.0599,-0.0083 0.11477,-0.01151 0.16219,-0.01151 0.0419,0 0.0623,0.0052 0.0774,0.01001 5.8e-4,0.0012 -2.4e-4,-2.5e-5 5.3e-4,0.0015 a 0.26460981,0.26460981 0 0 0 0.43162,0.06056 c 0.23347,-0.25377 0.47498,-0.482385 0.72666,-0.683729 a 0.26460981,0.26460981 0 0 0 0.006,-0.0035 c 0.0401,-0.03365 0.0842,-0.0612 0.12484,-0.0941 -0.0814,0.184915 -0.1814,0.365702 -0.1814,0.570607 a 0.26460981,0.26460981 0 0 0 0.23049,0.261779 c 0.19456,0.02594 0.3866,0.0047 0.56446,-0.06257 0.16303,-0.0516 0.31745,-0.131183 0.46097,-0.238253 l 0.004,-0.002 c 0.13302,-0.0972 0.25434,-0.212617 0.36173,-0.343866 a 0.26460981,0.26460981 0 0 0 0.006,-0.008 c 0.0927,-0.12355 0.18041,-0.248948 0.26356,-0.372897 l 0.002,-0.002 c 0.0436,-0.05478 0.0792,-0.115712 0.11311,-0.17769 l 0.0293,0.02553 v -0.07258 c 10e-4,-0.0019 0.003,-0.0036 0.004,-0.0055 a 0.26460981,0.26460981 0 0 0 0.008,0.05055 c 0.0722,0.230959 0.26255,0.430106 0.49778,0.480512 a 0.26460981,0.26460981 0 0 0 0.0176,0.002 c 0.15459,0.02208 0.31278,0.03964 0.47644,0.05055 a 0.26460981,0.26460981 0 0 0 0.0176,0 c 0.1515,0 0.29715,0.01498 0.43748,0.04305 0.0657,0.01314 0.10038,0.03192 0.15259,0.166177 a 0.26460981,0.26460981 0 0 0 0.44709,0.07808 c 0.10199,-0.118988 0.17921,-0.157231 0.22088,-0.164175 a 0.26460981,0.26460981 0 0 0 0.0213,-0.004 c 0.0812,-0.02031 0.14065,-0.01816 0.20701,0.006 a 0.26460981,0.26460981 0 0 0 0.0272,0.01001 c 0.0978,0.02445 0.19212,0.06375 0.28543,0.123131 a 0.26460981,0.26460981 0 0 0 0.008,0.0055 c 0.13269,0.0774 0.26381,0.137754 0.39268,0.185698 0.15067,0.06746 0.31304,0.100748 0.4743,0.08609 0.2132,-0.01836 0.39718,-0.142882 0.54099,-0.312833 a 0.26460981,0.26460981 0 0 0 0.0197,-0.02503 c 0.013,-0.01957 0.0232,-0.03951 0.0352,-0.06257 0.003,-0.0026 0.007,-0.0054 0.0101,-0.008 0.0696,-0.06957 0.13351,-0.10015 0.21287,-0.11312 0.13589,-0.01941 0.26524,-0.02953 0.38841,-0.02953 0.10615,0 0.23467,-0.01118 0.39854,-0.03303 0.12832,-0.01711 0.22386,-0.100499 0.32811,-0.167678 0.22975,0.01484 0.47093,-0.02634 0.75387,-0.13114 0.29929,-0.106995 0.60886,-0.228683 0.9278,-0.366891 a 0.26460981,0.26460981 0 0 0 0.004,-0.002 c 0.32583,-0.147149 0.64067,-0.289349 0.9454,-0.425954 a 0.26460981,0.26460981 0 0 0 0.008,-0.004 c 0.29699,-0.143375 0.54509,-0.243948 0.73466,-0.30082 a 0.26460981,0.26460981 0 0 0 0.10938,-0.06657 c 0.0646,-0.06461 0.12921,-0.117178 0.1894,-0.160171 0.0749,-0.05349 0.15397,-0.113097 0.24008,-0.177689 a 0.26460981,0.26460981 0 0 0 0.0101,-0.0055 c 0.22388,-0.183166 0.4126,-0.317402 0.5602,-0.400426 a 0.26460981,0.26460981 0 0 0 0.0117,-0.006 c 0.18103,-0.113147 0.33347,-0.229624 0.45723,-0.353376 0.14126,-0.141273 0.25267,-0.313652 0.33772,-0.508041 a 0.26460981,0.26460981 0 0 0 0.002,-0.004 c 0.0867,-0.210589 0.15253,-0.478646 0.207,-0.81637 a 0.26460981,0.26460981 0 0 0 -0.0352,-0.177689 c -0.0767,-0.127742 -0.24104,-0.197379 -0.37507,-0.201214 -0.0926,-0.01022 -0.19128,-0.0084 -0.28116,0.02753 a 0.26460981,0.26460981 0 0 0 -0.12111,0.09961 c -0.13925,0.208882 -0.2615,0.350519 -0.34146,0.415943 -0.10057,0.08228 -0.1974,0.141983 -0.28917,0.183696 -0.11027,0.05012 -0.23089,0.101229 -0.36332,0.152162 -0.16476,0.06337 -0.34133,0.161705 -0.54099,0.294814 a 0.26460981,0.26460981 0 0 0 -0.0843,0.183696 c -0.0969,0.04455 -0.19875,0.07617 -0.2849,0.146656 -0.11189,0.09154 -0.22247,0.178679 -0.33399,0.259776 -0.0975,0.07095 -0.19954,0.125829 -0.30304,0.169681 -0.0496,0.01738 -0.0997,0.02097 -0.1894,-0.01351 a 0.26460981,0.26460981 0 0 0 -0.31424,0.09961 c -0.0553,0.08296 -0.10075,0.110251 -0.15846,0.125133 -0.10253,0.01815 -0.20969,0.03367 -0.32225,0.04305 -0.14067,0.01172 -0.28015,0.03514 -0.41988,0.07007 a 0.26460981,0.26460981 0 0 0 -0.006,0 c -0.0164,0.0045 -0.0252,0.0239 -0.0411,0.02953 0.0141,-0.103261 0.0131,-0.209351 0.0374,-0.310831 0.0716,-0.255169 0.14877,-0.50666 0.23048,-0.751801 l -0.002,0.002 c 0.15026,-0.440031 0.26362,-0.865272 0.33985,-1.27736 0.0917,-0.435495 0.0909,-0.896836 0.002,-1.376966 -0.0466,-0.267995 -0.13127,-0.497406 -0.26996,-0.679724 -0.10879,-0.155645 -0.2373,-0.291898 -0.38467,-0.402429 -0.11593,-0.09461 -0.23568,-0.189167 -0.36119,-0.283301 -0.0914,-0.06854 -0.17942,-0.169385 -0.25983,-0.312333 a 0.26460981,0.26460981 0 0 0 -0.27743,-0.130639 c -0.43789,0.0786 -0.8509,0.225369 -1.23403,0.439468 a 0.26460981,0.26460981 0 0 0 -0.002,0.002 c -0.35781,0.206016 -0.7057,0.439234 -1.0409,0.698744 -0.3299,0.255395 -0.65344,0.520735 -0.97261,0.797349 -0.30767,0.25616 -0.62093,0.492014 -0.93793,0.706753 a 0.26460981,0.26460981 0 0 0 -0.0112,0.02352 c -0.14379,0.0788 -0.28613,0.16475 -0.41828,0.273291 a 0.26460981,0.26460981 0 0 0 -0.004,0.004 c -0.29376,0.250246 -0.57584,0.527103 -0.84617,0.829884 -0.0864,0.09331 -0.17206,0.186708 -0.25769,0.2813 -0.0944,-0.151197 -0.17996,-0.305519 -0.24595,-0.470501 a 0.26460981,0.26460981 0 0 0 -0.004,-0.006 c -0.027,-0.06309 -0.0481,-0.125878 -0.0662,-0.189201 -0.0252,-0.08813 -0.0561,-0.173427 -0.0955,-0.252269 -0.0541,-0.108194 -0.11988,-0.220056 -0.28917,-0.269287 -0.10221,-0.03437 -0.22208,-0.03788 -0.32224,0 -0.0598,0.01364 -0.11824,0.03165 -0.17447,0.05506 -0.0527,0.01479 -0.0971,0.02102 -0.13017,0.02102 a 0.26460981,0.26460981 0 0 0 -0.24649,0.166177 c -0.0233,0.05824 -0.0458,0.121979 -0.0683,0.189202 l 0.0256,-0.05256 c -0.0513,0.08553 -0.0859,0.186792 -0.0859,0.292812 a 0.26460981,0.26460981 0 0 0 0.0368,0.136645 c 0.002,0.0037 0.007,0.0024 0.0101,0.006 -0.008,0.01124 -0.0234,0.01779 -0.031,0.02953 -0.0701,0.107401 -0.10777,0.245157 -0.0902,0.378903 0.0171,0.192794 0.0956,0.376198 0.21874,0.548585 a 0.26460981,0.26460981 0 0 0 0.006,0.008 c 0.10823,0.140695 0.22629,0.286932 0.35532,0.437466 0.0232,0.02764 0.0231,0.05033 0.0389,0.07608 -0.0545,0.03667 -0.10754,0.07618 -0.16379,0.109116 -0.10719,-0.01531 -0.21476,-0.04261 -0.31852,-0.0095 -0.11901,0.03193 -0.23019,0.09314 -0.32598,0.173685 -0.0937,0.06922 -0.17916,0.152692 -0.25235,0.250267 -0.0466,0.0622 -0.098,0.118573 -0.15046,0.173685 -0.1697,0.04078 -0.3374,0.0908 -0.50151,0.177689 -0.18842,0.09475 -0.36835,0.217158 -0.53939,0.365389 -0.16529,0.132919 -0.32566,0.281149 -0.47857,0.444974 -0.056,0.06029 -0.0993,0.116719 -0.15045,0.175687 l -0.19687,-0.275293 a 0.26460981,0.26460981 0 0 0 -0.39641,-0.03904 l -0.0688,0.06457 c -0.0149,-0.02172 -0.0325,-0.03782 -0.047,-0.06056 -0.0646,-0.111701 -0.1195,-0.227135 -0.16593,-0.34787 -0.0447,-0.116237 -0.0735,-0.230219 -0.0918,-0.343366 -0.007,-0.100104 0.003,-0.192932 0.0331,-0.283301 a 0.26460981,0.26460981 0 0 0 0.0117,-0.111619 c -0.0524,-0.471102 -0.10056,-0.947788 -0.14245,-1.429523 -0.0399,-0.459368 -0.0476,-0.912556 -0.0293,-1.361449 0.28511,-0.585193 0.54394,-1.173965 0.76987,-1.769385 l 0.002,-0.002 c 0.2422,-0.621332 0.47947,-1.249047 0.71119,-1.881003 a 0.26460981,0.26460981 0 0 0 0.002,-0.0035 l 0.25182,-0.726774 a 0.26460981,0.26460981 0 0 0 0,-5e-4 0.26460981,0.26460981 0 0 0 0,-5.01e-4 0.26460981,0.26460981 0 0 0 0,-5e-4 0.26460981,0.26460981 0 0 0 0,-5.01e-4 c 0.0828,-0.248405 0.17066,-0.49087 0.26356,-0.728275 a 0.26460981,0.26460981 0 0 0 0.002,-0.006 c 0.11481,-0.315737 0.24878,-0.463456 0.32225,-0.49803 a 0.26460981,0.26460981 0 0 0 0.006,-0.004 c 0.15063,-0.07531 0.30209,-0.105945 0.46897,-0.0976 a 0.26460981,0.26460981 0 0 0 0.0117,0 c 0.20572,0 0.4173,0.0052 0.63435,0.01552 0.23929,0.01139 0.47087,-0.08784 0.69358,-0.210724 0.13175,0.05484 0.26453,0.120914 0.40441,0.0976 a 0.26460981,0.26460981 0 0 0 0.0155,-0.004 c 0.0862,-0.01989 0.1362,-0.101371 0.21074,-0.148658 l 0.12537,0.125133 a 0.26460981,0.26460981 0 0 0 0.1734,0.07808 c 0.21391,0.01188 0.4272,-0.0075 0.63916,-0.05456 l 0.5682,-0.125133 a 0.26460981,0.26460981 0 0 0 0.0139,-0.004 c 0.17753,-0.04931 0.34769,-0.08383 0.51165,-0.10311 a 0.26460981,0.26460981 0 0 0 0.0155,-0.002 c 0.14473,-0.02554 0.2783,-0.02149 0.41028,0.01151 a 0.26460981,0.26460981 0 0 0 0.28277,-0.105612 c 0.0838,-0.121874 0.12769,-0.138648 0.19153,-0.138648 a 0.26460981,0.26460981 0 0 0 0.0176,0 c 0.14637,-0.0091 0.29229,-9.4e-5 0.43962,0.02753 a 0.26460981,0.26460981 0 0 0 0.002,0 c 0.19387,0.03421 0.38799,0.05256 0.58207,0.05256 a 0.26460981,0.26460981 0 0 0 0.0155,-0.002 c 0.25181,-0.01481 0.48615,-0.141052 0.66797,-0.335857 a 0.26460981,0.26460981 0 0 0 0.0587,-0.257775 c -0.0339,-0.11019 -0.0306,-0.178463 -0.0277,-0.189702 0.0277,-0.08575 0.0476,-0.165922 0.0608,-0.243759 v -0.002 c 0.0365,-0.129561 0.0248,-0.273009 -0.0272,-0.39442 -0.078,-0.182117 -0.21319,-0.268996 -0.39054,-0.375399 a 0.26460981,0.26460981 0 0 0 -0.1878,-0.03304 c -0.16437,0.03287 -0.34891,0.0755 -0.55272,0.129138 -0.18092,0.03999 -0.36535,0.07493 -0.55647,0.105112 a 0.26460981,0.26460981 0 0 0 -0.002,0 c -0.17908,0.02985 -0.3645,0.05054 -0.55486,0.06056 a 0.26460981,0.26460981 0 0 0 -0.002,0 c -0.17571,0.0098 -0.33313,0.0049 -0.4711,-0.01351 a 0.26460981,0.26460981 0 0 0 -0.18139,0.04305 c -0.0459,0.03059 -0.0556,0.02562 -0.0742,0.02152 -0.07,-0.02693 -0.1436,-0.0568 -0.22301,-0.0921 l 0.0197,0.01201 c -0.1132,-0.06289 -0.23541,-0.112277 -0.36707,-0.148658 -0.17929,-0.05378 -0.3723,-0.02177 -0.54099,0.06257 a 0.26460981,0.26460981 0 0 0 -0.10937,0.101608 c -0.0705,0.117583 -0.10808,0.120111 -0.096,0.119127 -0.0708,-0.0021 -0.14233,-0.0093 -0.21661,-0.03153 l 0.0235,0.008 c -0.12019,-0.04807 -0.24516,-0.07532 -0.3692,-0.0896 -0.12804,-0.02298 -0.22905,0.07147 -0.33985,0.134644 -0.0749,-0.04901 -0.13213,-0.127136 -0.22675,-0.127136 -0.11196,0 -0.22205,0.0242 -0.32971,0.06457 a 0.26460981,0.26460981 0 0 0 -0.0101,0.004 c -0.0592,0.02536 -0.13175,0.05321 -0.21074,0.08009 -0.0297,0.0062 -0.059,-0.0018 -0.088,-0.006 -0.0804,-0.09575 -0.16076,-0.193134 -0.25396,-0.294814 -0.0515,-0.05619 -0.0562,-0.05359 -0.004,-0.164175 0.0806,-0.08583 0.1592,-0.174308 0.22301,-0.290809 0.0575,-0.09347 0.0806,-0.09441 0.0992,-0.0961 a 0.26460981,0.26460981 0 0 0 0.23635,-0.22624 c 0.002,-0.01593 0.021,-0.06858 0.0704,-0.142652 0.068,-0.102064 0.12584,-0.20067 0.17392,-0.296816 0.0638,-0.127707 0.0897,-0.283995 0.0486,-0.427956 -0.0246,-0.08597 -0.11177,-0.100956 -0.16752,-0.154164 0.0572,-0.09341 0.12518,-0.181149 0.16166,-0.283302 0.0551,-0.154396 0.0991,-0.313969 0.13284,-0.47851 l 0.002,-0.0095 c 0.0424,-0.159745 0.0817,-0.318889 0.11364,-0.47901 0.0292,-0.14587 0.0667,-0.28692 0.1147,-0.421449 a 0.26460981,0.26460981 0 0 0 -0.1147,-0.316337 c -0.13063,-0.0762 -0.26305,-0.147343 -0.39481,-0.213227 -0.13406,-0.06703 -0.28376,-0.09961 -0.43749,-0.09961 z M 24.013824,53.56204 a 0.26460981,0.26460981 0 0 0 -0.176063,0.04955 v -5e-4 l -0.695179,0.504037 a 0.26460981,0.26460981 0 0 0 -0.07416,0.08609 c -0.14293,0.255233 -0.291777,0.489035 -0.443357,0.701247 a 0.26460981,0.26460981 0 0 0 -0.0037,0.006 c -0.141239,0.211858 -0.298606,0.419729 -0.4711,0.622663 a 0.26460981,0.26460981 0 0 0 -0.0016,0 c -0.179819,0.213536 -0.33668,0.445302 -0.4711,0.691736 -0.123923,0.225545 -0.235448,0.480654 -0.333985,0.765315 -0.09054,0.261576 -0.184496,0.473184 -0.277431,0.631172 a 0.26460981,0.26460981 0 0 0 -0.01334,0.02302 c -0.04202,0.09245 -0.09364,0.175552 -0.160057,0.250266 -0.08746,0.09839 -0.175213,0.2019 -0.261959,0.310331 a 0.26460981,0.26460981 0 0 0 -0.0096,0.01201 c -0.05527,0.07738 -0.124027,0.178658 -0.20914,0.306326 a 0.26460981,0.26460981 0 0 0 -0.008,0.01402 c -0.07234,0.12402 -0.15096,0.253122 -0.234216,0.388414 -0.08276,0.124468 -0.161018,0.24986 -0.234216,0.374899 -0.0016,0.0025 -0.0021,0.0035 -0.0037,0.006 -7.18e-4,0.0012 -0.0013,0.0028 -0.0021,0.004 -0.07246,0.114316 -0.128211,0.207872 -0.165925,0.283302 a 0.26460981,0.26460981 0 0 0 -0.0043,0.0075 c -0.06041,0.132897 -0.107254,0.277445 -0.14245,0.429958 v -0.006 c -0.02813,0.112503 -0.06579,0.226048 -0.113107,0.339862 -2.45e-4,5.89e-4 2.46e-4,0.0014 0,0.002 -0.04644,0.101189 -0.102271,0.203446 -0.168059,0.306826 -0.07935,0.114362 -0.152199,0.237805 -0.218744,0.370895 a 0.26460981,0.26460981 0 0 0 -0.0037,0.008 c -0.05376,0.118268 -0.106935,0.242123 -0.16059,0.370895 a 0.26460981,0.26460981 0 0 0 -0.0059,0.01151 c -0.03965,0.109022 -0.08301,0.218686 -0.132847,0.32835 a 0.26460981,0.26460981 0 0 0 -0.0016,0.004 c -0.21472,0.493856 -0.398609,0.998007 -0.548994,1.513612 a 0.26460981,0.26460981 0 0 0 0,0.004 c -0.134867,0.487597 -0.290314,0.974537 -0.466832,1.462558 a 0.26460981,0.26460981 0 0 0 -0.01547,0.117625 c 0.02062,0.195877 0.0367,0.38756 0.04695,0.572109 a 0.26460981,0.26460981 0 0 0 0.0016,0.01351 c 0.02096,0.18864 0.04142,0.38266 0.06242,0.58212 a 0.26460981,0.26460981 0 0 0 0,0.008 l 0.08056,0.597637 a 0.26460981,0.26460981 0 0 0 0.0037,0.02503 c 0.03418,0.148106 0.07886,0.299341 0.134448,0.454985 a 0.26460981,0.26460981 0 0 0 0.0021,0.006 c 0.05162,0.134208 0.104277,0.274219 0.156322,0.419947 a 0.26460981,0.26460981 0 0 0 0.04108,0.07808 c 0.08558,0.106976 0.183156,0.222656 0.289169,0.349873 a 0.26460981,0.26460981 0 0 0 0.0075,0.0095 c 0.110515,0.121566 0.221568,0.233182 0.333985,0.334356 0.113011,0.100455 0.246983,0.191683 0.398541,0.273291 0.127084,0.06843 0.242594,0.140178 0.347856,0.216731 a 0.26460981,0.26460981 0 0 0 0.290769,0.01351 L 20.1581,68.711094 c 0.17382,-0.0082 0.348269,-0.01402 0.521785,-0.01402 0.199095,0 0.393294,-0.01094 0.583673,-0.03103 0.0021,0 0.0017,1e-5 0.0037,0 0.09799,-5.24e-4 0.11044,-0.0132 0.184065,-0.02953 0.07515,-0.01667 0.175003,-0.0422 0.302507,-0.07408 0.253011,-0.06325 0.521867,-0.131377 0.806685,-0.205218 a 0.26460981,0.26460981 0 0 0 0.0059,-0.002 c 0.293071,-0.08374 0.559462,-0.156328 0.798682,-0.218732 0.123071,-0.03211 0.220382,-0.0586 0.295038,-0.08159 0.06632,-0.02042 0.102344,-0.02724 0.173928,-0.07058 0.0585,-0.02428 0.113029,-0.04685 0.171794,-0.105612 -6.92e-4,6.92e-4 0.0086,-0.0082 0.03681,-0.01952 a 0.26460981,0.26460981 0 0 0 0.04322,-0.02302 C 24.290126,67.70717 24.48433,67.57389 24.66796,67.433733 l 0.0059,-0.004 c 0.181228,-0.130635 0.371871,-0.257585 0.57407,-0.378904 a 0.26460981,0.26460981 0 0 0 0.0059,-0.004 c 0.09972,-0.06346 0.210755,-0.117393 0.332384,-0.164175 a 0.26460981,0.26460981 0 0 0 0.0096,-0.0035 c 0.04047,-0.01734 0.06905,-0.04349 0.107238,-0.06257 -0.08179,0.193347 -0.11959,0.404386 -0.0955,0.621161 a 0.26460981,0.26460981 0 0 0 0.05068,0.128637 c 0.113895,0.15186 0.20773,0.311292 0.2833,0.480512 0.06075,0.158623 0.09647,0.333059 0.105638,0.52556 a 0.26460981,0.26460981 0 0 0 0.31211,0.247764 c 0.08556,-0.01556 0.142922,-0.01224 0.179797,-0.004 0.06619,0.02333 0.123146,0.05049 0.170194,0.08409 a 0.26460981,0.26460981 0 0 0 0.01334,0.01001 c 0.07385,0.04616 0.142618,0.09634 0.205406,0.150159 a 0.26460981,0.26460981 0 0 0 0.01334,0.01001 c 0.09494,0.0712 0.19233,0.13341 0.292903,0.183696 a 0.26460981,0.26460981 0 0 0 0.152587,0.02503 c 0.500636,-0.06675 0.986447,-0.217352 1.45118,-0.448978 0.456559,-0.217409 0.855039,-0.512895 1.197223,-0.869426 0.1803,-0.0054 0.371582,0.0074 0.486573,-0.136645 0.107051,-0.12344 0.187627,-0.269913 0.23795,-0.433462 0.03892,-0.126489 0.08451,-0.252335 0.132847,-0.378903 0.0286,-0.06025 0.0685,-0.101832 0.193669,-0.138648 a 0.26460981,0.26460981 0 0 0 0.146185,-0.400426 c -0.0086,-0.01297 -0.0215,-0.02461 -0.03094,-0.03704 0.140219,-0.08804 0.309537,-0.149474 0.370798,-0.30082 0.07745,-0.177934 0.138541,-0.36055 0.183532,-0.549085 l 0.0043,-0.0095 c 0.04772,-0.169142 0.10322,-0.313465 0.163791,-0.425954 a 0.26460981,0.26460981 0 0 0 0.0037,-0.006 c 0.02402,-0.04803 0.06861,-0.09048 0.259825,-0.107114 a 0.26460981,0.26460981 0 0 0 0.01974,-0.002 c 0.03484,-0.0058 0.06866,-0.0058 0.103504,0 a 0.26460981,0.26460981 0 0 0 0.04268,0.002 h 0.205406 a 0.26460981,0.26460981 0 0 0 0.02134,0 c 0.09774,-0.0081 0.186649,3.64e-4 0.271563,0.02352 a 0.26460981,0.26460981 0 0 0 0.02561,0.0055 c 0.155567,0.02593 0.316145,0.02491 0.478036,0 a 0.26460981,0.26460981 0 0 0 0.0021,0 c 0.459445,-0.07309 0.876571,-0.130186 1.250042,-0.171683 a 0.26460981,0.26460981 0 0 0 0.0059,-0.002 c 0.09179,-0.0124 0.196536,-0.03475 0.292904,-0.05055 -0.007,0.01319 -0.01678,0.0258 -0.02347,0.03904 -0.07136,0.12845 -0.103439,0.277723 -0.09177,0.423451 0.0022,0.0708 0.04284,0.119773 0.07416,0.176187 a 0.26460981,0.26460981 0 0 0 -0.0955,0.2813 l 0.07416,0.200714 a 0.26460981,0.26460981 0 0 0 -0.215009,0.230745 v 0.599639 c -0.01028,0.21912 -0.0043,0.437598 0.01761,0.656199 a 0.26460981,0.26460981 0 0 0 0,0.002 c 0.02248,0.213512 0.06147,0.426236 0.117375,0.63868 0.05892,0.223912 0.148116,0.433628 0.267828,0.625166 a 0.26460981,0.26460981 0 0 0 0.03681,0.04655 c -0.01046,-0.01046 0.0127,0.01682 0.03895,0.06057 a 0.26460981,0.26460981 0 0 0 0.008,0.01001 c 0.04622,0.06932 0.07589,0.114594 0.126978,0.165677 0.0727,0.0727 0.157556,0.12612 0.257691,0.176187 a 0.26460981,0.26460981 0 0 0 0.01174,0.0055 c 0.0964,0.04284 0.17028,0.07488 0.228348,0.09811 a 0.26460981,0.26460981 0 0 0 0.01601,0.0055 c 0.29623,0.09874 0.598132,0.108827 0.876576,0.01602 0.252683,-0.07045 0.498625,-0.178229 0.73466,-0.324346 0.22099,-0.136802 0.441245,-0.280834 0.662101,-0.427955 l 0.0059,-0.002 c 7.57e-4,-5.04e-4 0.0013,-0.0014 0.0021,-0.002 0.198543,-0.121966 0.398782,-0.210055 0.60128,-0.265282 a 0.26460981,0.26460981 0 0 0 0.193668,-0.238254 c 0.0038,-0.06484 0.01781,-0.102822 0.02347,-0.115623 0.0609,-0.03383 0.128049,-0.05505 0.210741,-0.06257 a 0.26460981,0.26460981 0 0 0 0.02347,-0.0035 c 0.12292,-0.02235 0.24052,-0.05037 0.353725,-0.08409 0.210041,-0.05728 0.365097,-0.260647 0.409745,-0.468999 0.0204,-0.08221 0.03588,-0.151354 0.04695,-0.206721 a 0.26460981,0.26460981 0 0 0 0.0021,-0.01001 c 0.0034,-0.02051 0.01151,-0.04814 0.03681,-0.08609 a 0.26460981,0.26460981 0 0 0 0.01761,-0.02703 c 0.07034,-0.140689 0.146417,-0.230698 0.218744,-0.283301 a 0.26460981,0.26460981 0 0 0 0.0043,-0.004 c 0.127026,-0.09527 0.237575,-0.178785 0.333984,-0.25377 a 0.26460981,0.26460981 0 0 0 0.0037,-0.002 c 0.12375,-0.099 0.230119,-0.213583 0.318513,-0.339862 a 0.26460981,0.26460981 0 0 0 0.0059,-0.01001 c 0.09241,-0.14522 0.100798,-0.329346 0.107238,-0.517551 0.04154,-0.04579 0.08378,-0.0922 0.123244,-0.146155 2.59e-4,-3.55e-4 0.0018,3.55e-4 0.0021,0 0.0012,-0.0065 -0.01101,-0.0059 0.0059,-0.004 a 0.26460981,0.26460981 0 0 0 0.290769,-0.224739 c 0.01408,-0.09858 0.01257,-0.199831 0,-0.302822 v -0.0035 c -0.0083,-0.07631 -0.01104,-0.148319 -0.01174,-0.215229 0.007,-0.04869 0.01715,-0.09162 0.03308,-0.132642 0.0035,-0.0057 0.01926,-0.01021 0.02774,-0.01552 0.337068,0.01885 0.650744,0.03523 0.925661,0.04505 0.303827,0.01085 0.596951,0.0039 0.880845,-0.01802 0.2871,-0.02209 0.568914,-0.06423 0.845632,-0.13064 a 0.26460981,0.26460981 0 0 0 0.008,-0.002 c 0.01405,-0.0038 0.03069,-0.01158 0.04482,-0.01552 v 0.07608 c 0,0.18502 -0.02225,0.33567 -0.06242,0.458989 -0.05559,0.137795 -0.123407,0.264465 -0.205405,0.382907 -0.132025,0.190705 -0.182442,0.428829 -0.156322,0.667711 0.0134,0.204909 0.06272,0.408319 0.144584,0.607648 2.49e-4,6.07e-4 -2.5e-4,0.0013 0,0.002 0.06807,0.189933 0.152668,0.370259 0.253957,0.539074 0.09741,0.162358 0.179369,0.289806 0.251822,0.386411 0.08528,0.113709 0.167804,0.243387 0.246487,0.390917 a 0.26460981,0.26460981 0 0 0 0.01174,0.01952 c 0.101749,0.158277 0.20985,0.301712 0.325982,0.429458 a 0.26460981,0.26460981 0 0 0 0.008,0.008 c 0.128312,0.128312 0.279586,0.224932 0.444958,0.2813 0.192004,0.07194 0.403321,0.05044 0.602879,-0.02753 0.138714,0.0264 0.27349,0.04505 0.401209,0.04505 0.140876,0 0.289337,-0.0125 0.447091,-0.03504 a 0.26460981,0.26460981 0 0 0 0.0043,0 c 0.123381,-0.01898 0.239556,-0.03311 0.353192,-0.04305 h 0.0037 c 0.121684,2.06e-4 0.238277,0.0088 0.347856,0.02703 a 0.26460981,0.26460981 0 0 0 0.179797,-0.03303 c 0.05085,-0.03051 0.157539,-0.06505 0.320113,-0.07408 0.19986,-0.0111 0.384879,-0.03414 0.556997,-0.06857 a 0.26460981,0.26460981 0 0 0 0.01761,-0.004 c 0.188776,-0.05034 0.353111,-0.130715 0.48017,-0.257775 0.09673,-0.09673 0.14085,-0.235347 0.14085,-0.359383 0,-0.02968 -0.01627,-0.05846 -0.01974,-0.08759 0.239689,-0.08358 0.480803,-0.171875 0.720789,-0.265783 a 0.26460981,0.26460981 0 0 0 0.0037,-0.002 c 0.260783,-0.10866 0.512695,-0.228708 0.752266,-0.359383 a 0.26460981,0.26460981 0 0 0 0.0075,-0.006 c 0.06283,-0.0377 0.126105,-0.08129 0.187799,-0.130639 0.03617,-0.02894 0.06554,-0.04492 0.08963,-0.05456 a 0.26460981,0.26460981 0 0 0 0.01761,-0.008 l 1.47092,-0.706752 -0.0059,-0.006 a 0.26460981,0.26460981 0 0 0 0.355325,0.01752 c 0.211631,-0.173152 0.427401,-0.299297 0.650363,-0.382908 a 0.26460981,0.26460981 0 0 0 0.0075,-0.004 c 0.243596,-0.1015 0.486888,-0.218505 0.729324,-0.347871 0.125598,-0.0185 0.253032,-0.09104 0.31958,-0.189201 l 0.150453,-0.210725 0.0043,-0.006 c 0.05096,-0.06746 0.100317,-0.124561 0.148319,-0.173685 -1.09e-4,-9.29e-4 -0.01133,-0.0084 0.06029,0.0095 a 0.26460981,0.26460981 0 0 0 0.226747,-0.04855 c 0.111697,-0.08688 0.211786,-0.18698 0.298773,-0.298818 0.06683,-0.08593 0.138559,-0.16781 0.215009,-0.24426 a 0.26460981,0.26460981 0 0 0 0.0096,-0.01001 c 0.08769,-0.09743 0.147291,-0.167422 0.195269,-0.22624 l 0.01974,-0.02152 c 0.04729,-0.04847 0.09112,-0.09551 0.126978,-0.142652 l 0.0059,-0.006 0.110972,-0.138647 0.211275,-0.210725 a 0.26460981,0.26460981 0 0 0 0.05655,-0.289308 0.26460981,0.26460981 0 0 0 0.01974,-0.08759 v -0.158169 c 0,-0.136832 -0.107329,-0.316588 -0.244354,-0.371395 a 0.26460981,0.26460981 0 0 0 -0.269428,0.04305 c -0.12812,0.10841 -0.261178,0.20651 -0.398541,0.294814 a 0.26460981,0.26460981 0 0 0 -0.008,0.006 c -0.134448,0.09308 -0.273254,0.186411 -0.417748,0.279298 -0.176976,0.114515 -0.31852,0.202965 -0.419881,0.26378 -0.09853,0.05538 -0.18773,0.117073 -0.269429,0.185198 -0.0045,0.0032 -0.0093,0.0087 -0.01387,0.01201 -0.0011,9.09e-4 -0.0026,10e-4 -0.0037,0.002 -0.0772,0.0561 -0.155255,0.118377 -0.238484,0.191203 a 0.26460981,0.26460981 0 0 0 -0.01387,0.01201 c -0.04485,0.04485 -0.137791,0.132606 -0.220345,0.210724 a 0.26460981,0.26460981 0 0 0 -0.298772,0.02553 c -0.110076,0.110075 -0.225694,0.21431 -0.345722,0.314334 -0.05622,0.04685 -0.09011,0.0591 -0.220878,0.01552 a 0.26460981,0.26460981 0 0 0 -0.224613,0.02753 c -0.05283,0.03302 -0.101092,0.05042 -0.156322,0.05656 a 0.26460981,0.26460981 0 0 0 -0.0037,0 c -0.09538,0.01192 -0.189554,0.02913 -0.2833,0.05256 a 0.26460981,0.26460981 0 0 0 -0.0096,0.002 c -0.105712,0.0302 -0.204999,0.082 -0.298772,0.148658 -0.09069,0.06184 -0.123105,0.161126 -0.16806,0.251768 h 0.115241 a 0.26460981,0.26460981 0 0 0 -0.04108,0.004 c -0.0274,0.0042 -0.05478,0.0062 -0.08216,0.01001 -0.02098,0.04431 -0.06603,0.07275 -0.08216,0.121129 l 0.03895,-0.117625 c -0.0886,0.01151 -0.177458,0.02474 -0.265694,0.03153 -0.150654,0.01159 -0.296178,0.03476 -0.437488,0.07008 a 0.26460981,0.26460981 0 0 0 -0.0059,0 c -0.138789,0.03785 -0.272985,0.09485 -0.398541,0.170181 -0.142978,0.08579 -0.2627,0.207825 -0.355325,0.353376 a 0.26460981,0.26460981 0 0 0 -0.0059,0.01201 c -0.04643,0.08126 -0.08195,0.159317 -0.109372,0.238254 -4.79e-4,0.0012 -0.0016,0.0023 -0.0021,0.0035 -0.0011,0.0032 -0.0027,0.0068 -0.0037,0.01001 -0.0065,0.0167 -0.01122,0.03868 -0.01761,0.05656 -0.01631,-2.51e-4 -0.02938,0.0038 -0.04695,0.002 -0.0043,-5.37e-4 0.0085,0.01544 -0.01334,-0.01952 a 0.26460981,0.26460981 0 0 0 -0.267828,-0.121129 c -0.268671,0.04478 -0.530246,0.116734 -0.786945,0.216731 -0.237929,0.08652 -0.477411,0.185355 -0.714919,0.293312 l 0.0059,-0.004 c -0.21615,0.09264 -0.442323,0.186342 -0.679706,0.279297 -5.87e-4,2.13e-4 -0.0015,-2.13e-4 -0.0021,0 -0.0014,5.51e-4 -0.0023,0.0014 -0.0037,0.002 -0.209524,0.07571 -0.428431,0.129148 -0.658366,0.158169 -0.140639,-0.06495 -0.285155,-0.129138 -0.445491,-0.129138 -0.164395,0 -0.332983,0.01054 -0.505779,0.03153 -0.151556,0.0095 -0.294887,0.01057 -0.435354,0.002 -0.01767,-0.0024 -0.0254,-0.01583 -0.04108,-0.01952 0.03175,-0.0343 0.05631,-0.09058 0.09177,-0.115122 a 0.26460981,0.26460981 0 0 0 0.0037,-0.002 c 0.131341,-0.09382 0.265991,-0.168009 0.402809,-0.222737 a 0.26460981,0.26460981 0 0 0 0.0075,-0.004 c 0.15531,-0.06795 0.309622,-0.119801 0.463097,-0.158168 a 0.26460981,0.26460981 0 0 0 0.01334,-0.004 c 0.18374,-0.05742 0.34933,-0.127066 0.496175,-0.212726 a 0.26460981,0.26460981 0 0 0 0.0059,-0.004 c 0.166623,-0.102536 0.306739,-0.23591 0.412412,-0.39442 0.06641,-0.09962 0.06508,-0.236044 0.09177,-0.35738 0.02151,0.0044 0.04049,0.0091 0.06242,0.01351 0.0949,0.01898 0.184058,0.04216 0.267828,0.07008 a 0.26460981,0.26460981 0 0 0 0.224613,-0.02703 c 0.134634,-0.08415 0.235469,-0.215798 0.294504,-0.363387 l -0.0096,0.02152 c 0.01684,-0.03368 0.04531,-0.05957 0.06616,-0.0901 0.0261,0.01081 0.04412,0.03186 0.07469,0.03904 0.111139,0.0261 0.302173,-0.02721 0.3788,-0.142152 0.06265,-0.09398 0.107896,-0.200047 0.144585,-0.322343 a 0.26460981,0.26460981 0 0 0 0.0016,-0.006 c 0.02145,-0.07865 0.05583,-0.146415 0.0939,-0.209223 0.01645,-0.0014 0.05314,-0.0039 0.117375,0.01402 a 0.26460981,0.26460981 0 0 0 0.212875,-0.03153 c 0.260895,-0.166024 0.47196,-0.374229 0.62102,-0.622663 a 0.26460981,0.26460981 0 0 0 0.0021,-0.004 c 0.128821,-0.225436 0.246022,-0.46204 0.353191,-0.707253 l 0.0059,-0.01351 0.199537,-0.398424 -0.0021,0.0075 c 0.06732,-0.125025 0.143634,-0.245087 0.230482,-0.360884 a 0.26460981,0.26460981 0 0 0 0.0021,-0.002 c 0.117857,-0.162054 0.175529,-0.362137 0.175529,-0.566603 0,-0.128563 -0.08782,-0.231317 -0.144585,-0.345868 0.04163,-0.04369 0.104957,-0.06191 0.129112,-0.119127 0.06001,-0.142154 0.04701,-0.295394 0.0037,-0.433462 -0.08125,-0.268531 -0.258765,-0.500637 -0.502044,-0.683728 -0.242041,-0.189937 -0.539842,-0.302181 -0.872842,-0.33786 -0.298129,-0.03312 -0.572425,0.157912 -0.838163,0.357381 -0.07417,-0.04623 -0.145222,-0.09314 -0.232082,-0.111118 -0.117482,-0.02432 -0.260555,-0.0044 -0.367063,0.06657 -0.113545,0.0757 -0.221056,0.171398 -0.324382,0.284803 -0.08084,0.08084 -0.177869,0.158627 -0.291303,0.234249 a 0.26460981,0.26460981 0 0 0 -0.0075,0.006 c -0.02317,0.01685 -0.06108,0.03578 -0.215009,-0.02903 a 0.26460981,0.26460981 0 0 0 -0.284901,0.05055 c -0.170999,0.160939 -0.351683,0.311919 -0.543125,0.452982 -0.204032,0.150339 -0.402575,0.305855 -0.595944,0.466997 -0.196121,0.15298 -0.386185,0.321889 -0.570335,0.506039 -0.185768,0.185768 -0.346907,0.398934 -0.483905,0.63868 a 0.26460981,0.26460981 0 0 0 -0.01174,0.08359 c -0.169527,0.04347 -0.338737,0.08552 -0.507913,0.121129 a 0.26460981,0.26460981 0 0 0 -0.0021,0 c -0.183514,0.04078 -0.377798,0.08221 -0.582073,0.123131 -0.0017,2.55e-4 -0.0042,-2.55e-4 -0.0059,0 -0.0021,4.22e-4 -0.0037,0.0015 -0.0059,0.002 -0.202832,0.0303 -0.429537,0.06158 -0.683442,0.0921 -0.127157,-0.06717 -0.249259,-0.159291 -0.390538,-0.138648 -0.142313,0.01311 -0.285493,0.03884 -0.42575,0.08559 -0.09593,0.03198 -0.180893,0.04507 -0.259826,0.04705 7.58e-4,-3.6e-5 -0.03525,-0.04613 -0.06722,-0.08509 5.07e-4,0.0023 0.0012,0.0043 0.0027,-10e-4 a 0.26460981,0.26460981 0 0 0 0.0021,-0.0075 c 0.01871,-0.07486 0.04199,-0.148337 0.06989,-0.222738 a 0.26460981,0.26460981 0 0 0 0.0043,-0.01001 c 0.02599,-0.07796 0.05283,-0.1361 0.07789,-0.173685 a 0.26460981,0.26460981 0 0 0 0.0096,-0.01552 c 0.03314,-0.05799 0.0685,-0.08023 0.02774,-0.05306 a 0.26460981,0.26460981 0 0 0 0.02134,-0.425453 c -0.07233,-0.05918 -0.05044,-0.04425 -0.05069,-0.04305 0.01933,-0.09666 0.04487,-0.193691 0.07416,-0.29131 l -0.008,0.02352 c 0.05274,-0.131859 0.07452,-0.271588 0.06242,-0.409937 -0.0035,-0.114664 -0.05179,-0.230543 -0.12271,-0.310831 -0.0524,-0.05933 -0.120816,-0.09419 -0.1878,-0.132641 -0.0455,-0.0693 -0.09081,-0.136437 -0.150453,-0.189202 -0.07543,-0.06674 -0.179763,-0.125133 -0.304641,-0.125133 -0.161073,0 -0.308732,0.07374 -0.425751,0.175687 -0.0959,0.07366 -0.188243,0.15944 -0.277431,0.259777 -0.05103,0.05741 -0.07907,0.06667 -0.113107,0.07007 a 0.26460981,0.26460981 0 0 0 -0.232082,0.316838 c 0.07925,0.386342 0.09885,0.746274 0.06029,1.083654 -0.03971,0.347505 -0.120042,0.678214 -0.238484,0.994059 -0.119981,0.319947 -0.275271,0.636963 -0.466832,0.949511 a 0.26460981,0.26460981 0 0 0 0,0.002 c -0.185521,0.309199 -0.393256,0.624066 -0.62102,0.945006 -0.397308,0.560309 -0.832229,1.024731 -1.304461,1.396487 -0.430561,0.338954 -0.964808,0.58612 -1.568554,0.775827 -0.0047,-0.0087 -0.03884,-0.0398 -0.03895,-0.04104 -0.0073,-0.07999 0.0013,-0.175647 0.02561,-0.285304 L 36.4865,66.713045 a 0.26460981,0.26460981 0 0 0 0.0016,-0.006 c 0.04225,-0.147875 0.003,-0.29969 -0.03095,-0.448978 0.05215,-0.12363 0.09467,-0.251896 0.116842,-0.38491 a 0.26460981,0.26460981 0 0 0 0,-5e-4 0.26460981,0.26460981 0 0 0 0,-5.01e-4 0.26460981,0.26460981 0 0 0 0,-5e-4 0.26460981,0.26460981 0 0 0 0,-5.01e-4 c 0.02148,-0.139643 0.03795,-0.269008 0.04908,-0.390416 v -0.004 c 0.04018,-0.369138 0.116595,-0.710908 0.224612,-1.025592 0.09998,-0.262656 0.29614,-0.462363 0.646629,-0.61916 a 0.26460981,0.26460981 0 0 0 0.150453,-0.294814 c -0.04426,-0.212427 -0.03382,-0.390898 0.02134,-0.550586 0.07995,-0.199073 0.169917,-0.393048 0.269429,-0.58212 0.10942,-0.207899 0.202212,-0.421249 0.279565,-0.640682 v -0.002 c 0.102779,-0.257995 0.126492,-0.542273 0.07789,-0.833888 a 0.26460981,0.26460981 0 0 0 -0.08376,-0.152663 c -0.241727,-0.217556 -0.511166,-0.35373 -0.793347,-0.30082 a 0.26460981,0.26460981 0 0 0 -0.0037,0 c -0.208824,0.04177 -0.403862,0.147767 -0.578338,0.297316 -0.151259,0.129651 -0.302495,0.267677 -0.45296,0.417946 -0.111782,0.102672 -0.216578,0.151612 -0.336119,0.165676 a 0.26460981,0.26460981 0 0 0 -0.226213,0.207221 c -0.05068,0.233128 -0.111488,0.45438 -0.181931,0.665709 -0.07487,0.224612 -0.14449,0.449806 -0.208608,0.674218 -0.04395,0.153822 -0.08145,0.311542 -0.119508,0.468499 -0.07215,0.02574 -0.137431,0.07078 -0.204873,0.111618 -0.02173,-0.02257 -0.03597,-0.0547 -0.06082,-0.07458 -0.08732,-0.06987 -0.211651,-0.117526 -0.33772,-0.109116 -0.153028,0.0029 -0.303216,0.04607 -0.437488,0.126635 a 0.26460981,0.26460981 0 0 0 -0.0096,0.008 c -0.0789,0.0526 -0.163613,0.101395 -0.252356,0.146656 -7.6e-5,3.1e-5 -0.0015,-4.6e-5 -0.0016,0 -0.0025,0.0021 0.01873,0.02 -0.05282,-0.04505 a 0.26460981,0.26460981 0 0 0 -0.312644,-0.03103 c -0.265422,0.155592 -0.507431,0.210076 -0.751733,0.185198 -0.221615,-0.03148 -0.449421,-0.131155 -0.679707,-0.249766 v -0.08609 -0.363387 -0.378904 -0.251768 a 0.26460981,0.26460981 0 0 0 -0.0043,-0.04305 c -0.0149,-0.08938 -0.04236,-0.192362 -0.0859,-0.333855 -0.04174,-0.135656 -0.08881,-0.277058 -0.140316,-0.421949 l -0.0059,-0.01552 c -0.04083,-0.141301 -0.08666,-0.2775 -0.137115,-0.410437 l -0.0059,-0.02152 -0.0875,-0.308328 a 0.26460981,0.26460981 0 0 0 -0.105638,-0.146657 c -0.298706,-0.203119 -0.611459,-0.304853 -0.910188,-0.22624 -0.228959,0.06025 -0.454276,0.161649 -0.673838,0.300319 a 0.26460981,0.26460981 0 0 0 -0.0059,0.002 c -0.182446,0.12163 -0.381874,0.244927 -0.595944,0.367392 -0.154195,0.08481 -0.334091,0.117641 -0.57407,0.08209 a 0.26460981,0.26460981 0 0 0 -0.280632,0.340863 0.26460981,0.26460981 0 0 0 -0.01014,0.02603 l -0.06242,0.189702 c -0.0236,0.06132 -0.04368,0.124851 -0.05655,0.189201 a 0.26460981,0.26460981 0 0 0 -0.0043,0.05105 c 0,0.04232 0.04135,0.05356 0.05282,0.08959 -0.0045,0.0028 -0.0089,0.0095 -0.01334,0.01201 -0.06857,0.03918 -0.14413,0.07889 -0.224613,0.119127 -0.07583,0.03286 -0.153483,0.06969 -0.23635,0.111118 -0.107653,0.05383 -0.205172,0.123225 -0.289169,0.207221 a 0.26460981,0.26460981 0 0 0 -0.07629,0.222737 c 0.02382,0.174705 -0.0033,0.230197 -0.06616,0.283302 -0.125454,0.106153 -0.260515,0.203192 -0.406544,0.290809 -0.177769,0.106663 -0.336638,0.232799 -0.470567,0.378904 -0.09749,0.107234 -0.08247,0.258686 -0.09176,0.400426 -0.03678,0.0386 -0.07077,0.07476 -0.109372,0.115123 -0.223573,0.233735 -0.433415,0.425402 -0.629023,0.572109 a 0.26460981,0.26460981 0 0 0 -0.0021,0.002 c -0.309058,0.236946 -0.635427,0.462776 -0.976345,0.679724 -0.346588,0.220556 -0.687507,0.436822 -1.023295,0.646689 a 0.26460981,0.26460981 0 0 0 -0.0059,0.004 c -0.185414,0.123609 -0.413978,0.268328 -0.685576,0.435464 -0.262674,0.151216 -0.493284,0.266949 -0.685575,0.343866 a 0.26460981,0.26460981 0 0 0 -0.01014,0.0035 c -0.07796,0.03465 -0.18882,0.07382 -0.328116,0.113621 a 0.26460981,0.26460981 0 0 0 -0.0037,0.002 c -0.134883,0.0415 -0.276364,0.08151 -0.422016,0.123131 -0.141918,0.03049 -0.279213,0.06098 -0.411879,0.0916 -0.108633,0.01691 -0.204712,0.03332 -0.295037,0.05055 -0.21101,-0.04862 -0.422055,-0.100704 -0.632757,-0.158168 -0.194567,-0.05306 -0.383507,-0.111031 -0.570335,-0.171683 l -0.197404,-0.349372 c 0.259217,-0.273051 0.520763,-0.543027 0.787479,-0.800853 0.324076,-0.313272 0.627297,-0.647722 0.908054,-1.004069 a 0.26460981,0.26460981 0 0 0 0.0059,-0.008 c 0.0888,-0.122102 0.17089,-0.248338 0.248088,-0.380405 l 0.0021,-0.004 c 0.07753,-0.125625 0.15786,-0.240807 0.243819,-0.345868 a 0.26460981,0.26460981 0 0 0 0.0021,0 c 0.172532,-0.213128 0.365155,-0.427901 0.579939,-0.642685 0.216344,-0.216342 0.426912,-0.410014 0.631156,-0.583621 a 0.26460981,0.26460981 0 0 0 0.06242,-0.07658 c 0.07227,-0.134222 0.144603,-0.26297 0.21661,-0.386411 a 0.26460981,0.26460981 0 0 0 0.0037,-0.008 c 0.07723,-0.14342 0.144703,-0.282502 0.201138,-0.417945 a 0.26460981,0.26460981 0 0 0 0.0021,-0.0075 c 0.05776,-0.150187 0.104441,-0.305051 0.138716,-0.464995 a 0.26460981,0.26460981 0 0 0 0,-5.01e-4 0.26460981,0.26460981 0 0 0 0,-5e-4 0.26460981,0.26460981 0 0 0 0,-5.01e-4 0.26460981,0.26460981 0 0 0 0,-0.0015 0.26460981,0.26460981 0 0 0 0,-5.01e-4 0.26460981,0.26460981 0 0 0 0,-5e-4 c 0.02681,-0.134054 0.05308,-0.261708 0.08003,-0.388414 l 0.494041,-0.580118 a 0.26460981,0.26460981 0 0 0 0.06082,-0.146656 l 0.07043,-0.701247 0.552728,-0.500032 a 0.26460981,0.26460981 0 0 0 0.0875,-0.175687 l 0.05869,-0.790842 c 0.114344,-0.14674 0.222353,-0.302474 0.30891,-0.484516 v -0.002 c 0.111158,-0.222552 0.196188,-0.436723 0.253956,-0.644686 a 0.26460981,0.26460981 0 0 0 0.0075,-0.107114 c -0.01824,-0.127644 -0.02877,-0.280481 -0.02934,-0.453483 v -0.0075 c -3e-6,-0.0022 0,-0.0037 0,-0.006 l 0.03148,-0.574112 c 0.02053,-0.205315 0.03979,-0.404645 0.06029,-0.599638 l 0.0021,-0.01201 c 6.6e-5,-6.28e-4 -6.6e-5,-0.0013 0,-0.002 0.03075,-0.195351 0.05757,-0.372616 0.07843,-0.529064 a 0.26460981,0.26460981 0 0 0 -0.04322,-0.181693 L 25.285014,53.8674 a 0.26460981,0.26460981 0 0 0 -0.263559,-0.113621 l -0.623154,0.10361 -0.218744,-0.218733 a 0.26460981,0.26460981 0 0 0 -0.165925,-0.07658 z m -0.113641,2.594262 0.07843,0.230246 -0.04108,0.754303 -0.349457,0.490022 A 0.26460981,0.26460981 0 0 0 23.541123,57.75 l -0.06829,0.521555 -0.517516,0.603643 a 0.26460981,0.26460981 0 0 0 -0.06296,0.15016 l -0.07203,0.917977 c -0.163448,0.198091 -0.317787,0.401391 -0.455094,0.617158 -0.07877,0.123784 -0.151815,0.253057 -0.218744,0.386912 a 0.26460981,0.26460981 0 0 0 -0.008,0.01752 c -0.04422,0.106116 -0.100589,0.20822 -0.173395,0.308329 a 0.26460981,0.26460981 0 0 0 -0.01014,0.01401 c -0.06271,0.09854 -0.139637,0.19236 -0.232082,0.284804 a 0.26460981,0.26460981 0 0 0 -0.01014,0.01201 c -0.106881,0.118757 -0.197979,0.244275 -0.271562,0.378903 -2.51e-4,4.59e-4 2.51e-4,0.0015 0,0.002 -0.08158,0.130732 -0.150676,0.273737 -0.207007,0.43146 a 0.26460981,0.26460981 0 0 0 -0.0059,0.01752 c -0.03757,0.131483 -0.08217,0.244018 -0.134447,0.339862 a 0.26460981,0.26460981 0 0 0 -0.0021,0.004 c -0.113746,0.218013 -0.250081,0.432393 -0.400675,0.642684 -0.0899,0.06211 -0.18069,0.124618 -0.279032,0.187199 -0.117241,0.07085 -0.229123,0.153052 -0.333985,0.246263 -0.111272,0.09026 -0.21087,0.192348 -0.300906,0.302822 0.07217,-0.133389 0.127844,-0.274028 0.164324,-0.419947 0.03748,-0.139522 0.05655,-0.288217 0.05655,-0.443472 0,-0.109768 0.01636,-0.20267 0.04695,-0.286806 0.01243,-0.02595 0.02382,-0.03628 0.0016,-0.01402 a 0.26460981,0.26460981 0 0 0 0.03361,-0.04104 c 0.03223,-0.04835 0.05496,-0.09906 0.07789,-0.154165 l 0.0096,-0.01952 0.240618,-0.476508 0.0037,-0.008 c 0.129351,-0.237882 0.273588,-0.460296 0.431619,-0.667711 0.17851,-0.234295 0.333504,-0.485145 0.466832,-0.751801 a 0.26460981,0.26460981 0 0 0 0.0037,-0.008 c 0.117844,-0.257112 0.225559,-0.521282 0.322248,-0.78934 l 0.0021,-0.0055 c 0.101279,-0.262715 0.211648,-0.509898 0.33185,-0.740288 a 0.26460981,0.26460981 0 0 0 0.0059,-0.01201 c 0.0562,-0.12176 0.122222,-0.232682 0.195803,-0.333856 0.08591,-0.11812 0.166147,-0.236063 0.242219,-0.355378 0.09282,-0.139228 0.168688,-0.280772 0.228347,-0.423952 a 0.26460981,0.26460981 0 0 0 0.0037,-0.006 c 0.04749,-0.123478 0.103674,-0.241347 0.170193,-0.355379 a 0.26460981,0.26460981 0 0 0 0.0016,-0.004 c 0.205627,-0.359845 0.426041,-0.702567 0.662101,-1.031098 v -0.002 c 0.148689,-0.204496 0.281845,-0.418963 0.419881,-0.630672 z m 79.698577,1.017084 a 0.26460981,0.26460981 0 0 0 0.0411,0.131139 c -0.003,-0.0041 -0.0107,-0.01363 -0.0107,-0.01351 3.1e-4,5.96e-4 -0.0287,-0.111491 -0.0304,-0.117625 z m -2.9141,0.01051 a 0.26460981,0.26460981 0 0 0 -0.13017,0.08159 l -0.789084,0.913973 a 0.26460981,0.26460981 0 0 0 -0.06242,0.142652 c -0.02545,0.216312 -6.22e-4,0.424075 0.09016,0.605645 0.07489,0.149786 0.17318,0.292255 0.292904,0.423951 a 0.26460981,0.26460981 0 0 0 0.008,0.0075 c 0.10221,0.102208 0.20604,0.20978 0.30837,0.322344 a 0.26460981,0.26460981 0 0 0 0.0176,0.01752 c 0.0974,0.08857 0.17326,0.183561 0.23261,0.285304 a 0.26460981,0.26460981 0 0 0 0.2849,0.125133 c 0.12333,-0.02741 0.2395,-0.07392 0.33612,-0.156166 0.0966,-0.08225 0.16428,-0.205181 0.18353,-0.330352 0.0235,-0.152524 0.0298,-0.314486 0.0197,-0.482514 0,-0.146078 0.0101,-0.285905 0.0294,-0.419947 0.006,-0.04358 0.0116,-0.06795 0.14832,-0.121129 a 0.26460981,0.26460981 0 0 0 0.12484,-0.39442 c -0.0617,-0.09255 -0.11849,-0.179902 -0.16966,-0.261779 -0.043,-0.09285 -0.0881,-0.182943 -0.14085,-0.267284 -0.0661,-0.105794 -0.14782,-0.200379 -0.24222,-0.2813 -0.10799,-0.09256 -0.23912,-0.157462 -0.3884,-0.207221 h -5.3e-4 a 0.26460981,0.26460981 0 0 0 -0.15313,-0.0035 z m 2.96425,0.133141 a 0.26460981,0.26460981 0 0 0 0.10511,0.0891 c -0.006,-0.0026 -0.0122,-0.0046 -0.0213,-0.0095 -0.0124,-0.0067 -0.0476,-0.0321 -0.0469,-0.03153 4.2e-4,3.71e-4 -0.0199,-0.02597 -0.0368,-0.04805 z m -38.769972,2.194838 a 0.26460981,0.26460981 0 0 0 -0.146718,0.01752 c -0.2889,0.122226 -0.557841,0.272231 -0.804551,0.450981 -0.0012,8.03e-4 -0.0025,0.0012 -0.0037,0.002 -7.1e-4,5.16e-4 -0.0013,0.0014 -0.0021,0.002 -0.235368,0.160709 -0.464723,0.331737 -0.68931,0.513547 a 0.26460981,0.26460981 0 0 0 -0.0037,0.004 c -0.210663,0.179063 -0.427678,0.363588 -0.648763,0.553089 a 0.26460981,0.26460981 0 0 0 -0.0037,0.0035 c -0.201145,0.18103 -0.408086,0.352899 -0.618886,0.514047 -0.13308,0.06537 -0.249157,0.168134 -0.320647,0.296816 a 0.26460981,0.26460981 0 0 0 -0.0037,0.0095 c -0.04192,0.08385 -0.07491,0.175842 -0.09977,0.275293 a 0.26460981,0.26460981 0 0 0 -0.0059,0.02553 c -0.0068,0.04764 -0.01891,0.08825 -0.03735,0.125133 a 0.26460981,0.26460981 0 0 0 -0.0096,0.02553 0.26460981,0.26460981 0 0 0 -0.01547,0.0075 c 0.04249,-0.02549 0.01506,-0.0019 -0.07043,-0.01752 A 0.26460981,0.26460981 0 0 0 61.0936,62.654222 l 0.04908,0.164175 -0.25609,0.123131 a 0.26460981,0.26460981 0 0 0 -0.136582,0.154164 c -0.01385,0.04154 -0.03861,0.09597 -0.07416,0.158169 -0.04465,0.06885 -0.08366,0.141982 -0.117374,0.218733 -6.44e-4,0.0013 -0.0014,0.0027 -0.0021,0.004 -0.04887,0.09932 -0.07202,0.209244 -0.07202,0.318339 0,0.05937 0.04381,0.0972 0.06242,0.148658 -0.109152,0.106908 -0.223119,0.207515 -0.306775,0.341364 a 0.26460981,0.26460981 0 0 0 -0.0016,0.004 c -0.09743,0.162384 -0.194731,0.335137 -0.291303,0.517551 a 0.26460981,0.26460981 0 0 0 -0.0037,0.006 c -0.08513,0.170266 -0.168983,0.346993 -0.253957,0.527561 -0.07857,0.156583 -0.167719,0.308023 -0.265694,0.454985 a 0.26460981,0.26460981 0 0 0 0.01387,0.31033 c 0.09983,0.12478 0.09337,0.175685 0.09337,0.175688 -0.02316,0.07522 -0.06278,0.160254 -0.124844,0.257774 l 0.01547,-0.02102 c -0.09176,0.114695 -0.169027,0.240164 -0.237951,0.374899 -0.120102,0.193121 -0.12011,0.437772 -0.03895,0.654197 a 0.26460981,0.26460981 0 0 0 0.10137,0.128637 c 0.0585,0.039 0.142333,0.118033 0.23635,0.240255 0.107321,0.139516 0.214928,0.273646 0.322247,0.402429 a 0.26460981,0.26460981 0 0 0 0.01547,0.01752 c 0.129527,0.129526 0.270911,0.233653 0.422016,0.310831 0.127764,0.07289 0.279053,0.03531 0.425751,0.01952 0.08349,0.08937 0.164922,0.183989 0.281166,0.222738 0.124895,0.04163 0.25692,0.05398 0.386803,0.04104 0.124574,-0.0019 0.249078,-0.01639 0.371331,-0.05306 0.09776,-0.0197 0.19189,-0.03872 0.281166,-0.05856 a 0.26460981,0.26460981 0 0 0 0.0075,-0.002 c 0.05907,-0.01477 0.103226,-0.01088 0.181931,0.03504 a 0.26460981,0.26460981 0 0 0 0.390538,-0.167679 c 0.03327,-0.141391 0.07971,-0.204374 0.107238,-0.226741 0.07964,-0.05459 0.158266,-0.09267 0.240618,-0.115123 l 0.347323,-0.0956 a 0.26460981,0.26460981 0 0 0 0.02187,-0.006 c 0.152974,-0.05563 0.286863,-0.150768 0.396407,-0.271289 0.06929,-0.06988 0.131063,-0.149324 0.175529,-0.238254 0.01877,-0.03754 0.04295,-0.07026 0.07629,-0.10361 0.142878,-0.142879 0.284154,-0.275055 0.42575,-0.396422 0.119506,-0.102433 0.210256,-0.238809 0.304641,-0.369394 0.02443,0.01853 0.04913,0.03908 0.07256,0.06457 0.06899,0.348128 0.162417,0.659911 0.320113,0.896455 a 0.26460981,0.26460981 0 0 0 0.0037,0.006 c 0.165687,0.236696 0.368975,0.434468 0.607681,0.589628 0.229176,0.148965 0.483551,0.274127 0.76347,0.374899 0.263506,0.101503 0.538091,0.222289 0.824292,0.365389 a 0.26460981,0.26460981 0 0 0 0.290769,-0.03504 l 0.07043,-0.06257 c 0.09658,0.03081 0.224502,0.04707 0.349457,-0.02953 0.07924,-0.0452 0.150287,-0.111309 0.191534,-0.191204 8.27e-4,1.18e-4 0.0012,0.0018 0.0021,0.002 0.03671,0.005 0.06665,0.03046 0.101369,0.02352 l -0.05068,0.006 h 0.1894 0.05869 c 0.02301,0.0043 0.04214,0.01552 0.06669,0.01552 0.141476,0 0.24101,-0.05369 0.345722,-0.119127 0.09615,-0.0542 0.191483,-0.118483 0.284901,-0.189702 l 0.01174,-0.0095 c 0.113936,-0.07347 0.227297,-0.162168 0.337719,-0.259777 0.182264,-0.117936 0.324431,-0.214693 0.430019,-0.296816 a 0.26460981,0.26460981 0 0 0 0.0016,-0.002 c 0.06287,-0.0503 0.110207,-0.109273 0.164325,-0.164175 0.129707,0.298553 0.259058,0.598994 0.394273,0.876934 a 0.26460981,0.26460981 0 0 0 0.0021,0.004 l 0.01547,0.03103 a 0.26460981,0.26460981 0 0 0 0.23635,0.144654 h 0.463097 c 0.305014,0.198421 0.619456,0.295354 0.918191,0.210724 0.261388,-0.07151 0.5094,-0.190465 0.74213,-0.353376 0.211116,-0.147782 0.428915,-0.300811 0.650363,-0.458989 a 0.26460981,0.26460981 0 0 0 0.0016,0 c 0.184979,-0.13453 0.395692,-0.203216 0.664235,-0.203216 a 0.26460981,0.26460981 0 0 0 0.238485,-0.146156 l 0.01547,-0.03354 a 0.26460981,0.26460981 0 0 0 0.0059,-0.01351 c 0.118008,-0.285184 0.247467,-0.514319 0.38467,-0.689234 l 0.0021,-0.002 c 7.59e-4,-9.65e-4 0.0013,-0.003 0.0021,-0.004 0.157616,-0.186567 0.322926,-0.352322 0.497776,-0.498031 0.187348,-0.156122 0.380186,-0.312562 0.578338,-0.468999 a 0.26460981,0.26460981 0 0 0 0.008,-0.004 c 0.10455,-0.08804 0.199728,-0.207363 0.300372,-0.310331 0.03472,0.104999 0.08105,0.207439 0.107772,0.314335 a 0.26460981,0.26460981 0 0 0 0.0037,0.01201 c 0.07471,0.245484 0.154909,0.491406 0.240084,0.736284 0.08271,0.236311 0.19741,0.445642 0.347857,0.621161 a 0.26460981,0.26460981 0 0 0 0.0075,0.0075 c 0.137036,0.147577 0.279047,0.301235 0.426284,0.458989 a 0.26460981,0.26460981 0 0 0 0.0075,0.006 c 0.112707,0.112707 0.213414,0.218978 0.304641,0.320341 0.07988,0.08876 0.160091,0.200401 0.236351,0.333855 a 0.26460981,0.26460981 0 0 0 0.03895,0.05306 l 0.016,0.01552 a 0.26460981,0.26460981 0 0 0 0.0016,0.004 c 0.144347,0.144347 0.334604,0.235765 0.54686,0.286806 0.180004,0.0521 0.354747,0.06307 0.523919,0.04905 0.177572,0.123165 0.366699,0.233251 0.587407,0.24376 0.234443,0.01066 0.448465,0.01802 0.642894,0.01802 a 0.26460981,0.26460981 0 0 0 0.16966,-0.07058 l -0.04855,0.03303 c 0.432706,-0.1839 0.862332,-0.405472 1.292723,-0.663707 0.430839,-0.258504 0.842596,-0.544664 1.230836,-0.857413 0.399929,-0.324267 0.762185,-0.670019 1.087851,-1.039106 0.338828,-0.382547 0.620389,-0.78343 0.841364,-1.203282 a 0.26460981,0.26460981 0 0 0 0.0021,-0.006 c 0.04497,-0.08994 0.0795,-0.191172 0.11364,-0.316337 a 0.26460981,0.26460981 0 0 0 0.0016,-0.006 c 0.02862,-0.114486 0.06235,-0.221951 0.09977,-0.325847 0.04328,-0.09314 0.08641,-0.16589 0.126979,-0.213227 0.02128,-0.02488 0.0151,-0.02363 0.06029,-0.01952 a 0.26460981,0.26460981 0 0 0 0.289169,-0.263281 c 0,-0.15329 0.02158,-0.290983 0.06456,-0.419947 0.06117,-0.162903 0.122409,-0.322203 0.183531,-0.475006 a 0.26460981,0.26460981 0 0 0 0.0021,-0.0055 c 0.0642,-0.171209 0.121871,-0.337054 0.175529,-0.49803 a 0.26460981,0.26460981 0 0 0 0.0021,-0.004 c 0.06154,-0.196926 0.08809,-0.403171 0.07629,-0.611652 v -0.0035 c -0.01,-0.22215 -0.01005,-0.439691 0,-0.650693 l -0.0021,0.01201 c 0.02314,-0.242971 0.01401,-0.465881 -0.03681,-0.670213 v -0.002 c -0.0544,-0.229475 -0.192525,-0.427274 -0.380935,-0.566103 -0.215346,-0.177978 -0.502594,-0.23475 -0.855769,-0.23475 a 0.26460981,0.26460981 0 0 0 -0.261959,0.297316 c 0.0014,0.01129 0.01278,-0.01458 -0.0037,0.002 a 0.26460981,0.26460981 0 0 0 -0.01547,0.01752 c -0.04625,0.0555 -0.104828,0.118601 -0.173928,0.1877 a 0.26460981,0.26460981 0 0 0 -0.01387,0.01351 c -0.07655,0.08931 -0.141126,0.186793 -0.193135,0.29081 a 0.26460981,0.26460981 0 0 0 -0.01014,0.02553 c -0.05166,0.137758 -0.03008,0.278097 0.01387,0.413441 v 0.01051 a 0.26460981,0.26460981 0 0 0 0.0059,0.01351 l -0.0027,-0.01402 c 0.0044,0.01312 0.0075,0.02654 0.01227,0.03954 a 0.26460981,0.26460981 0 0 0 0.06242,0.148158 l 0.01601,0.01602 a 0.26460981,0.26460981 0 0 0 0.01761,0.01752 c 0.104658,0.08722 0.146734,0.157329 0.154188,0.179691 0.01941,0.05823 0.02635,0.117815 0.01921,0.189202 -0.0096,0.08577 -0.02337,0.177244 -0.04268,0.273791 a 0.26460981,0.26460981 0 0 0 -0.0037,0.02503 c -0.0099,0.09892 0.01026,0.20025 0.02721,0.30082 -0.06406,0.102513 -0.128131,0.20682 -0.181931,0.332354 a 0.26460981,0.26460981 0 0 0 -0.0037,0.0095 c -0.04933,0.128275 -0.107617,0.262337 -0.177663,0.402429 a 0.26460981,0.26460981 0 0 0 -0.0037,0.008 c -0.0563,0.121984 -0.121902,0.232975 -0.19527,0.333856 -0.05573,0.07664 -0.11117,0.115819 -0.185665,0.14065 a 0.26460981,0.26460981 0 0 0 -0.162191,0.349372 c 0.04774,0.11935 0.02673,0.142695 0.03895,0.123131 a 0.26460981,0.26460981 0 0 0 -0.0059,0.01001 c -0.02051,0.03589 -0.05749,0.07851 -0.118976,0.124632 a 0.26460981,0.26460981 0 0 0 -0.01387,0.01001 c -0.0845,0.07243 -0.167175,0.155792 -0.248088,0.248264 -0.09569,0.109366 -0.108688,0.257387 -0.128579,0.401928 -0.238954,0.156384 -0.45754,0.336659 -0.615684,0.568606 -0.156786,0.229952 -0.314061,0.456612 -0.470567,0.675719 a 0.26460981,0.26460981 0 0 0 -0.0037,0.006 c -0.132617,0.198926 -0.287029,0.367275 -0.464698,0.50754 -0.143167,0.113027 -0.345627,0.179692 -0.64076,0.179692 h -0.441222 -0.666369 c -0.208135,-0.0099 -0.415698,-0.03426 -0.624755,-0.07408 -0.19556,-0.03725 -0.381582,-0.102042 -0.558597,-0.195208 -0.155934,-0.08207 -0.289923,-0.196415 -0.410279,-0.344367 -0.02752,-0.08623 -0.06695,-0.168283 -0.124844,-0.237753 l 0.01761,0.02152 -0.105638,-0.160171 a 0.26460981,0.26460981 0 0 0 0.09177,-0.373397 c -0.0743,-0.115581 -0.105538,-0.215831 -0.113107,-0.312333 0.0011,-0.123004 0.01229,-0.246464 0.03895,-0.370895 a 0.26460981,0.26460981 0 0 0 0.0021,-0.004 l 0.09337,-0.473004 c 0.02866,-0.143301 0.01433,-0.289013 0,-0.433461 0.0975,-0.160761 0.199803,-0.302965 0.306775,-0.409937 0.09037,-0.09036 0.166186,-0.176753 0.228881,-0.263781 l 0.0037,-0.006 c 0.0608,-0.08144 0.120604,-0.17271 0.179796,-0.269287 0.0069,-0.01131 0.01443,-0.02001 0.02134,-0.03153 l -0.01547,0.01952 a 0.26460981,0.26460981 0 0 0 0.06616,-0.128637 c 0.01983,-0.118988 0.04424,-0.237717 0.07416,-0.35738 a 0.26460981,0.26460981 0 0 0 0,-0.0025 0.26460981,0.26460981 0 0 0 0,-0.0025 0.26460981,0.26460981 0 0 0 0,-10e-4 c 0.0352,-0.152544 0.05495,-0.297487 0.05495,-0.437466 0,-0.152682 -0.0255,-0.303024 -0.07629,-0.445474 v -0.002 c -0.05761,-0.17189 -0.163061,-0.32715 -0.300907,-0.464995 l -0.03094,-0.03103 a 0.26460981,0.26460981 0 0 0 -0.433753,0.08809 c 0.01844,-0.0461 -0.03111,0.04277 -0.136582,0.138648 -0.112965,0.102694 -0.236648,0.211884 -0.371331,0.325847 a 0.26460981,0.26460981 0 0 0 -0.008,0.006 c -0.123199,0.112933 -0.247871,0.221906 -0.370798,0.324346 -0.121087,0.09107 -0.20699,0.158297 -0.269428,0.220735 a 0.26460981,0.26460981 0 0 0 -0.07629,0.187199 c 0,0.06706 0.0085,0.103028 0.01974,0.170181 a 0.26460981,0.26460981 0 0 0 0.0096,0.03904 c 0.01542,0.04626 0.01761,0.0758 0.01761,0.07408 0,0.02884 -0.0044,0.04927 -0.02934,0.08409 a 0.26460981,0.26460981 0 0 0 -0.0059,0.006 c -0.03446,0.05169 -0.08097,0.112323 -0.138715,0.179691 a 0.26460981,0.26460981 0 0 0 -0.0021,0.0035 c -0.04744,0.05693 -0.101063,0.119262 -0.157923,0.185698 -0.06209,0.06209 -0.09999,0.141734 -0.14085,0.218733 -0.191308,0.0606 -0.380495,0.131271 -0.51965,0.269787 -6.26e-4,6.23e-4 -9.01e-4,0.0013 -0.0016,0.002 -0.14964,0.139313 -0.285291,0.299038 -0.408678,0.47851 -0.109922,0.149555 -0.230292,0.297938 -0.361194,0.448978 -0.107949,0.124557 -0.244136,0.221012 -0.419882,0.29131 l 0.06082,-0.01201 a 0.26460981,0.26460981 0 0 0 -0.252356,0.252269 l 0.0064,-0.03754 c -0.04302,0.146273 -0.125884,0.319475 -0.252356,0.514047 a 0.26460981,0.26460981 0 0 0 -0.0059,0.0075 c -0.114758,0.191263 -0.253516,0.369337 -0.417748,0.533568 -0.166036,0.166036 -0.346244,0.312882 -0.540991,0.439468 a 0.26460981,0.26460981 0 0 0 -0.0043,0.002 c -0.178176,0.12191 -0.342707,0.195088 -0.491907,0.228243 h 0.0059 c -0.0625,0.0125 -0.109163,0.01831 -0.177663,0.05256 -0.0033,0.0017 -0.03932,0.01735 -0.0843,0.03554 a 0.26460981,0.26460981 0 0 0 -0.247555,-0.04104 l -0.109372,0.04655 a 0.26460981,0.26460981 0 0 0 -0.149386,0.201715 c -0.0021,2.58e-4 -0.0063,0.0021 -0.01494,0.0075 a 0.26460981,0.26460981 0 0 0 -0.01387,0.0095 c -0.02711,0.01937 -0.073,0.03767 -0.154188,0.04505 a 0.26460981,0.26460981 0 0 0 -0.0021,0 c -0.05573,0.0056 -0.130157,-0.0051 -0.220344,-0.03303 -0.05057,-0.02519 -0.102646,-0.07509 -0.156322,-0.154665 -0.01579,-0.0818 -0.03359,-0.163192 -0.06669,-0.279297 l -0.0016,-0.0035 -0.123244,-0.462993 -0.0021,-0.006 c -0.02867,-0.154081 -0.05096,-0.295872 -0.07043,-0.42195 -0.0016,-0.104198 0.0222,-0.177359 -0.0059,-0.130639 a 0.26460981,0.26460981 0 0 0 -0.04855,-0.320341 c -0.03644,-0.05586 -0.04354,-0.08268 -0.04321,-0.08409 0.02286,-0.06308 0.05412,-0.12812 0.09977,-0.19721 9.02e-4,-0.0014 0.0011,-0.0026 0.0021,-0.004 0.06631,-0.08466 0.132831,-0.16463 0.199004,-0.240256 a 0.26460981,0.26460981 0 0 0 0.0096,-0.01151 c 0.08868,-0.114022 0.158937,-0.235181 0.201671,-0.363387 a 0.26460981,0.26460981 0 0 0 -0.06669,-0.269287 c 0.06492,-0.05755 0.129999,-0.116789 0.170193,-0.193706 0.05623,-0.103117 0.06151,-0.249127 0.01761,-0.349372 -0.0037,-0.0085 -0.01196,-0.01148 -0.016,-0.01952 0.08072,-0.09227 0.165426,-0.184659 0.238484,-0.277295 l 0.0075,-0.01001 c 0.125516,-0.146688 0.246103,-0.29431 0.361728,-0.44147 a 0.26460981,0.26460981 0 0 0 0.05282,-0.154164 l -0.0064,0.04505 c 0.01952,-0.07156 0.05217,-0.126458 0.101902,-0.177689 0.09152,-0.08154 0.178459,-0.163765 0.261426,-0.246262 l 0.0043,-0.004 c 0.105976,-0.09476 0.197832,-0.198464 0.273163,-0.31033 v -0.002 c 0.10605,-0.152258 0.158456,-0.338863 0.158456,-0.529564 a 0.26460981,0.26460981 0 0 0 -0.06669,-0.164175 l 0.02934,0.04505 c -0.01762,-0.04112 -0.03413,-0.105761 -0.04268,-0.191204 -0.0106,-0.105984 -0.02084,-0.205049 -0.03148,-0.30082 -0.0031,-0.11509 -0.02271,-0.228227 -0.05655,-0.335858 -0.03208,-0.136577 -0.101461,-0.268317 -0.210741,-0.359382 -0.101495,-0.08458 -0.237954,-0.14065 -0.375066,-0.14065 -0.07704,-0.0093 -0.154564,-0.01552 -0.23635,-0.01552 a 0.26460981,0.26460981 0 0 0 -0.207007,0.09961 c -0.0087,0.01082 -0.05054,0.04914 -0.126978,0.0916 l 0.02134,-0.01001 c -0.109563,0.04869 -0.216303,0.107059 -0.322247,0.177689 -0.113375,0.07558 -0.215563,0.165981 -0.304641,0.267786 a 0.26460981,0.26460981 0 0 0 -0.0021,0.002 c -0.09356,0.109159 -0.12134,0.253935 -0.134447,0.396422 h -0.138716 c -0.07103,0 -0.136524,0.0053 -0.20914,0.02953 a 0.26460981,0.26460981 0 0 0 -0.181398,0.251768 v 0.433462 c -0.02822,0.03091 -0.0495,0.0536 -0.08803,0.0976 a 0.26460981,0.26460981 0 0 0 -0.257691,0.224739 c 0,-0.08154 0.04108,-0.134962 0.06029,-0.154164 a 0.26460981,0.26460981 0 0 0 -0.02561,0.02903 c -0.120367,0.164138 -0.230761,0.329599 -0.329717,0.494527 a 0.26460981,0.26460981 0 0 0 -0.0059,0.01151 c -0.08853,0.165998 -0.171339,0.343174 -0.248088,0.529564 a 0.26460981,0.26460981 0 0 0 -0.0021,0.0035 c -0.178777,0.458115 -0.275595,0.932247 -0.287035,1.414506 -0.01102,0.462621 0.03423,0.93083 0.132847,1.401993 a 0.26460981,0.26460981 0 0 0 0,0.002 c 0.0477,0.222588 0.111828,0.441557 0.177663,0.660203 l -0.652498,0.392418 c -0.146504,0.03035 -0.293099,0.06267 -0.439088,0.101608 a 0.26460981,0.26460981 0 0 0 -0.01014,0.004 c -0.146713,0.04514 -0.295898,0.101781 -0.450826,0.168179 -0.07047,0.0302 -0.128617,0.07198 -0.193669,0.107114 l -0.07629,-0.126635 a 0.26460981,0.26460981 0 0 0 -0.183532,-0.125133 c -0.08332,-0.01389 -0.168332,-0.01165 -0.253956,-0.002 -0.07895,0.001 -0.144257,0.05353 -0.21661,0.0896 -0.09606,-0.03931 -0.175585,-0.122304 -0.271563,-0.10311 -0.06477,0.01296 -0.107465,0.01 -0.144584,0.0035 -0.06967,-0.04685 -0.135125,-0.09051 -0.193135,-0.121129 l -0.0037,-0.002 c -0.04323,-0.02911 -0.07329,-0.05632 -0.09817,-0.07959 -0.01412,-0.02032 -0.03057,-0.04803 -0.04855,-0.08209 -0.01826,-0.06587 -0.04011,-0.153668 -0.06829,-0.275794 a 0.26460981,0.26460981 0 0 0 -0.197403,-0.19721 c -0.14127,-0.03324 -0.182416,-0.07917 -0.177663,-0.07007 -0.0217,-0.04807 -0.03983,-0.100883 -0.04695,-0.168179 -1.54e-4,-0.0015 1.46e-4,-0.0025 0,-0.004 -6.62e-4,-0.09848 -0.0049,-0.2005 -0.01387,-0.306326 -2.94e-4,-0.105279 -0.06933,-0.193703 -0.113106,-0.289308 0.03953,-0.04503 0.09951,-0.06925 0.123243,-0.124633 0.04567,-0.106567 0.06829,-0.224326 0.06829,-0.341864 0,-0.09564 -0.0058,-0.190777 -0.01761,-0.285304 -0.0029,-0.02318 -0.003,-0.04324 -0.0021,-0.06257 0.257562,-0.205277 0.433627,-0.458707 0.4727,-0.7518 0.04499,-0.264332 0.05371,-0.535603 0.01974,-0.808862 -0.03171,-0.2748 -0.06432,-0.532215 -0.09603,-0.775325 -0.02389,-0.19109 0.017,-0.377329 0.14085,-0.589628 a 0.26460981,0.26460981 0 0 0 -0.116841,-0.372897 c -0.145152,-0.06831 -0.222419,-0.14144 -0.261959,-0.209223 -0.05963,-0.102218 -0.114131,-0.233993 -0.161658,-0.39442 -4.85e-4,-0.0016 -0.0016,-0.0024 -0.0021,-0.004 l -0.09016,-0.392417 -0.0016,-0.004 c -0.03505,-0.161856 -0.08794,-0.310649 -0.16059,-0.446976 -0.07253,-0.157634 -0.189225,-0.292612 -0.333985,-0.398424 -0.15222,-0.119386 -0.3387,-0.1868 -0.55433,-0.222737 z m -0.253956,1.91554 v 5e-4 l 0.152587,0.03303 c -0.01833,0.117214 -0.02457,0.236495 -0.07469,0.347871 -0.09314,0.206969 -0.190905,0.415464 -0.294504,0.622663 a 0.26460981,0.26460981 0 0 0 -0.0021,0.004 c -0.10093,0.213074 -0.18484,0.437279 -0.251822,0.671716 a 0.26460981,0.26460981 0 0 0 -0.0043,0.01201 c -0.05492,0.230656 -0.01562,0.47174 0.04695,0.710757 -0.02918,0.08697 -0.05503,0.1748 -0.06616,0.263781 a 0.26460981,0.26460981 0 0 0 -0.0021,0.03303 c 0,0.08549 0.0058,0.175576 0.01761,0.269788 0.01101,0.149097 0.02759,0.293795 0.04908,0.433461 a 0.26460981,0.26460981 0 0 0 0,0.002 c 0.01653,0.09915 0.01523,0.189553 0,0.273291 -0.01215,0.0668 -0.03996,0.122618 -0.09603,0.185698 a 0.26460981,0.26460981 0 0 0 0,0.002 c -0.01778,0.02032 -0.104673,0.07996 -0.267295,0.125134 a 0.26460981,0.26460981 0 0 0 -0.142984,0.337859 c -0.108874,0.09735 -0.218636,0.190324 -0.325981,0.304825 -0.151814,0.161935 -0.308858,0.311488 -0.470567,0.452982 -0.147897,0.12941 -0.30713,0.229741 -0.480703,0.302823 -0.146593,0.06172 -0.305324,0.07615 -0.503645,0.03303 a 0.26460981,0.26460981 0 0 0 -0.154721,0.01351 c -0.07805,0.03122 -0.149792,0.07465 -0.21661,0.127136 l -0.126978,0.0956 c -0.100343,0.07274 -0.211759,0.141814 -0.331851,0.20722 -0.0049,0.0023 -0.01129,-0.0078 -0.01547,-0.006 0.0022,-0.03241 0.02847,-0.05952 0.02508,-0.0916 -0.0027,-0.108614 -0.02107,-0.217756 -0.06029,-0.322343 -0.0357,-0.09521 -0.08223,-0.186908 -0.137115,-0.277295 l -0.0075,-0.01402 c -0.04049,-0.07994 -0.08181,-0.153965 -0.125378,-0.220735 -0.03235,-0.05662 -0.05184,-0.104355 -0.06616,-0.144154 0.02403,-0.01373 0.107384,-0.04415 0.23635,-0.06257 a 0.26460981,0.26460981 0 0 0 0.215009,-0.17769 c 0.04251,-0.127524 0.08295,-0.264297 0.124844,-0.410437 l 0.0037,-0.0095 c 0.04902,-0.146824 0.09769,-0.288371 0.146718,-0.425953 l 0.0021,-0.002 c 0.0569,-0.132372 0.121101,-0.256141 0.195269,-0.367392 0.06747,-0.101209 0.145461,-0.180822 0.234216,-0.245761 7.22e-4,-5.28e-4 0.0013,-0.0014 0.0021,-0.002 0.0249,-0.01449 0.05003,-0.02776 0.06989,-0.04104 0.0081,-0.0054 0.02261,-0.01886 0.03361,-0.02753 0.04705,-0.01764 0.101442,-0.02001 0.14245,-0.04655 0.228606,-0.12898 0.407683,-0.318036 0.503645,-0.551087 a 0.26460981,0.26460981 0 0 0 0.0021,-0.004 c 0.07509,-0.193081 0.14671,-0.386425 0.211275,-0.580118 0.05759,-0.172784 0.126877,-0.328727 0.210741,-0.468499 0.04867,-0.08111 0.131769,-0.142189 0.324381,-0.175687 a 0.26460981,0.26460981 0 0 0 0.21661,-0.222737 c 0.01444,-0.101084 0.04711,-0.171441 0.107238,-0.238254 a 0.26460981,0.26460981 0 0 0 0.01014,-0.01001 c 0.08045,-0.09833 0.17455,-0.188525 0.284901,-0.271289 0.129779,-0.08961 0.259605,-0.17418 0.388937,-0.25377 0.102464,-0.06305 0.183356,-0.129906 0.267295,-0.195708 z m 27.244299,0 v 5e-4 l 0.152054,0.03303 c -0.01833,0.117215 -0.02404,0.236495 -0.07416,0.347871 -0.09314,0.206969 -0.191438,0.415464 -0.295037,0.622663 a 0.26460981,0.26460981 0 0 0 -0.0016,0.004 c -0.101094,0.213421 -0.185482,0.437657 -0.252356,0.671716 a 0.26460981,0.26460981 0 0 0 -0.0037,0.01201 c -0.05453,0.229023 -0.01668,0.468862 0.04481,0.706753 -0.02983,0.08812 -0.05275,0.177583 -0.06402,0.267785 a 0.26460981,0.26460981 0 0 0 -0.0021,0.03303 c 0,0.08677 0.0059,0.17667 0.01761,0.269788 0.01094,0.148516 0.02537,0.293152 0.04695,0.433461 a 0.26460981,0.26460981 0 0 0 0.0016,0.002 c 0.01653,0.09915 0.01523,0.189554 0,0.273291 -0.01229,0.06758 -0.0398,0.123034 -0.0955,0.185698 a 0.26460981,0.26460981 0 0 0 0,0.002 c -0.01736,0.01984 -0.105084,0.07992 -0.267828,0.125134 a 0.26460981,0.26460981 0 0 0 -0.144585,0.339862 c -0.10819,0.09685 -0.217166,0.189028 -0.323847,0.302822 -0.151815,0.161935 -0.308858,0.311488 -0.470567,0.452982 -0.147899,0.129411 -0.307131,0.229741 -0.480703,0.302823 -0.146749,0.06179 -0.305777,0.07617 -0.504178,0.03303 a 0.26460981,0.26460981 0 0 0 -0.154188,0.01351 c -0.0775,0.031 -0.149156,0.07419 -0.21661,0.127136 l -0.126978,0.0956 c -0.100955,0.07328 -0.211541,0.141675 -0.331851,0.20722 -0.0049,0.0023 -0.01183,-0.0078 -0.01601,-0.006 0.0023,-0.03247 0.02901,-0.05933 0.02561,-0.0916 -0.0028,-0.109493 -0.02192,-0.21861 -0.06082,-0.322343 -0.0357,-0.09521 -0.08169,-0.186908 -0.136582,-0.277295 l -0.0075,-0.01402 c -0.04049,-0.07994 -0.08181,-0.153962 -0.125378,-0.220735 -0.03235,-0.05662 -0.05184,-0.104356 -0.06616,-0.144154 0.02403,-0.01373 0.107384,-0.04415 0.23635,-0.06257 a 0.26460981,0.26460981 0 0 0 0.212875,-0.17769 c 0.04251,-0.12753 0.08509,-0.264295 0.126978,-0.410437 l 0.0037,-0.0095 c 0.04902,-0.146824 0.0977,-0.288371 0.146719,-0.425953 l 0.0016,-0.002 c 0.0569,-0.132371 0.121101,-0.256141 0.195269,-0.367392 0.06802,-0.102033 0.146681,-0.18255 0.23635,-0.247764 0.02471,-0.01438 0.04908,-0.02783 0.06883,-0.04104 0.0076,-0.0051 0.02116,-0.01807 0.03094,-0.02553 0.04865,-0.01775 0.104287,-0.02109 0.146719,-0.04855 0.228604,-0.12898 0.407682,-0.318036 0.503644,-0.551087 a 0.26460981,0.26460981 0 0 0 0.0021,-0.004 c 0.07524,-0.193483 0.146318,-0.386348 0.210742,-0.579618 0.05745,-0.172358 0.127184,-0.32885 0.211274,-0.468999 0.0489,-0.08149 0.131298,-0.1422 0.323848,-0.175687 a 0.26460981,0.26460981 0 0 0 0.217143,-0.222737 c 0.01444,-0.101082 0.04711,-0.17144 0.107238,-0.238254 a 0.26460981,0.26460981 0 0 0 0.008,-0.01001 c 0.07847,-0.09591 0.170027,-0.184203 0.276898,-0.265282 l 0.0064,-0.004 c 7.73e-4,-5.81e-4 8.01e-4,-0.0014 0.0016,-0.002 0.130239,-0.08996 0.26075,-0.1739 0.390538,-0.25377 0.102465,-0.06305 0.183889,-0.129906 0.267828,-0.195708 z m -42.873291,0.04505 a 0.26460981,0.26460981 0 0 0 0.01974,0 c 0.03922,-0.0028 0.148589,0.04596 0.232082,0.07258 -4.78e-4,9.6e-4 4.82e-4,9.91e-4 0,0.002 a 0.26460981,0.26460981 0 0 0 -0.0037,0.0095 c -0.05448,0.119864 -0.09438,0.213138 -0.121109,0.293313 -0.109521,0.28703 -0.243354,0.563706 -0.402276,0.831886 -0.135466,0.228597 -0.32017,0.369917 -0.601279,0.448978 a 0.26460981,0.26460981 0 0 0 -0.164325,0.137146 c -0.0728,0.145601 -0.176929,0.25698 -0.328116,0.349372 -0.182503,0.11153 -0.37589,0.218317 -0.579938,0.320341 -0.204844,0.09722 -0.409517,0.204218 -0.61355,0.322343 a 0.26460981,0.26460981 0 0 0 -0.0037,0.004 c -0.09791,0.05983 -0.159375,0.152331 -0.242219,0.226241 0.02148,-0.0473 0.0544,-0.09014 0.07202,-0.138647 l 0.0043,-0.0095 c 0.05818,-0.14499 0.116192,-0.28075 0.173928,-0.406433 0.06406,-0.118972 0.137934,-0.226461 0.218744,-0.326348 0.07108,-0.07718 0.169795,-0.144226 0.314244,-0.195208 a 0.26460981,0.26460981 0 0 0 0.175529,-0.232247 c 0.0098,-0.157546 0.02388,-0.309664 0.04322,-0.456987 l 0.0021,-0.008 c 2.48e-4,-0.0019 -2.49e-4,-0.0041 0,-0.006 l 0.05282,-0.281299 c 0.136744,0.01047 0.279008,0.05057 0.403876,0.006 0.176112,-0.0629 0.334281,-0.153995 0.466832,-0.273291 a 0.26460981,0.26460981 0 0 0 0.0021,-0.002 c 0.124684,-0.113348 0.238676,-0.233113 0.341987,-0.359383 0.09016,-0.107766 0.181607,-0.188373 0.269429,-0.24426 a 0.26460981,0.26460981 0 0 0 0.0037,-0.002 c 0.08657,-0.05771 0.16664,-0.08209 0.26356,-0.08209 z M 30.759675,61.93746 c 0.01705,0.03091 0.06661,0.0659 0.07256,0.0956 a 0.26460981,0.26460981 0 0 0 0.0037,0.01602 c 0.03146,0.117967 0.03526,0.24482 0.0096,0.390416 l 0.0021,-0.002 c -0.02972,0.158536 -0.07075,0.322837 -0.121109,0.494027 -0.04412,0.150006 -0.0569,0.29405 -0.06829,0.437465 -0.0396,0.01025 -0.08389,0.0162 -0.132847,0.01752 -0.04948,-0.0078 -0.09965,-0.01711 -0.150453,-0.03103 -0.03494,-0.01598 -0.05637,-0.02992 -0.07416,-0.04104 -0.02471,-0.09653 -0.01068,-0.20394 -0.08003,-0.273291 -0.06354,-0.07284 -0.131602,-0.141143 -0.204872,-0.205218 l -0.01174,-0.01351 c -7.03e-4,-6.05e-4 -0.0013,-0.0014 -0.0021,-0.002 -0.04459,-0.04568 -0.08019,-0.08997 -0.11364,-0.133142 0.09899,-0.01776 0.208444,0.0054 0.289169,-0.05656 0.125912,-0.08968 0.237767,-0.197561 0.326515,-0.324345 a 0.26460981,0.26460981 0 0 0 0.0059,-0.0095 c 0.07168,-0.112641 0.143251,-0.220593 0.214476,-0.322344 a 0.26460981,0.26460981 0 0 0 0.0059,-0.01001 c 0.008,-0.01261 0.02092,-0.01564 0.02934,-0.02703 z m 39.769795,0.224739 c 0.05618,-0.01397 0.127354,0.01606 0.138715,0.02553 a 0.26460981,0.26460981 0 0 0 -0.152587,-0.01952 c 0.0085,-0.004 -1.72e-4,-0.0025 0.01387,-0.006 z m 45.07033,0.507541 c 0.0157,-0.0017 0.0179,1.1e-4 0.0176,0 0.0602,0.02258 0.13295,0.06127 0.21448,0.115623 a 0.26460981,0.26460981 0 0 0 0.0101,0.0055 c 0.0635,0.03808 0.1282,0.07076 0.19527,0.0976 a 0.26460981,0.26460981 0 0 0 0.002,0 c -0.003,0.22478 -0.009,0.454202 -0.0256,0.73278 a 0.26460981,0.26460981 0 0 0 0,0.0075 c -0.0101,0.34191 -0.0505,0.684523 -0.12111,1.027594 -0.0691,0.335709 -0.17624,0.643209 -0.32225,0.925486 a 0.26460981,0.26460981 0 0 0 -0.004,0.008 c -0.10917,0.226124 -0.26462,0.370371 -0.43749,0.496029 a 0.26460981,0.26460981 0 0 0 -0.31851,0.07408 c -0.11101,0.170781 -0.246,0.283355 -0.41989,0.357881 -0.14338,0.06145 -0.28099,0.116817 -0.41988,0.173685 -0.005,-0.0057 -0.004,-0.014 -0.0101,-0.01952 -0.0883,-0.08823 -0.21088,-0.131054 -0.32439,-0.14065 -0.14661,-0.02239 -0.29408,-0.02373 -0.43535,0.002 l 0.004,-0.002 c -0.0424,0.0071 -0.0839,0.0086 -0.12698,0.0095 -0.0291,-0.05345 -0.0506,-0.111132 -0.1019,-0.148158 -0.11374,-0.08553 -0.26116,-0.115777 -0.39054,-0.09961 -0.0754,0.0094 -0.15764,0.01954 -0.24222,0.02903 -0.0365,-4.71e-4 -0.0758,-0.01024 -0.11524,-0.02152 0.0731,-0.07633 0.16123,-0.141549 0.1878,-0.247764 0.0267,-0.106714 0.0405,-0.217727 0.0405,-0.331853 v -0.267785 a 0.26460981,0.26460981 0 0 0 0.18193,0.004 c 0.50967,-0.467194 0.99416,-0.944628 1.45118,-1.433526 0.45281,-0.483682 0.93969,-0.927079 1.46452,-1.328415 l -0.13659,0.04705 a 0.26460981,0.26460981 0 0 0 0.11044,-0.06106 l -0.009,0.01401 c 0.0383,-0.01742 0.0665,-0.02405 0.0806,-0.02553 z m -86.793349,1.36145 c 0.131275,0.02614 0.2581,0.05487 0.345723,0.119126 a 0.26460981,0.26460981 0 0 0 0.016,0.01201 c 0.157455,0.09841 0.304315,0.204494 0.441223,0.321843 a 0.26460981,0.26460981 0 0 0 0.008,0.006 c 0.161064,0.128851 0.316759,0.24704 0.468432,0.355379 a 0.26460981,0.26460981 0 0 0 0.01761,0.01201 c 0.111324,0.06679 0.250173,0.07015 0.378801,0.09961 -0.01829,0.169025 -0.0338,0.336461 -0.12271,0.482514 a 0.26460981,0.26460981 0 0 0 0,0.0035 c -0.129767,0.219605 -0.280231,0.435293 -0.45136,0.646689 a 0.26460981,0.26460981 0 0 0 0.01174,0.224739 c -0.126489,0.09063 -0.282828,0.144495 -0.347857,0.29081 -0.08446,0.179571 -0.163944,0.354403 -0.23795,0.523558 -0.05848,0.133674 -0.125607,0.214542 -0.193669,0.265282 -0.0037,-3.5e-5 -0.01134,1.41e-4 -0.03308,-0.0035 -0.04839,-0.0081 -0.138956,-0.0392 -0.253957,-0.10361 a 0.26460981,0.26460981 0 0 0 -0.226213,-0.01552 c -0.08881,0.03552 -0.183317,0.0642 -0.2817,0.08209 a 0.26460981,0.26460981 0 0 0 -0.0037,0 c -0.105762,0.02115 -0.217072,0.04718 -0.331851,0.07808 -0.127085,0.02542 -0.250606,0.07121 -0.371331,0.130639 -0.02743,0.01132 -0.04779,0.03551 -0.07416,0.04905 -0.03325,-0.03098 -0.05446,-0.07438 -0.0939,-0.0941 a 0.26460981,0.26460981 0 0 0 -0.05228,0.004 c 0.0118,-0.06518 0.05092,-0.117655 0.05655,-0.185197 l 0.06242,-0.748297 c 0.02909,-0.232758 0.08155,-0.44175 0.156322,-0.628669 a 0.26460981,0.26460981 0 0 0 0,-0.0015 0.26460981,0.26460981 0 0 0 0,-5e-4 0.26460981,0.26460981 0 0 0 0,-5.01e-4 0.26460981,0.26460981 0 0 0 0,-5e-4 0.26460981,0.26460981 0 0 0 0,-5.01e-4 0.26460981,0.26460981 0 0 0 0,-5e-4 c 0.0595,-0.156188 0.163724,-0.266727 0.357459,-0.359383 a 0.26460981,0.26460981 0 0 0 0.126979,-0.345868 c -0.06759,-0.152087 -0.07616,-0.258824 -0.06082,-0.335858 0.03334,-0.111911 0.08244,-0.213821 0.156322,-0.312333 0.08206,-0.109411 0.178141,-0.210298 0.289169,-0.302822 a 0.26460981,0.26460981 0 0 0 0.0096,-0.01001 c 0.08869,-0.0813 0.158755,-0.170425 0.234216,-0.257774 z m 32.782257,0.361885 a 0.2646485,0.2646485 0 0 0 0.0053,0.01251 c -0.0033,-0.0028 -0.0076,-0.0067 -0.0096,-0.0085 0.0014,-0.0013 0.0028,-0.0027 0.0043,-0.004 z m 27.2443,0 a 0.2646485,0.2646485 0 0 0 0.0053,0.01251 c -0.0034,-0.0029 -0.0081,-0.0067 -0.01014,-0.0085 0.0015,-0.0014 0.0033,-0.0026 0.0048,-0.004 z m -27.203752,0.04255 a 0.2646485,0.2646485 0 0 0 0.160057,0.06657 c 3.29e-4,0 -0.04132,-0.004 -0.04108,-0.004 2.47e-4,4.1e-5 -0.07432,-0.02361 -0.07416,-0.02353 7.3e-5,3.6e-5 -0.02269,-0.01989 -0.04482,-0.03904 z m 27.243766,0 a 0.2646485,0.2646485 0 0 0 0.160056,0.06657 c 3.29e-4,0 -0.04293,-0.004 -0.04268,-0.004 2.47e-4,4.1e-5 -0.07272,-0.02361 -0.07256,-0.02353 7.3e-5,3.6e-5 -0.02261,-0.01982 -0.04482,-0.03904 z m -53.883051,1.51161 a 0.26460981,0.26460981 0 0 0 -0.08376,0.01001 l 0.008,-0.006 c 0.0038,-0.0023 0.05827,-0.011 0.07576,-0.004 z m 75.959119,1.681791 a 0.26460981,0.26460981 0 0 0 0.002,0.006 l -0.002,0.002 z m -83.290778,0.06257 0.02508,0.03904 c -0.0049,-0.0098 -0.01778,-0.014 -0.02348,-0.02352 -0.0029,-0.0044 0.0016,-0.01133 -0.0016,-0.01552 z" /></g><text
       xml:space="preserve"
       style="font-style:normal;font-variant:normal;font-weight:normal;font-stretch:normal;font-size:1.9793px;font-family:'Titillium Web';-inkscape-font-specification:'Titillium Web';text-align:center;text-anchor:middle;fill:#4b0f00;fill-opacity:0.996078;stroke:#ffffff;stroke-width:0.0619125;stroke-linejoin:round;stroke-dasharray:none;paint-order:markers stroke fill;stroke-opacity:1"
       x="67.86293"
       y="116.77952"
       id="text985"><tspan
         sodipodi:role="line"
         id="tspan983"
         style="font-style:normal;font-variant:normal;font-weight:normal;font-stretch:normal;font-family:'Titillium Web';-inkscape-font-specification:'Titillium Web';fill:#4b0f00;fill-opacity:0.996078;stroke:#ffffff;stroke-width:0.0619125;stroke-opacity:1;stroke-dasharray:none"
         x="67.86293"
         y="116.77952">Case Wireless/ethernet only.</tspan><tspan
         sodipodi:role="line"
         style="font-style:normal;font-variant:normal;font-weight:normal;font-stretch:normal;font-family:'Titillium Web';-inkscape-font-specification:'Titillium Web';fill:#4b0f00;fill-opacity:0.996078;stroke:#ffffff;stroke-width:0.0619125;stroke-opacity:1;stroke-dasharray:none"
         x="67.86293"
         y="119.25365"
         id="tspan1089">Not affiliated with Case Western Reserve University</tspan></text></g></svg>
