<?xml version="1.0" encoding="UTF-8" standalone="no"?>
<!-- Created with Inkscape (http://www.inkscape.org/) -->

<svg
   width="512"
   height="512"
   viewBox="0 0 135.46666 135.46667"
   version="1.1"
   id="svg5"
   xml:space="preserve"
   inkscape:version="1.2.1 (9c6d41e410, 2022-07-14)"
   sodipodi:docname="heartflyer01.svg"
   xmlns:inkscape="http://www.inkscape.org/namespaces/inkscape"
   xmlns:sodipodi="http://sodipodi.sourceforge.net/DTD/sodipodi-0.dtd"
   xmlns:xlink="http://www.w3.org/1999/xlink"
   xmlns="http://www.w3.org/2000/svg"
   xmlns:svg="http://www.w3.org/2000/svg"><sodipodi:namedview
     id="namedview7"
     pagecolor="#ffffff"
     bordercolor="#000000"
     borderopacity="0.25"
     inkscape:showpageshadow="2"
     inkscape:pageopacity="0.0"
     inkscape:pagecheckerboard="0"
     inkscape:deskcolor="#d1d1d1"
     inkscape:document-units="px"
     showgrid="true"
     inkscape:zoom="0.99276681"
     inkscape:cx="48.349723"
     inkscape:cy="262.90162"
     inkscape:window-width="1920"
     inkscape:window-height="986"
     inkscape:window-x="-11"
     inkscape:window-y="-11"
     inkscape:window-maximized="1"
     inkscape:current-layer="text1097"><inkscape:grid
       type="xygrid"
       id="grid132"
       empspacing="8"
       spacingx="2.1166666"
       spacingy="2.1166666" /></sodipodi:namedview><defs
     id="defs2"><linearGradient
       inkscape:collect="always"
       id="linearGradient872"><stop
         style="stop-color:#ff6060;stop-opacity:1;"
         offset="0"
         id="stop868" /><stop
         style="stop-color:#ff00ca;stop-opacity:0.99539167;"
         offset="1"
         id="stop870" /></linearGradient><linearGradient
       inkscape:collect="always"
       xlink:href="#linearGradient872"
       id="linearGradient874"
       x1="2.6700509"
       y1="3.5861678"
       x2="22.09137"
       y2="20.337437"
       gradientUnits="userSpaceOnUse"
       gradientTransform="matrix(3.8099999,0,0,3.8099999,22.013321,22.373173)" /></defs><g
     inkscape:label="Layer 1"
     inkscape:groupmode="layer"
     id="layer1"><path
       d="M 67.733327,103.71666 62.208825,98.687473 C 42.587327,80.894781 29.633332,69.121865 29.633332,54.758172 c 0,-11.772893 9.220205,-20.954995 20.954995,-20.954995 6.6294,0 12.992098,3.086092 17.145,7.924796 4.152902,-4.838704 10.515604,-7.924796 17.144998,-7.924796 11.734803,0 20.955005,9.182102 20.955005,20.954995 0,14.363693 -12.954,26.136609 -32.575501,43.929301 z"
       id="path2"
       style="fill:url(#linearGradient874);fill-opacity:1;stroke-width:3.80999" /><text
       xml:space="preserve"
       style="font-style:normal;font-variant:normal;font-weight:bold;font-stretch:normal;font-size:8.24473px;font-family:'Titillium Web';-inkscape-font-specification:'Titillium Web Bold';text-align:center;letter-spacing:-0.393961px;text-anchor:middle;fill:#000000;fill-opacity:1;stroke:#ffffff;stroke-width:0.809509;stroke-linejoin:round;stroke-dasharray:none;stroke-opacity:1;paint-order:markers stroke fill"
       x="66.278839"
       y="112.92863"
       id="text390"
       transform="scale(1.0081626,0.99190353)"><tspan
         sodipodi:role="line"
         id="tspan388"
         style="font-style:normal;font-variant:normal;font-weight:bold;font-stretch:normal;font-family:'Titillium Web';-inkscape-font-specification:'Titillium Web Bold';fill:#000000;fill-opacity:1;stroke:#ffffff;stroke-width:0.809509;stroke-dasharray:none;stroke-opacity:1"
         x="66.081856"
         y="112.92863">mingle.case.edu</tspan></text><g
       id="text1097"
       transform="scale(0.96859052,1.032428)"><path
         id="path3141"
         style="color:#000000;-inkscape-font-specification:'Homemade Apple Bold';display:inline;fill:#000000;stroke-linejoin:round;-inkscape-stroke:none;paint-order:markers stroke fill;stroke:#ffffff;stroke-opacity:1"
         d="M 108.90624 51.517362 C 108.85454 51.517362 108.80368 51.520873 108.75205 51.527373 A 0.26460981 0.26460981 0 0 0 108.65228 51.560408 C 108.25077 51.789851 107.9394 52.08795 107.73462 52.449355 C 107.54592 52.771923 107.39006 53.126067 107.26939 53.509984 A 0.26460981 0.26460981 0 0 0 107.26779 53.513488 C 107.16086 53.87703 107.06558 54.250546 106.98022 54.634682 C 106.90492 54.963302 106.78819 55.271054 106.6425 55.56267 C 106.44182 55.739123 106.24298 55.879006 106.04496 55.965099 A 0.26460981 0.26460981 0 0 0 106.04069 55.967101 C 105.83314 56.061441 105.61874 56.122012 105.39246 56.150296 A 0.26460981 0.26460981 0 0 0 105.39033 56.150296 C 105.16834 56.179256 104.93331 56.184011 104.68715 56.164311 C 104.43664 56.133861 104.16983 56.087913 103.88633 56.027165 A 0.26460981 0.26460981 0 0 0 103.69533 56.058698 C 103.62113 56.103228 103.54953 56.125947 103.47445 56.132777 L 103.50006 56.132777 C 103.37662 56.132777 103.26101 56.145115 103.1506 56.167815 C 103.01085 56.184295 102.87602 56.248451 102.7734 56.346004 C 102.61734 56.481895 102.58659 56.658378 102.5744 56.853545 A 0.26460981 0.26460981 0 0 0 102.57227 56.869061 L 102.57227 57.02723 A 0.26460981 0.26460981 0 0 0 102.576 57.06477 C 102.6 57.232673 102.76436 57.387783 102.91585 57.425654 C 103.01555 57.453054 103.12147 57.464696 103.23223 57.464696 C 103.3362 57.464696 103.44016 57.460809 103.54488 57.449179 A 0.26460981 0.26460981 0 0 0 103.57209 57.443173 C 103.65659 57.424403 103.71905 57.418146 103.73641 57.418146 C 103.75831 57.418146 103.76232 57.419548 103.77322 57.420148 L 103.86712 57.45919 A 0.26460981 0.26460981 0 0 0 103.87886 57.465196 C 104.07016 57.536936 104.26561 57.579623 104.46093 57.591831 A 0.26460981 0.26460981 0 0 0 104.46307 57.591831 C 104.64645 57.602621 104.82415 57.607348 104.99819 57.607348 C 105.16662 57.607348 105.32957 57.617279 105.48636 57.636879 A 0.26460981 0.26460981 0 0 0 105.50183 57.638881 C 105.55623 57.642281 105.61284 57.665821 105.66776 57.675921 C 105.40172 58.353535 105.1402 59.03676 104.89042 59.730609 A 0.26460981 0.26460981 0 0 0 104.89042 59.732611 C 104.61461 60.517593 104.37002 61.313047 104.15789 62.119152 C 104.07309 62.447891 103.99412 62.777173 103.91994 63.105703 C 103.84684 63.419073 103.76942 63.743472 103.68573 64.078239 C 103.66593 64.157549 103.64524 64.224957 103.62704 64.279453 A 0.26460981 0.26460981 0 0 0 103.6169 64.320497 C 103.601 64.415817 103.60357 64.51273 103.61477 64.619315 C 103.62617 64.778911 103.64736 64.938708 103.68146 65.097824 A 0.26460981 0.26460981 0 0 0 103.68733 65.119347 C 103.72393 65.238295 103.74662 65.356272 103.75562 65.472724 A 0.26460981 0.26460981 0 0 0 103.75989 65.496249 C 103.77079 65.561909 103.75788 65.625056 103.74228 65.691457 C 103.70028 65.726727 103.66254 65.758607 103.60943 65.805078 C 103.54423 65.860848 103.42007 65.959222 103.24397 66.093885 A 0.26460981 0.26460981 0 0 0 103.14633 66.250052 C 103.11213 66.412716 103.06011 66.477527 103.03323 66.496314 C 102.97323 66.535654 102.90149 66.562921 102.80862 66.578401 A 0.26460981 0.26460981 0 0 0 102.80435 66.580403 L 102.4821 66.638966 C 102.29276 66.656176 102.11819 66.764263 101.9998 66.912257 A 0.26460981 0.26460981 0 0 0 101.94484 67.031384 C 101.93314 67.097404 101.91753 67.134528 101.90963 67.148508 C 101.85277 67.168588 101.7872 67.183481 101.70689 67.191554 C 101.58352 67.193954 101.46147 67.212102 101.34143 67.248114 C 101.19683 67.291494 101.15462 67.445474 101.08587 67.57246 C 100.98477 67.60463 100.90517 67.612785 100.86873 67.605495 C 100.76514 67.584775 100.66835 67.563989 100.57583 67.543429 L 100.60144 67.550937 C 100.47607 67.509147 100.34189 67.498883 100.20876 67.509893 C 100.06866 67.511993 99.940257 67.579808 99.810222 67.650543 C 99.637004 67.642443 99.454875 67.645529 99.259627 67.666059 A 0.26460981 0.26460981 0 0 0 99.257493 67.666059 C 99.128232 67.680419 99.053038 67.655652 98.968324 67.583972 A 0.26460981 0.26460981 0 0 0 98.70263 67.539425 C 98.64418 67.562155 98.616364 67.562311 98.595392 67.564451 C 98.568452 67.519111 98.541453 67.468749 98.521233 67.383258 C 98.503263 67.254294 98.489772 67.120937 98.480152 66.982832 C 98.480152 66.890132 98.421039 66.817507 98.397989 66.732565 C 98.449929 66.684405 98.524002 66.663668 98.552177 66.597922 C 98.588064 66.514191 98.613275 66.425634 98.628471 66.336143 C 98.64081 66.286804 98.6576 66.252422 98.672753 66.218017 C 98.676071 66.219249 98.674476 66.221021 98.687158 66.221021 A 0.26460981 0.26460981 0 0 0 98.925643 65.842117 C 98.818919 65.619773 98.825191 65.49996 98.861086 65.428176 C 98.934356 65.281631 99.032286 65.137104 99.156124 64.994214 C 99.300745 64.827343 99.428358 64.654285 99.540793 64.474661 C 99.705177 64.220613 99.72386 63.900238 99.638428 63.570698 A 0.26460981 0.26460981 0 0 0 99.636294 63.560688 C 99.597564 63.431574 99.537129 63.314756 99.429287 63.222828 C 99.343417 63.141418 99.231402 63.086071 99.115043 63.066661 C 99.012253 63.040851 98.903648 63.029746 98.79653 63.043136 L 98.829609 63.041134 L 98.577786 63.041134 A 0.26460981 0.26460981 0 0 0 98.39052 63.119217 C 98.31042 63.199317 98.220611 63.28547 98.118957 63.376992 C 98.01234 63.471762 97.910859 63.577319 97.818051 63.693329 A 0.26460981 0.26460981 0 0 0 97.808448 63.707344 C 97.725918 63.82524 97.654525 63.949373 97.595039 64.080241 A 0.26460981 0.26460981 0 0 0 97.587569 64.099762 C 97.54354 64.220842 97.528389 64.352036 97.520879 64.484672 C 97.438969 64.58703 97.357552 64.691891 97.316007 64.816525 A 0.26460981 0.26460981 0 0 0 97.312272 64.830039 C 97.280302 64.947278 97.248298 65.071168 97.216238 65.199433 A 0.26460981 0.26460981 0 0 0 97.212504 65.218953 C 97.193754 65.33145 97.169839 65.443736 97.142079 65.556813 C 97.113699 65.632103 97.070247 65.701055 97.001762 65.76954 A 0.26460981 0.26460981 0 0 0 96.935072 65.883161 C 96.887892 66.048298 96.853885 66.230905 96.831569 66.431745 C 96.815589 66.575593 96.817171 66.719737 96.818231 66.863204 L 96.29858 67.176038 C 96.152077 67.206388 96.004947 67.238713 95.858958 67.277646 A 0.26460981 0.26460981 0 0 0 95.849355 67.28115 C 95.702829 67.32624 95.551003 67.38284 95.395861 67.449329 C 95.325701 67.479399 95.26965 67.521991 95.20486 67.556943 L 95.130701 67.43181 A 0.26460981 0.26460981 0 0 0 94.945035 67.304675 C 94.861505 67.290755 94.776851 67.293002 94.691079 67.302672 C 94.612119 67.303772 94.546189 67.356648 94.473935 67.392768 C 94.378055 67.353818 94.298656 67.270009 94.202906 67.289158 C 94.138136 67.302118 94.095439 67.299642 94.058322 67.293162 C 93.988652 67.246312 93.922664 67.202657 93.864653 67.172033 L 93.860919 67.170031 C 93.817689 67.140921 93.788164 67.113216 93.763284 67.089946 C 93.749154 67.069616 93.73218 67.041918 93.7142 67.007859 C 93.69594 66.941989 93.672489 66.854711 93.644309 66.732565 A 0.26460981 0.26460981 0 0 0 93.44904 66.535355 C 93.307879 66.502145 93.26643 66.45626 93.270843 66.46478 C 93.249143 66.41671 93.231557 66.364398 93.224427 66.297102 C 93.224273 66.295602 93.224574 66.294597 93.224427 66.293097 C 93.223696 66.193957 93.219525 66.091486 93.210555 65.986271 C 93.210264 65.881743 93.14065 65.79448 93.097449 65.699465 C 93.137399 65.654165 93.196242 65.628153 93.220159 65.57233 C 93.265829 65.465762 93.288449 65.348004 93.288449 65.230466 C 93.28845 65.135936 93.282823 65.040779 93.270843 64.945162 C 93.267959 64.922018 93.26847 64.902137 93.269243 64.883096 C 93.527615 64.677472 93.705141 64.42322 93.743544 64.128793 C 93.788384 63.864076 93.793659 63.593345 93.759549 63.320432 L 93.76115 63.322434 C 93.72948 63.047971 93.697409 62.790598 93.66565 62.547108 C 93.64172 62.355654 93.680664 62.169038 93.804365 61.95698 A 0.26460981 0.26460981 0 0 0 93.689658 61.584083 C 93.544505 61.515777 93.46724 61.442643 93.427699 61.37486 C 93.368349 61.273119 93.313158 61.141318 93.265508 60.98044 C 93.265021 60.97884 93.263874 60.978035 93.263374 60.976435 L 93.173742 60.584018 L 93.171608 60.580013 C 93.136228 60.416673 93.08149 60.266351 93.007817 60.129033 C 92.935137 59.973537 92.820795 59.839305 92.677567 59.734613 C 92.525344 59.615219 92.336742 59.547815 92.121103 59.511876 A 0.26460981 0.26460981 0 0 0 91.974385 59.529394 C 91.685377 59.651666 91.418514 59.801739 91.171968 59.980375 C 91.170768 59.981177 91.1689 59.981577 91.1677 59.982377 C 91.166988 59.982894 91.166899 59.983779 91.166099 59.984379 C 90.930875 60.144984 90.701005 60.315987 90.476255 60.497926 A 0.26460981 0.26460981 0 0 0 90.470386 60.50193 C 90.259726 60.680993 90.045376 60.865518 89.824291 61.055019 A 0.26460981 0.26460981 0 0 0 89.817889 61.058523 C 89.616779 61.239523 89.412562 61.411176 89.202205 61.57207 C 89.068887 61.637233 88.952499 61.739772 88.880491 61.869386 A 0.26460981 0.26460981 0 0 0 88.874622 61.878897 C 88.832702 61.962746 88.801858 62.054739 88.776988 62.15419 A 0.26460981 0.26460981 0 0 0 88.771119 62.179717 C 88.764319 62.227357 88.752746 62.26798 88.734306 62.30485 A 0.26460981 0.26460981 0 0 0 88.722569 62.330377 A 0.26460981 0.26460981 0 0 0 88.708697 62.337885 C 88.751857 62.311985 88.723622 62.335847 88.638272 62.320367 A 0.26460981 0.26460981 0 0 0 88.337366 62.654222 L 88.384316 62.818397 L 88.130359 62.941528 A 0.26460981 0.26460981 0 0 0 87.993778 63.095692 C 87.979508 63.138502 87.956822 63.192488 87.921752 63.253861 C 87.876892 63.322941 87.836084 63.395557 87.802243 63.472594 C 87.801606 63.473894 87.801343 63.475298 87.800643 63.476598 C 87.752263 63.574888 87.728084 63.684578 87.728084 63.794937 C 87.728084 63.854307 87.771896 63.892138 87.790506 63.943595 C 87.681451 64.05059 87.567772 64.151847 87.484264 64.285459 A 0.26460981 0.26460981 0 0 0 87.48213 64.288963 C 87.38492 64.450971 87.287591 64.623736 87.190827 64.806514 A 0.26460981 0.26460981 0 0 0 87.187092 64.812521 C 87.101962 64.982787 87.01811 65.159514 86.933136 65.340082 C 86.854566 65.496665 86.765416 65.648105 86.667442 65.795067 A 0.26460981 0.26460981 0 0 0 86.681313 66.105397 C 86.781133 66.230177 86.775213 66.281581 86.775213 66.281585 C 86.752043 66.356805 86.710299 66.441833 86.648235 66.53936 L 86.665841 66.517837 C 86.575001 66.631386 86.49751 66.754501 86.429491 66.88673 C 86.429129 66.8873 86.429852 66.888132 86.429491 66.888732 C 86.30751 67.081879 86.306602 67.328764 86.38841 67.546933 A 0.26460981 0.26460981 0 0 0 86.487645 67.67607 C 86.546525 67.71533 86.632376 67.794446 86.726129 67.916326 C 86.833186 68.055499 86.940774 68.189633 87.048377 68.318755 A 0.26460981 0.26460981 0 0 0 87.063849 68.336273 C 87.193376 68.4658 87.33476 68.569426 87.485865 68.646604 C 87.613043 68.719154 87.763953 68.681454 87.910015 68.666124 C 87.993564 68.755634 88.076405 68.850069 88.192781 68.888862 C 88.317744 68.930512 88.449634 68.944887 88.579585 68.931907 C 88.704309 68.930107 88.829917 68.914129 88.952516 68.877349 C 89.049636 68.857759 89.143586 68.838447 89.232082 68.818787 A 0.26460981 0.26460981 0 0 0 89.240085 68.816785 C 89.299165 68.802015 89.342779 68.805912 89.421482 68.851822 A 0.26460981 0.26460981 0 0 0 89.812554 68.683643 C 89.846054 68.541257 89.89235 68.47681 89.919792 68.4549 C 89.998672 68.40117 90.07884 68.36402 90.16041 68.341779 L 90.507733 68.246177 A 0.26460981 0.26460981 0 0 0 90.527473 68.240171 C 90.680218 68.184631 90.816105 68.089789 90.926014 67.968882 C 90.995884 67.898382 91.055472 67.818504 91.099409 67.730628 C 91.117649 67.694148 91.143857 67.660994 91.177837 67.627018 C 91.320716 67.484139 91.461991 67.351963 91.603587 67.230596 C 91.72326 67.128019 91.814065 66.991723 91.908228 66.861202 C 91.932968 66.879922 91.956944 66.900501 91.980254 66.925771 C 92.049104 67.273729 92.143058 67.585462 92.3009 67.822226 A 0.26460981 0.26460981 0 0 0 92.303034 67.828232 C 92.468721 68.064927 92.67361 68.2627 92.912317 68.41786 C 93.141664 68.566937 93.398109 68.692026 93.677921 68.792759 C 93.940838 68.894101 94.214329 69.015275 94.500078 69.158148 A 0.26460981 0.26460981 0 0 0 94.790847 69.123111 L 94.861272 69.060544 C 94.957272 69.091164 95.084879 69.108005 95.209129 69.033015 C 95.288928 68.987855 95.36079 68.920158 95.402264 68.839809 C 95.403095 68.839928 95.403498 68.841612 95.404398 68.841812 C 95.441268 68.846812 95.470755 68.872337 95.505767 68.865337 L 95.455082 68.871343 L 95.642882 68.871343 L 95.70317 68.871343 C 95.72628 68.875743 95.74531 68.88686 95.76986 68.88686 C 95.911336 68.88686 96.01087 68.833174 96.115582 68.767733 C 96.211462 68.713713 96.306711 68.649468 96.400483 68.578031 L 96.412221 68.568521 C 96.526747 68.494641 96.639472 68.406555 96.74994 68.308744 C 96.914561 68.202224 97.035115 68.117791 97.136743 68.040959 C 97.174803 68.095189 97.193212 68.164105 97.240247 68.21114 C 97.299007 68.2699 97.36096 68.327585 97.429647 68.384825 C 97.480197 68.426945 97.527812 68.472252 97.570497 68.523473 A 0.26460981 0.26460981 0 0 0 97.574231 68.529479 C 97.644201 68.609439 97.714763 68.694295 97.785506 68.785251 A 0.26460981 0.26460981 0 0 0 97.787107 68.787253 C 97.882987 68.907098 97.987384 69.01219 98.099751 69.099586 C 98.217126 69.190876 98.347498 69.261086 98.486554 69.302802 C 98.578764 69.330462 98.676669 69.309305 98.773589 69.304805 C 98.784389 69.316565 98.788108 69.330554 98.800798 69.341844 C 98.854348 69.389444 98.93841 69.421648 99.023811 69.429938 C 99.13604 69.445538 99.255311 69.423823 99.346058 69.369373 C 99.413156 69.329118 99.470553 69.27643 99.522654 69.218212 C 99.546999 69.20164 99.56857 69.192744 99.556799 69.195688 A 0.26460981 0.26460981 0 0 0 99.576539 69.189682 C 99.589819 69.185282 99.632884 69.178058 99.701384 69.185678 A 0.26460981 0.26460981 0 0 0 99.703518 69.185678 C 99.813492 69.196678 99.904075 69.203196 99.98255 69.203196 C 100.17752 69.203196 100.33432 69.207641 100.44938 69.217211 C 100.62293 69.231671 100.80504 69.203224 101.00424 69.144634 A 0.26460981 0.26460981 0 0 0 101.1739 68.988468 C 101.20774 68.903844 101.23184 68.883106 101.23313 68.879852 C 101.30584 68.864396 101.37748 68.855826 101.4492 68.855826 C 101.57142 68.855826 101.68558 68.83483 101.79332 68.79326 C 101.9008 68.76173 101.99204 68.685782 102.04515 68.603558 C 102.06505 68.572788 102.06816 68.536262 102.08196 68.503952 A 0.26460981 0.26460981 0 0 0 102.15078 68.478925 C 102.44204 68.281291 102.66839 68.136845 102.82462 68.048967 C 102.99153 67.955077 103.14239 67.871997 103.27758 67.799201 A 0.26460981 0.26460981 0 0 0 103.29145 67.791193 C 103.43832 67.700813 103.5884 67.59576 103.74228 67.474856 A 0.26460981 0.26460981 0 0 0 103.75028 67.466847 C 103.77128 67.448827 103.80044 67.417083 103.82284 67.396773 C 103.86734 67.528435 103.89428 67.665121 103.95569 67.791193 A 0.26460981 0.26460981 0 0 0 103.95942 67.799201 C 104.19124 68.239639 104.53675 68.611557 104.97898 68.90638 C 105.06368 68.96282 105.16607 69.011624 105.29163 69.064549 C 105.29227 69.064872 105.29276 69.064227 105.29376 69.064549 C 105.29976 69.066949 105.3014 69.070157 105.3071 69.072557 C 105.43236 69.134607 105.53676 69.181076 105.63521 69.209203 A 0.26460981 0.26460981 0 0 0 105.65496 69.213207 C 105.95845 69.276437 106.28674 69.247174 106.6313 69.144634 C 106.93614 69.065564 107.18067 68.944563 107.39904 68.80277 C 107.45504 68.80537 107.51169 68.813962 107.5671 68.804772 C 107.627 68.796472 107.68187 68.79326 107.72929 68.79326 C 107.77115 68.79326 107.79156 68.7985 107.80665 68.80327 C 107.80723 68.804426 107.80641 68.803245 107.80718 68.804772 A 0.26460981 0.26460981 0 0 0 108.2388 68.865337 C 108.47227 68.611567 108.71378 68.382952 108.96546 68.181608 A 0.26460981 0.26460981 0 0 0 108.97133 68.178105 C 109.01143 68.144455 109.05557 68.116904 109.09617 68.084005 C 109.01477 68.26892 108.91477 68.449707 108.91477 68.654612 A 0.26460981 0.26460981 0 0 0 109.14526 68.916391 C 109.33982 68.942331 109.53186 68.921124 109.70972 68.853824 C 109.87275 68.802224 110.02717 68.722641 110.17069 68.615571 L 110.17442 68.613568 C 110.30744 68.516369 110.42876 68.400951 110.53615 68.269702 A 0.26460981 0.26460981 0 0 0 110.54202 68.261694 C 110.63472 68.138144 110.72243 68.012746 110.80558 67.888797 L 110.80771 67.886795 C 110.85131 67.832015 110.88694 67.771083 110.92082 67.709105 L 110.95016 67.734632 L 110.95016 67.662055 C 110.95116 67.660155 110.95343 67.658449 110.95443 67.656549 A 0.26460981 0.26460981 0 0 0 110.96243 67.707103 C 111.03463 67.938062 111.22498 68.137209 111.46021 68.187615 A 0.26460981 0.26460981 0 0 0 111.47781 68.189617 C 111.6324 68.211697 111.79059 68.229261 111.95425 68.240171 A 0.26460981 0.26460981 0 0 0 111.97186 68.240171 C 112.12336 68.240171 112.26901 68.255147 112.40934 68.283217 C 112.47504 68.296357 112.50972 68.315138 112.56193 68.449394 A 0.26460981 0.26460981 0 0 0 113.00902 68.527477 C 113.11101 68.408489 113.18823 68.370246 113.2299 68.363302 A 0.26460981 0.26460981 0 0 0 113.25124 68.359298 C 113.33244 68.338988 113.39189 68.341134 113.45825 68.365304 A 0.26460981 0.26460981 0 0 0 113.48546 68.375315 C 113.58326 68.399765 113.67758 68.439069 113.77089 68.498446 A 0.26460981 0.26460981 0 0 0 113.77889 68.503952 C 113.91158 68.581352 114.0427 68.641706 114.17157 68.68965 C 114.32224 68.757109 114.48461 68.790398 114.64587 68.775741 C 114.85907 68.757381 115.04305 68.632859 115.18686 68.462908 A 0.26460981 0.26460981 0 0 0 115.2066 68.437881 C 115.2196 68.418311 115.22981 68.398375 115.24181 68.375315 C 115.24481 68.372715 115.24895 68.369906 115.25195 68.367306 C 115.32155 68.297736 115.38546 68.267156 115.46482 68.254186 C 115.60071 68.234776 115.73006 68.224654 115.85323 68.224654 C 115.95938 68.224654 116.0879 68.213469 116.25177 68.191619 C 116.38009 68.174509 116.47563 68.09112 116.57988 68.023941 C 116.80963 68.038781 117.05081 67.9976 117.33375 67.892801 C 117.63304 67.785806 117.94261 67.664118 118.26155 67.52591 A 0.26460981 0.26460981 0 0 0 118.26528 67.523908 C 118.59111 67.376759 118.90595 67.234559 119.21068 67.097954 A 0.26460981 0.26460981 0 0 0 119.21868 67.09395 C 119.51567 66.950575 119.76377 66.850002 119.95334 66.79313 A 0.26460981 0.26460981 0 0 0 120.06272 66.726559 C 120.12732 66.661949 120.19193 66.609381 120.25212 66.566388 C 120.32702 66.512898 120.40609 66.453291 120.4922 66.388699 A 0.26460981 0.26460981 0 0 0 120.50234 66.383193 C 120.72622 66.200027 120.91494 66.065791 121.06254 65.982767 A 0.26460981 0.26460981 0 0 0 121.07427 65.97676 C 121.2553 65.863613 121.40774 65.747136 121.5315 65.623384 C 121.67276 65.482111 121.78417 65.309732 121.86922 65.115343 A 0.26460981 0.26460981 0 0 0 121.87136 65.111339 C 121.95806 64.90075 122.02389 64.632693 122.07836 64.294969 A 0.26460981 0.26460981 0 0 0 122.04315 64.11728 C 121.96645 63.989538 121.80211 63.919901 121.66808 63.916066 C 121.57548 63.905846 121.4768 63.907655 121.38692 63.943595 A 0.26460981 0.26460981 0 0 0 121.26581 64.043201 C 121.12656 64.252083 121.00431 64.39372 120.92435 64.459144 C 120.82378 64.541424 120.72695 64.601127 120.63518 64.64284 C 120.52491 64.69296 120.40429 64.744069 120.27186 64.795002 C 120.1071 64.858372 119.93053 64.956707 119.73087 65.089816 A 0.26460981 0.26460981 0 0 0 119.64657 65.273512 C 119.54967 65.318062 119.44782 65.349683 119.36167 65.420168 C 119.24978 65.511708 119.1392 65.598847 119.02768 65.679944 C 118.93018 65.750894 118.82814 65.805773 118.72464 65.849625 C 118.67504 65.867005 118.6249 65.870591 118.53524 65.836111 A 0.26460981 0.26460981 0 0 0 118.221 65.935717 C 118.1657 66.018677 118.12025 66.045968 118.06254 66.06085 C 117.96001 66.079 117.85285 66.094516 117.74029 66.103896 C 117.59962 66.115616 117.46014 66.139041 117.32041 66.17397 A 0.26460981 0.26460981 0 0 0 117.31454 66.17397 C 117.29814 66.17847 117.28936 66.197872 117.27346 66.203502 C 117.28756 66.100241 117.28651 65.994151 117.31081 65.892671 C 117.38241 65.637502 117.45958 65.386011 117.54129 65.14087 L 117.53916 65.142872 C 117.68942 64.702841 117.80278 64.2776 117.87901 63.865512 C 117.97071 63.430017 117.96994 62.968676 117.88114 62.488546 C 117.83454 62.220551 117.74987 61.99114 117.61118 61.808822 C 117.50239 61.653177 117.37388 61.516924 117.22651 61.406393 C 117.11058 61.311783 116.99083 61.217226 116.86532 61.123092 C 116.77392 61.054552 116.6859 60.953707 116.60549 60.810759 A 0.26460981 0.26460981 0 0 0 116.32806 60.68012 C 115.89017 60.75872 115.47716 60.905489 115.09403 61.119588 A 0.26460981 0.26460981 0 0 0 115.09189 61.12159 C 114.73408 61.327606 114.38619 61.560824 114.05099 61.820334 C 113.72109 62.075729 113.39755 62.341069 113.07838 62.617683 C 112.77071 62.873843 112.45745 63.109697 112.14045 63.324436 A 0.26460981 0.26460981 0 0 0 112.12924 63.347961 C 111.98545 63.426761 111.84311 63.512711 111.71096 63.621252 A 0.26460981 0.26460981 0 0 0 111.70723 63.625256 C 111.41347 63.875502 111.13139 64.152359 110.86106 64.45514 C 110.77466 64.54845 110.689 64.641848 110.60337 64.73644 C 110.50897 64.585243 110.42341 64.430921 110.35742 64.265939 A 0.26460981 0.26460981 0 0 0 110.35315 64.259932 C 110.32615 64.196842 110.30509 64.134054 110.28699 64.070731 C 110.26179 63.982601 110.23089 63.897304 110.19149 63.818462 C 110.13739 63.710268 110.07161 63.598406 109.90232 63.549175 C 109.80011 63.514805 109.68024 63.511295 109.58008 63.549175 C 109.5203 63.562817 109.46184 63.580829 109.40561 63.604234 C 109.35288 63.619028 109.30847 63.625256 109.27544 63.625256 A 0.26460981 0.26460981 0 0 0 109.02895 63.791433 C 109.00565 63.849673 108.98316 63.913412 108.96066 63.980635 L 108.98627 63.928079 C 108.93497 64.013609 108.90037 64.114871 108.90037 64.220891 A 0.26460981 0.26460981 0 0 0 108.93718 64.357536 C 108.93918 64.361236 108.94432 64.359943 108.94732 64.363543 C 108.93932 64.374782 108.92397 64.381334 108.91637 64.393074 C 108.84627 64.500475 108.8086 64.638231 108.82621 64.771977 C 108.84331 64.964771 108.9218 65.148175 109.04495 65.320562 A 0.26460981 0.26460981 0 0 0 109.05136 65.32857 C 109.15959 65.469265 109.27765 65.615502 109.40668 65.766036 C 109.42988 65.793676 109.42973 65.816367 109.44563 65.842117 C 109.39113 65.878787 109.33809 65.918298 109.28184 65.951233 C 109.17465 65.935923 109.06708 65.908623 108.96332 65.941723 C 108.84431 65.973653 108.73313 66.03486 108.63734 66.115408 C 108.54364 66.184628 108.45818 66.2681 108.38499 66.365675 C 108.33839 66.427875 108.28702 66.484248 108.23453 66.53936 C 108.06483 66.58014 107.89713 66.630164 107.73302 66.717049 C 107.5446 66.811799 107.36467 66.934207 107.19363 67.082438 C 107.02834 67.215357 106.86797 67.363587 106.71506 67.527412 C 106.65906 67.587702 106.6158 67.644131 106.56461 67.703099 L 106.36774 67.427806 A 0.26460981 0.26460981 0 0 0 105.97133 67.388764 L 105.90251 67.453333 C 105.88761 67.431613 105.87006 67.415508 105.85556 67.392768 C 105.79096 67.281067 105.73606 67.165633 105.68963 67.044898 C 105.64493 66.928661 105.61617 66.814679 105.59787 66.701532 C 105.59087 66.601428 105.60075 66.5086 105.63095 66.418231 A 0.26460981 0.26460981 0 0 0 105.64268 66.306612 C 105.59028 65.83551 105.54212 65.358824 105.50023 64.877089 C 105.46033 64.417721 105.45259 63.964533 105.47089 63.51564 C 105.756 62.930447 106.01483 62.341675 106.24076 61.746255 L 106.24236 61.744253 C 106.48456 61.122921 106.72183 60.495206 106.95355 59.86325 A 0.26460981 0.26460981 0 0 0 106.95568 59.859746 L 107.2075 59.132972 A 0.26460981 0.26460981 0 0 0 107.2075 59.132472 A 0.26460981 0.26460981 0 0 0 107.2075 59.131971 A 0.26460981 0.26460981 0 0 0 107.2075 59.131471 A 0.26460981 0.26460981 0 0 0 107.2075 59.13097 C 107.2903 58.882565 107.37816 58.6401 107.47106 58.402695 A 0.26460981 0.26460981 0 0 0 107.4732 58.396688 C 107.58801 58.080951 107.72198 57.933232 107.79545 57.898658 A 0.26460981 0.26460981 0 0 0 107.80131 57.894654 C 107.95194 57.819344 108.1034 57.788709 108.27028 57.79705 A 0.26460981 0.26460981 0 0 0 108.28202 57.79705 C 108.48774 57.79705 108.69932 57.802236 108.91637 57.812566 C 109.15566 57.823956 109.38724 57.72473 109.60995 57.601842 C 109.7417 57.656682 109.87448 57.722756 110.01436 57.699446 A 0.26460981 0.26460981 0 0 0 110.02984 57.695441 C 110.11604 57.675551 110.16604 57.59407 110.24058 57.546783 L 110.36595 57.671916 A 0.26460981 0.26460981 0 0 0 110.53935 57.75 C 110.75326 57.76188 110.96655 57.742531 111.17851 57.695441 L 111.74671 57.570308 A 0.26460981 0.26460981 0 0 0 111.76058 57.566304 C 111.93811 57.516994 112.10827 57.482479 112.27223 57.463194 A 0.26460981 0.26460981 0 0 0 112.2877 57.461192 C 112.43243 57.435652 112.566 57.439704 112.69798 57.472704 A 0.26460981 0.26460981 0 0 0 112.98075 57.367092 C 113.06455 57.245218 113.10844 57.228444 113.17228 57.228444 A 0.26460981 0.26460981 0 0 0 113.18989 57.228444 C 113.33626 57.219344 113.48218 57.22835 113.62951 57.255973 A 0.26460981 0.26460981 0 0 0 113.63164 57.255973 C 113.82551 57.290183 114.01963 57.308529 114.21371 57.308529 A 0.26460981 0.26460981 0 0 0 114.22919 57.306527 C 114.481 57.291717 114.71534 57.165475 114.89716 56.97067 A 0.26460981 0.26460981 0 0 0 114.95584 56.712895 C 114.92194 56.602705 114.9252 56.534432 114.9281 56.523193 C 114.9558 56.437443 114.97572 56.357271 114.98892 56.279434 L 114.98892 56.277431 C 115.02542 56.14787 115.01371 56.004422 114.96171 55.883011 C 114.88371 55.700894 114.74852 55.614015 114.57117 55.507612 A 0.26460981 0.26460981 0 0 0 114.38337 55.474576 C 114.219 55.507446 114.03446 55.550077 113.83065 55.603714 C 113.64973 55.643704 113.4653 55.678648 113.27418 55.708826 A 0.26460981 0.26460981 0 0 0 113.27205 55.708826 C 113.09297 55.738676 112.90755 55.75937 112.71719 55.76939 A 0.26460981 0.26460981 0 0 0 112.71558 55.76939 C 112.53987 55.77919 112.38245 55.774246 112.24448 55.755876 A 0.26460981 0.26460981 0 0 0 112.06309 55.798922 C 112.01719 55.829512 112.00753 55.824545 111.98893 55.820445 C 111.91893 55.793515 111.84533 55.763647 111.76592 55.728347 L 111.78566 55.740359 C 111.67246 55.67747 111.55025 55.628082 111.41859 55.591701 C 111.2393 55.537921 111.04629 55.569928 110.8776 55.654268 A 0.26460981 0.26460981 0 0 0 110.76823 55.755876 C 110.69773 55.873459 110.66015 55.875987 110.6722 55.875003 C 110.6014 55.872903 110.52987 55.865719 110.45559 55.843469 L 110.47906 55.851478 C 110.35887 55.803408 110.2339 55.776162 110.10986 55.761882 C 109.98182 55.738902 109.88081 55.833351 109.77001 55.896526 C 109.69511 55.847516 109.63788 55.76939 109.54326 55.76939 C 109.4313 55.76939 109.32121 55.793589 109.21355 55.833959 A 0.26460981 0.26460981 0 0 0 109.20341 55.837963 C 109.14421 55.863323 109.07166 55.891169 108.99267 55.918049 C 108.96297 55.924249 108.93364 55.916242 108.90464 55.912042 C 108.82424 55.816292 108.74388 55.718908 108.65068 55.617228 C 108.59918 55.561038 108.59451 55.563635 108.64641 55.453053 C 108.72701 55.367224 108.80561 55.278745 108.86942 55.162244 C 108.92692 55.068774 108.95006 55.067831 108.96866 55.066141 A 0.26460981 0.26460981 0 0 0 109.20501 54.839901 C 109.20701 54.823971 109.22604 54.771317 109.27544 54.697249 C 109.34344 54.595185 109.40128 54.496579 109.44936 54.400433 C 109.51316 54.272726 109.53911 54.116438 109.49791 53.972477 C 109.47331 53.886507 109.38614 53.871521 109.33039 53.818313 C 109.38759 53.724903 109.45557 53.637164 109.49205 53.535011 C 109.54715 53.380615 109.59117 53.221042 109.62489 53.056501 L 109.62703 53.046991 C 109.66943 52.887246 109.70869 52.728102 109.74067 52.567981 C 109.76987 52.422111 109.80733 52.281061 109.85537 52.146532 A 0.26460981 0.26460981 0 0 0 109.74067 51.830195 C 109.61004 51.753995 109.47762 51.682852 109.34586 51.616968 C 109.2118 51.549938 109.0621 51.517362 108.90837 51.517362 L 108.90624 51.517362 z M 24.013824 53.56204 A 0.26460981 0.26460981 0 0 0 23.837761 53.611592 L 23.837761 53.611092 L 23.142582 54.115129 A 0.26460981 0.26460981 0 0 0 23.068423 54.20122 C 22.925493 54.456453 22.776646 54.690255 22.625066 54.902467 A 0.26460981 0.26460981 0 0 0 22.621331 54.908474 C 22.480092 55.120332 22.322725 55.328203 22.150231 55.531137 A 0.26460981 0.26460981 0 0 0 22.148631 55.531137 C 21.968812 55.744673 21.811951 55.976439 21.677531 56.222873 C 21.553608 56.448418 21.442083 56.703527 21.343546 56.988188 C 21.253006 57.249764 21.15905 57.461372 21.066115 57.61936 A 0.26460981 0.26460981 0 0 0 21.052777 57.642385 C 21.010757 57.734835 20.959136 57.817937 20.89272 57.892651 C 20.80526 57.991041 20.717507 58.094551 20.630761 58.202982 A 0.26460981 0.26460981 0 0 0 20.621157 58.214995 C 20.565887 58.292375 20.49713 58.393653 20.412017 58.521321 A 0.26460981 0.26460981 0 0 0 20.404014 58.535336 C 20.331674 58.659356 20.253054 58.788458 20.169798 58.92375 C 20.087038 59.048218 20.00878 59.17361 19.935582 59.298649 C 19.933982 59.301149 19.933447 59.302155 19.931847 59.304655 C 19.931129 59.305855 19.930513 59.307459 19.929713 59.308659 C 19.857253 59.422975 19.801502 59.516531 19.763788 59.591961 A 0.26460981 0.26460981 0 0 0 19.759519 59.599469 C 19.69911 59.732366 19.652265 59.876914 19.617069 60.029427 L 19.617069 60.023421 C 19.588939 60.135924 19.551283 60.249469 19.503962 60.363283 C 19.503717 60.363872 19.504208 60.364685 19.503962 60.365285 C 19.457522 60.466474 19.401691 60.568731 19.335903 60.672111 C 19.256553 60.786473 19.183704 60.909916 19.117159 61.043006 A 0.26460981 0.26460981 0 0 0 19.113424 61.051015 C 19.059664 61.169283 19.006489 61.293138 18.952834 61.42191 A 0.26460981 0.26460981 0 0 0 18.946966 61.433422 C 18.907316 61.542444 18.863961 61.652108 18.814119 61.761772 A 0.26460981 0.26460981 0 0 0 18.812518 61.765776 C 18.597798 62.259632 18.413909 62.763783 18.263524 63.279388 A 0.26460981 0.26460981 0 0 0 18.263524 63.283392 C 18.128657 63.770989 17.97321 64.257929 17.796692 64.74595 A 0.26460981 0.26460981 0 0 0 17.78122 64.863575 C 17.80184 65.059452 17.81792 65.251135 17.82817 65.435684 A 0.26460981 0.26460981 0 0 0 17.829771 65.449199 C 17.85073 65.637839 17.871193 65.831859 17.892193 66.031319 A 0.26460981 0.26460981 0 0 0 17.892193 66.039327 L 17.972754 66.636964 A 0.26460981 0.26460981 0 0 0 17.976489 66.66199 C 18.010669 66.810096 18.055351 66.961331 18.110937 67.116975 A 0.26460981 0.26460981 0 0 0 18.113071 67.122981 C 18.164691 67.257189 18.217348 67.3972 18.269393 67.542928 A 0.26460981 0.26460981 0 0 0 18.310474 67.621011 C 18.396054 67.727987 18.49363 67.843667 18.599643 67.970884 A 0.26460981 0.26460981 0 0 0 18.607112 67.980394 C 18.717627 68.10196 18.82868 68.213576 18.941097 68.31475 C 19.054108 68.415205 19.18808 68.506433 19.339638 68.588041 C 19.466722 68.656471 19.582232 68.728219 19.687494 68.804772 A 0.26460981 0.26460981 0 0 0 19.978263 68.818286 L 20.15806 68.711172 C 20.33188 68.702972 20.506329 68.697157 20.679845 68.697157 C 20.87894 68.697157 21.073139 68.686214 21.263518 68.666124 C 21.265618 68.666124 21.265253 68.666134 21.267253 68.666124 C 21.365242 68.6656 21.377693 68.652923 21.451318 68.636593 C 21.526468 68.619923 21.626321 68.594394 21.753825 68.562514 C 22.006836 68.499264 22.275692 68.431137 22.56051 68.357296 A 0.26460981 0.26460981 0 0 0 22.566379 68.355293 C 22.85945 68.271554 23.125841 68.198965 23.365061 68.136561 C 23.488132 68.104451 23.585443 68.077964 23.660099 68.054974 C 23.726418 68.034554 23.762443 68.027738 23.834027 67.984398 C 23.892527 67.960118 23.947056 67.937545 24.005821 67.878786 C 24.005129 67.879478 24.014424 67.870595 24.042634 67.859265 A 0.26460981 0.26460981 0 0 0 24.085849 67.836241 C 24.290088 67.707249 24.484292 67.573969 24.667922 67.433812 L 24.67379 67.429808 C 24.855018 67.299173 25.045661 67.172223 25.24786 67.050904 A 0.26460981 0.26460981 0 0 0 25.253729 67.0469 C 25.353449 66.98344 25.464484 66.929507 25.586113 66.882725 A 0.26460981 0.26460981 0 0 0 25.595716 66.879222 C 25.636186 66.861882 25.664762 66.835735 25.702954 66.816655 C 25.621164 67.010002 25.583364 67.221041 25.607454 67.437816 A 0.26460981 0.26460981 0 0 0 25.658138 67.566453 C 25.772033 67.718313 25.865868 67.877745 25.941438 68.046965 C 26.002188 68.205588 26.037907 68.380024 26.047076 68.572525 A 0.26460981 0.26460981 0 0 0 26.359186 68.820289 C 26.444746 68.804729 26.502108 68.808054 26.538983 68.816284 C 26.605173 68.839614 26.662129 68.866774 26.709177 68.900374 A 0.26460981 0.26460981 0 0 0 26.722515 68.910385 C 26.796365 68.956545 26.865133 69.006724 26.927921 69.060544 A 0.26460981 0.26460981 0 0 0 26.941259 69.070555 C 27.036199 69.141755 27.133589 69.203965 27.234162 69.254251 A 0.26460981 0.26460981 0 0 0 27.386749 69.279277 C 27.887385 69.212527 28.373196 69.061925 28.837929 68.830299 C 29.294488 68.61289 29.692968 68.317404 30.035152 67.960873 C 30.215452 67.955473 30.406734 67.968246 30.521725 67.824228 C 30.628776 67.700788 30.709352 67.554315 30.759675 67.390766 C 30.798595 67.264277 30.84419 67.138431 30.892522 67.011863 C 30.921122 66.951613 30.961022 66.910031 31.086191 66.873215 A 0.26460981 0.26460981 0 0 0 31.232376 66.472789 C 31.223776 66.459819 31.210871 66.448179 31.201431 66.435749 C 31.34165 66.347709 31.510968 66.286275 31.572229 66.134929 C 31.649679 65.956995 31.71077 65.774379 31.755761 65.585844 L 31.760029 65.576334 C 31.807749 65.407192 31.863249 65.262869 31.92382 65.15038 A 0.26460981 0.26460981 0 0 0 31.927555 65.144374 C 31.951575 65.096344 31.996164 65.053892 32.18738 65.03726 A 0.26460981 0.26460981 0 0 0 32.20712 65.035258 C 32.24196 65.029458 32.275778 65.029458 32.310624 65.035258 A 0.26460981 0.26460981 0 0 0 32.353305 65.03726 L 32.558711 65.03726 A 0.26460981 0.26460981 0 0 0 32.580052 65.03726 C 32.677792 65.02916 32.766701 65.037624 32.851615 65.060785 A 0.26460981 0.26460981 0 0 0 32.877224 65.066291 C 33.032791 65.092221 33.193369 65.091201 33.35526 65.066291 A 0.26460981 0.26460981 0 0 0 33.357394 65.066291 C 33.816839 64.993201 34.233965 64.936105 34.607436 64.894608 A 0.26460981 0.26460981 0 0 0 34.613304 64.892606 C 34.705094 64.880206 34.80984 64.857852 34.906208 64.842052 C 34.899208 64.855242 34.889433 64.867854 34.882733 64.881094 C 34.811373 65.009544 34.779294 65.158817 34.790967 65.304545 C 34.793167 65.375345 34.833807 65.424318 34.865127 65.480732 A 0.26460981 0.26460981 0 0 0 34.769626 65.762032 L 34.843786 65.962746 A 0.26460981 0.26460981 0 0 0 34.628777 66.193491 L 34.628777 66.79313 C 34.618497 67.01225 34.624503 67.230728 34.646383 67.449329 A 0.26460981 0.26460981 0 0 0 34.646383 67.451331 C 34.668863 67.664843 34.70785 67.877567 34.763758 68.090011 C 34.822678 68.313923 34.911874 68.523639 35.031586 68.715177 A 0.26460981 0.26460981 0 0 0 35.068399 68.761726 C 35.057939 68.751266 35.081096 68.778541 35.107346 68.822291 A 0.26460981 0.26460981 0 0 0 35.115349 68.832301 C 35.161569 68.901621 35.191244 68.946895 35.242327 68.997978 C 35.315027 69.070678 35.399883 69.124098 35.500018 69.174165 A 0.26460981 0.26460981 0 0 0 35.511755 69.179671 C 35.608155 69.222511 35.682035 69.254546 35.740103 69.277776 A 0.26460981 0.26460981 0 0 0 35.756109 69.283282 C 36.052339 69.382022 36.354241 69.392109 36.632685 69.299299 C 36.885368 69.228849 37.13131 69.12107 37.367345 68.974953 C 37.588335 68.838151 37.80859 68.694119 38.029446 68.546998 L 38.035314 68.544995 C 38.036071 68.544491 38.036648 68.543593 38.037448 68.542993 C 38.235991 68.421027 38.43623 68.332938 38.638728 68.277711 A 0.26460981 0.26460981 0 0 0 38.832396 68.039457 C 38.836196 67.974617 38.850211 67.936635 38.855871 67.923834 C 38.916771 67.890004 38.98392 67.868787 39.066612 67.861267 A 0.26460981 0.26460981 0 0 0 39.090087 67.857764 C 39.213007 67.835414 39.330607 67.807394 39.443812 67.773674 C 39.653853 67.716394 39.808909 67.513027 39.853557 67.304675 C 39.873957 67.222465 39.889437 67.153321 39.900507 67.097954 A 0.26460981 0.26460981 0 0 0 39.902641 67.087944 C 39.906041 67.067434 39.914154 67.039802 39.939454 67.001852 A 0.26460981 0.26460981 0 0 0 39.95706 66.974823 C 40.0274 66.834134 40.103477 66.744125 40.175804 66.691522 A 0.26460981 0.26460981 0 0 0 40.180073 66.687517 C 40.307099 66.592247 40.417648 66.508732 40.514057 66.433747 A 0.26460981 0.26460981 0 0 0 40.517792 66.431745 C 40.641542 66.332745 40.747911 66.218162 40.836305 66.091883 A 0.26460981 0.26460981 0 0 0 40.842173 66.081872 C 40.934583 65.936652 40.942971 65.752526 40.949411 65.564321 C 40.990951 65.518531 41.033188 65.47212 41.072655 65.418166 C 41.072914 65.417811 41.074489 65.418521 41.074789 65.418166 C 41.075989 65.411666 41.063778 65.412261 41.080658 65.414161 A 0.26460981 0.26460981 0 0 0 41.371427 65.189422 C 41.385507 65.090842 41.383997 64.989591 41.371427 64.8866 L 41.371427 64.883096 C 41.363127 64.806786 41.36039 64.734777 41.35969 64.667867 C 41.36669 64.619177 41.376838 64.576248 41.392768 64.535225 C 41.396268 64.529525 41.412031 64.525019 41.420511 64.519709 C 41.757579 64.538559 42.071255 64.554937 42.346172 64.564757 C 42.649999 64.575607 42.943123 64.568618 43.227017 64.546738 C 43.514117 64.524648 43.795931 64.482507 44.072649 64.416098 A 0.26460981 0.26460981 0 0 0 44.080652 64.414096 C 44.094702 64.410296 44.111338 64.40252 44.125468 64.39858 L 44.125468 64.474661 C 44.125468 64.659681 44.103215 64.810331 44.063045 64.93365 C 44.007456 65.071445 43.939638 65.198115 43.85764 65.316557 C 43.725615 65.507262 43.675198 65.745386 43.701318 65.984268 C 43.714718 66.189177 43.764041 66.392587 43.845902 66.591916 C 43.846151 66.592523 43.845652 66.593218 43.845902 66.593918 C 43.913972 66.783851 43.99857 66.964177 44.099859 67.132992 C 44.197268 67.29535 44.279228 67.422798 44.351681 67.519403 C 44.436961 67.633112 44.519485 67.76279 44.598168 67.91032 A 0.26460981 0.26460981 0 0 0 44.609905 67.92984 C 44.711654 68.088117 44.819755 68.231552 44.935887 68.359298 A 0.26460981 0.26460981 0 0 0 44.94389 68.367306 C 45.072202 68.495618 45.223476 68.592238 45.388848 68.648606 C 45.580852 68.720545 45.792169 68.699044 45.991727 68.621076 C 46.130441 68.647479 46.265217 68.666124 46.392936 68.666124 C 46.533812 68.666124 46.682273 68.653627 46.840027 68.631087 A 0.26460981 0.26460981 0 0 0 46.844295 68.631087 C 46.967676 68.612107 47.083851 68.597981 47.197487 68.588041 L 47.201222 68.588041 C 47.322906 68.588247 47.439499 68.59683 47.549078 68.61507 A 0.26460981 0.26460981 0 0 0 47.728875 68.582035 C 47.779725 68.551525 47.886414 68.516986 48.048988 68.507956 C 48.248848 68.496856 48.433867 68.473813 48.605985 68.439383 A 0.26460981 0.26460981 0 0 0 48.623591 68.435379 C 48.812367 68.385039 48.976702 68.304664 49.103761 68.177604 C 49.200491 68.080874 49.244611 67.942257 49.244611 67.818221 C 49.244611 67.788542 49.22834 67.759758 49.22487 67.730628 C 49.464559 67.647048 49.705673 67.558753 49.945659 67.464845 A 0.26460981 0.26460981 0 0 0 49.949393 67.462843 C 50.210176 67.354183 50.462088 67.234135 50.701659 67.10346 A 0.26460981 0.26460981 0 0 0 50.709129 67.097454 C 50.771959 67.059754 50.835234 67.016164 50.896928 66.966815 C 50.933098 66.937875 50.96247 66.921897 50.98656 66.912257 A 0.26460981 0.26460981 0 0 0 51.004166 66.904248 L 52.475086 66.197496 L 52.469218 66.191489 A 0.26460981 0.26460981 0 0 0 52.824543 66.209008 C 53.036174 66.035856 53.251944 65.909711 53.474906 65.8261 A 0.26460981 0.26460981 0 0 0 53.482376 65.822096 C 53.725972 65.720596 53.969264 65.603591 54.2117 65.474225 C 54.337298 65.455725 54.464732 65.383185 54.53128 65.285024 L 54.681733 65.074299 L 54.686001 65.068293 C 54.736961 65.000833 54.786318 64.943732 54.83432 64.894608 C 54.834211 64.893679 54.822988 64.886218 54.894608 64.904118 A 0.26460981 0.26460981 0 0 0 55.121355 64.855566 C 55.233052 64.768687 55.333141 64.668586 55.420128 64.556748 C 55.486957 64.470818 55.558687 64.388938 55.635137 64.312488 A 0.26460981 0.26460981 0 0 0 55.64474 64.302477 C 55.73243 64.205048 55.792031 64.135055 55.840009 64.076237 L 55.85975 64.054714 C 55.90704 64.006244 55.950865 63.9592 55.986728 63.912062 L 55.992597 63.906055 L 56.103569 63.767408 L 56.314844 63.556683 A 0.26460981 0.26460981 0 0 0 56.371397 63.267375 A 0.26460981 0.26460981 0 0 0 56.391138 63.179782 L 56.391138 63.021613 C 56.391138 62.884781 56.283809 62.705025 56.146784 62.650218 A 0.26460981 0.26460981 0 0 0 55.877356 62.693264 C 55.749236 62.801674 55.616178 62.899774 55.478815 62.988078 A 0.26460981 0.26460981 0 0 0 55.470812 62.994084 C 55.336364 63.087164 55.197558 63.180495 55.053064 63.273382 C 54.876088 63.387897 54.734544 63.476347 54.633183 63.537162 C 54.534653 63.592542 54.445453 63.654235 54.363754 63.72236 C 54.359254 63.72556 54.354452 63.731052 54.349882 63.734372 C 54.348782 63.735281 54.347248 63.735375 54.346148 63.736375 C 54.268948 63.792475 54.190893 63.854752 54.107664 63.927578 A 0.26460981 0.26460981 0 0 0 54.093792 63.939591 C 54.048942 63.984441 53.956001 64.072197 53.873447 64.150315 A 0.26460981 0.26460981 0 0 0 53.574675 64.175843 C 53.464599 64.285918 53.348981 64.390153 53.228953 64.490177 C 53.172733 64.537027 53.138839 64.549274 53.008075 64.505694 A 0.26460981 0.26460981 0 0 0 52.783462 64.533223 C 52.730632 64.566243 52.68237 64.583643 52.62714 64.589783 A 0.26460981 0.26460981 0 0 0 52.623405 64.589783 C 52.528025 64.601703 52.433851 64.618909 52.340105 64.642339 A 0.26460981 0.26460981 0 0 0 52.330502 64.644342 C 52.22479 64.674542 52.125503 64.726342 52.03173 64.793 C 51.94104 64.85484 51.908625 64.954126 51.86367 65.044768 L 51.978911 65.044768 A 0.26460981 0.26460981 0 0 0 51.93783 65.048772 C 51.91043 65.052972 51.883047 65.054983 51.855667 65.058783 C 51.834687 65.103093 51.789635 65.131529 51.773505 65.179912 L 51.812452 65.062287 C 51.723852 65.073797 51.634994 65.08703 51.546758 65.09382 C 51.396104 65.10541 51.25058 65.128575 51.10927 65.163895 A 0.26460981 0.26460981 0 0 0 51.103401 65.163895 C 50.964612 65.201745 50.830416 65.258744 50.70486 65.334076 C 50.561882 65.419866 50.44216 65.541901 50.349535 65.687452 A 0.26460981 0.26460981 0 0 0 50.343666 65.699465 C 50.297236 65.780725 50.261719 65.858782 50.234294 65.937719 C 50.233815 65.938919 50.23266 65.940023 50.23216 65.941223 C 50.23106 65.944423 50.229425 65.948033 50.228425 65.951233 C 50.221925 65.967933 50.217209 65.989914 50.210819 66.007794 C 50.194509 66.007543 50.181439 66.011596 50.163869 66.009796 C 50.159569 66.009259 50.172401 66.025235 50.150531 65.990275 A 0.26460981 0.26460981 0 0 0 49.882703 65.869146 C 49.614032 65.913926 49.352457 65.98588 49.095758 66.085877 C 48.857829 66.172397 48.618347 66.271232 48.380839 66.379189 L 48.386707 66.375185 C 48.170557 66.467825 47.944384 66.561527 47.707001 66.654482 C 47.706414 66.654695 47.705466 66.654269 47.704866 66.654482 C 47.703466 66.655033 47.702532 66.655884 47.701132 66.656484 C 47.491608 66.732194 47.272701 66.785632 47.042766 66.814653 C 46.902127 66.749703 46.757611 66.685515 46.597275 66.685515 C 46.43288 66.685515 46.264292 66.696059 46.091496 66.717049 C 45.93994 66.726549 45.796609 66.727621 45.656142 66.719051 C 45.638472 66.716651 45.630741 66.70322 45.615061 66.69953 C 45.646811 66.66523 45.671367 66.608953 45.706827 66.584408 A 0.26460981 0.26460981 0 0 0 45.710561 66.582405 C 45.841902 66.488586 45.976552 66.414396 46.11337 66.359668 A 0.26460981 0.26460981 0 0 0 46.12084 66.355664 C 46.27615 66.287714 46.430462 66.235863 46.583937 66.197496 A 0.26460981 0.26460981 0 0 0 46.597275 66.193491 C 46.781015 66.136071 46.946605 66.066425 47.09345 65.980765 A 0.26460981 0.26460981 0 0 0 47.099319 65.97676 C 47.265942 65.874224 47.406058 65.74085 47.511731 65.58234 C 47.578141 65.482721 47.576807 65.346296 47.603497 65.22496 C 47.625007 65.22936 47.643989 65.234104 47.665919 65.238474 C 47.760819 65.257454 47.849977 65.280629 47.933747 65.308549 A 0.26460981 0.26460981 0 0 0 48.15836 65.28152 C 48.292994 65.19737 48.393829 65.065722 48.452864 64.918133 L 48.443261 64.939656 C 48.460101 64.905976 48.488568 64.88009 48.509418 64.84956 C 48.535518 64.86037 48.553541 64.881422 48.584111 64.888602 C 48.69525 64.914702 48.886284 64.861388 48.962911 64.74645 C 49.025561 64.65247 49.070807 64.546403 49.107496 64.424107 A 0.26460981 0.26460981 0 0 0 49.109096 64.418101 C 49.130546 64.339451 49.164926 64.271686 49.202996 64.208878 C 49.219446 64.207478 49.256134 64.205023 49.320371 64.222893 A 0.26460981 0.26460981 0 0 0 49.533246 64.191359 C 49.794141 64.025335 50.005206 63.81713 50.154266 63.568696 A 0.26460981 0.26460981 0 0 0 50.1564 63.564692 C 50.285221 63.339256 50.402422 63.102652 50.509591 62.857439 L 50.51546 62.843924 L 50.714997 62.4455 L 50.712863 62.453008 C 50.780183 62.327983 50.856497 62.207921 50.943345 62.092124 A 0.26460981 0.26460981 0 0 0 50.945479 62.090121 C 51.063336 61.928067 51.121008 61.727984 51.121008 61.523518 C 51.121008 61.394955 51.033185 61.292201 50.976423 61.17765 C 51.018053 61.13396 51.08138 61.115743 51.105535 61.058523 C 51.165545 60.916369 51.15255 60.763129 51.10927 60.625061 C 51.02802 60.35653 50.850505 60.124424 50.607226 59.941333 C 50.365185 59.751396 50.067384 59.639152 49.734384 59.603473 C 49.436255 59.570353 49.161959 59.761385 48.896221 59.960854 C 48.822051 59.914624 48.750999 59.867714 48.664139 59.849736 C 48.546657 59.825416 48.403584 59.845297 48.297076 59.916307 C 48.183531 59.992006 48.07602 60.087705 47.972694 60.20111 C 47.891855 60.28195 47.794825 60.359737 47.681391 60.435359 A 0.26460981 0.26460981 0 0 0 47.673922 60.441366 C 47.650752 60.458216 47.612837 60.477145 47.458913 60.412335 A 0.26460981 0.26460981 0 0 0 47.174012 60.462889 C 47.003013 60.623828 46.822329 60.774808 46.630887 60.915871 C 46.426855 61.06621 46.228312 61.221726 46.034943 61.382868 C 45.838822 61.535848 45.648758 61.704757 45.464608 61.888907 C 45.27884 62.074675 45.117701 62.287841 44.980703 62.527587 A 0.26460981 0.26460981 0 0 0 44.968966 62.611176 C 44.799439 62.654646 44.630229 62.696691 44.461053 62.732305 A 0.26460981 0.26460981 0 0 0 44.458919 62.732305 C 44.275405 62.773085 44.081121 62.81451 43.876846 62.855436 C 43.875146 62.855691 43.872678 62.855181 43.870978 62.855436 C 43.868878 62.855858 43.867309 62.856939 43.865109 62.857439 C 43.662277 62.887739 43.435572 62.919017 43.181667 62.949537 C 43.05451 62.882367 42.932408 62.790246 42.791129 62.810889 C 42.648816 62.823999 42.505636 62.84973 42.365379 62.89648 C 42.269449 62.92846 42.184486 62.94155 42.105553 62.94353 C 42.106311 62.943494 42.070308 62.897396 42.03833 62.85844 C 42.038837 62.860741 42.0395 62.862694 42.040997 62.857439 A 0.26460981 0.26460981 0 0 0 42.043131 62.849931 C 42.061841 62.775071 42.085123 62.701594 42.113023 62.627193 A 0.26460981 0.26460981 0 0 0 42.117291 62.617183 C 42.143281 62.539223 42.170125 62.481083 42.195185 62.443498 A 0.26460981 0.26460981 0 0 0 42.204788 62.427981 C 42.237928 62.369991 42.273292 62.347755 42.232532 62.374925 A 0.26460981 0.26460981 0 0 0 42.253873 61.949472 C 42.181543 61.890292 42.203428 61.905226 42.203188 61.906426 C 42.222518 61.809766 42.248058 61.712735 42.277347 61.615116 L 42.269345 61.638641 C 42.322085 61.506782 42.343867 61.367053 42.331767 61.228704 C 42.328267 61.11404 42.279974 60.998161 42.209057 60.917873 C 42.156657 60.858543 42.088241 60.823685 42.021257 60.785232 C 41.975757 60.715932 41.930444 60.648795 41.870804 60.59603 C 41.795374 60.52929 41.691041 60.470897 41.566163 60.470897 C 41.40509 60.470897 41.257431 60.544633 41.140412 60.646584 C 41.044512 60.720244 40.952169 60.806024 40.862981 60.906361 C 40.811951 60.963771 40.783915 60.973035 40.749874 60.976435 A 0.26460981 0.26460981 0 0 0 40.517792 61.293273 C 40.597042 61.679615 40.61664 62.039547 40.57808 62.376927 C 40.53837 62.724432 40.458038 63.055141 40.339596 63.370986 C 40.219615 63.690933 40.064325 64.007949 39.872764 64.320497 A 0.26460981 0.26460981 0 0 0 39.872764 64.322499 C 39.687243 64.631698 39.479508 64.946565 39.251744 65.267505 C 38.854436 65.827814 38.419515 66.292236 37.947283 66.663992 C 37.516722 67.002946 36.982475 67.250112 36.378729 67.439819 C 36.374029 67.431119 36.339892 67.400015 36.339782 67.398775 C 36.332482 67.318785 36.341101 67.223128 36.365391 67.113471 L 36.4865 66.713045 A 0.26460981 0.26460981 0 0 0 36.488101 66.707038 C 36.530351 66.559163 36.491106 66.407348 36.457156 66.25806 C 36.509306 66.13443 36.55183 66.006164 36.573998 65.87315 A 0.26460981 0.26460981 0 0 0 36.573998 65.87265 A 0.26460981 0.26460981 0 0 0 36.573998 65.872149 A 0.26460981 0.26460981 0 0 0 36.573998 65.871649 A 0.26460981 0.26460981 0 0 0 36.573998 65.871148 C 36.595478 65.731505 36.611952 65.60214 36.623082 65.480732 L 36.623082 65.476728 C 36.663262 65.10759 36.739677 64.76582 36.847694 64.451136 C 36.947674 64.18848 37.143834 63.988773 37.494323 63.831976 A 0.26460981 0.26460981 0 0 0 37.644776 63.537162 C 37.600516 63.324735 37.610957 63.146264 37.666117 62.986576 C 37.746067 62.787503 37.836034 62.593528 37.935546 62.404456 C 38.044966 62.196557 38.137758 61.983207 38.215111 61.763774 L 38.215111 61.761772 C 38.31789 61.503777 38.341603 61.219499 38.293005 60.927884 A 0.26460981 0.26460981 0 0 0 38.209242 60.775221 C 37.967515 60.557665 37.698076 60.421491 37.415895 60.474401 A 0.26460981 0.26460981 0 0 0 37.412161 60.474401 C 37.203337 60.516171 37.008299 60.622168 36.833823 60.771717 C 36.682564 60.901368 36.531328 61.039394 36.380863 61.189663 C 36.269081 61.292335 36.164285 61.341275 36.044744 61.355339 A 0.26460981 0.26460981 0 0 0 35.818531 61.56256 C 35.767851 61.795688 35.707043 62.01694 35.6366 62.228269 C 35.56173 62.452881 35.49211 62.678075 35.427992 62.902487 C 35.384043 63.056309 35.346544 63.214029 35.308484 63.370986 C 35.236334 63.396725 35.171053 63.441766 35.103611 63.482604 C 35.081881 63.460034 35.06764 63.427905 35.04279 63.408025 C 34.95547 63.338155 34.831139 63.290499 34.70507 63.298909 C 34.552042 63.301809 34.401854 63.344981 34.267582 63.425544 A 0.26460981 0.26460981 0 0 0 34.257979 63.433552 C 34.179079 63.486152 34.094366 63.534947 34.005623 63.580208 C 34.005547 63.580239 34.004122 63.580162 34.004022 63.580208 C 34.001522 63.582308 34.022754 63.60021 33.951204 63.53516 A 0.26460981 0.26460981 0 0 0 33.63856 63.504127 C 33.373138 63.659719 33.131129 63.714203 32.886827 63.689325 C 32.665212 63.657845 32.437406 63.55817 32.20712 63.439559 L 32.20712 63.353467 L 32.20712 62.99008 L 32.20712 62.611176 L 32.20712 62.359408 A 0.26460981 0.26460981 0 0 0 32.202852 62.316362 C 32.187952 62.226983 32.160495 62.124 32.116955 61.982507 C 32.075215 61.846851 32.028144 61.705449 31.976639 61.560558 L 31.97077 61.545041 C 31.92994 61.40374 31.884114 61.267541 31.833655 61.134604 L 31.827786 61.113081 L 31.740289 60.804753 A 0.26460981 0.26460981 0 0 0 31.634651 60.658096 C 31.335945 60.454977 31.023192 60.353243 30.724463 60.431856 C 30.495504 60.492105 30.270187 60.593505 30.050625 60.732175 A 0.26460981 0.26460981 0 0 0 30.044756 60.734177 C 29.86231 60.855807 29.662882 60.979104 29.448812 61.101569 C 29.294617 61.186379 29.114721 61.21921 28.874742 61.183656 A 0.26460981 0.26460981 0 0 0 28.59411 61.524519 A 0.26460981 0.26460981 0 0 0 28.583973 61.550547 L 28.521551 61.740249 C 28.497951 61.801569 28.477867 61.8651 28.464997 61.92945 A 0.26460981 0.26460981 0 0 0 28.460729 61.980505 C 28.460729 62.022825 28.502078 62.03407 28.513548 62.0701 C 28.509048 62.0729 28.50468 62.079593 28.50021 62.082113 C 28.43164 62.121293 28.35608 62.160999 28.275597 62.20124 C 28.199767 62.2341 28.122114 62.27093 28.039247 62.312358 C 27.931594 62.366188 27.834075 62.435583 27.750078 62.519579 A 0.26460981 0.26460981 0 0 0 27.673784 62.742316 C 27.697604 62.917021 27.670437 62.972513 27.607628 63.025618 C 27.482174 63.131771 27.347113 63.22881 27.201084 63.316427 C 27.023315 63.42309 26.864446 63.549226 26.730517 63.695331 C 26.633028 63.802565 26.648042 63.954017 26.638752 64.095757 C 26.601972 64.134357 26.567985 64.170516 26.52938 64.21088 C 26.305807 64.444615 26.095965 64.636282 25.900357 64.782989 A 0.26460981 0.26460981 0 0 0 25.898223 64.784991 C 25.589165 65.021937 25.262796 65.247767 24.921878 65.464715 C 24.57529 65.685271 24.234371 65.901537 23.898583 66.111404 A 0.26460981 0.26460981 0 0 0 23.892714 66.115408 C 23.7073 66.239017 23.478736 66.383736 23.207138 66.550872 C 22.944464 66.702088 22.713854 66.817821 22.521563 66.894738 A 0.26460981 0.26460981 0 0 0 22.511426 66.898242 C 22.433466 66.932892 22.322606 66.972061 22.18331 67.011863 A 0.26460981 0.26460981 0 0 0 22.179575 67.013865 C 22.044692 67.055365 21.903211 67.095379 21.757559 67.136996 C 21.615641 67.167486 21.478346 67.197974 21.34568 67.228594 C 21.237047 67.245504 21.140968 67.261917 21.050643 67.279147 C 20.839633 67.230527 20.628588 67.178443 20.417886 67.120979 C 20.223319 67.067919 20.034379 67.009948 19.847551 66.949296 L 19.650147 66.599924 C 19.909364 66.326873 20.17091 66.056897 20.437626 65.799071 C 20.761702 65.485799 21.064923 65.151349 21.34568 64.795002 A 0.26460981 0.26460981 0 0 0 21.351549 64.786993 C 21.440349 64.664891 21.522439 64.538655 21.599637 64.406588 L 21.601771 64.402584 C 21.679301 64.276959 21.759631 64.161777 21.84559 64.056716 A 0.26460981 0.26460981 0 0 0 21.847724 64.056716 C 22.020256 63.843588 22.212879 63.628815 22.427663 63.414031 C 22.644007 63.197689 22.854575 63.004017 23.058819 62.83041 A 0.26460981 0.26460981 0 0 0 23.121241 62.753828 C 23.193511 62.619606 23.265844 62.490858 23.337851 62.367417 A 0.26460981 0.26460981 0 0 0 23.341586 62.359408 C 23.418816 62.215988 23.486289 62.076906 23.542724 61.941463 A 0.26460981 0.26460981 0 0 0 23.544858 61.933955 C 23.602618 61.783768 23.649299 61.628904 23.683574 61.46896 A 0.26460981 0.26460981 0 0 0 23.683574 61.468459 A 0.26460981 0.26460981 0 0 0 23.683574 61.467959 A 0.26460981 0.26460981 0 0 0 23.683574 61.467458 A 0.26460981 0.26460981 0 0 0 23.683574 61.465957 A 0.26460981 0.26460981 0 0 0 23.683574 61.465456 A 0.26460981 0.26460981 0 0 0 23.683574 61.464956 C 23.710383 61.330902 23.736652 61.203248 23.763602 61.076542 L 24.257643 60.496424 A 0.26460981 0.26460981 0 0 0 24.318465 60.349768 L 24.38889 59.648521 L 24.941618 59.148489 A 0.26460981 0.26460981 0 0 0 25.029116 58.972802 L 25.087803 58.18196 C 25.202147 58.03522 25.310156 57.879486 25.396713 57.697444 L 25.396713 57.695441 C 25.507871 57.472889 25.592901 57.258718 25.650669 57.050755 A 0.26460981 0.26460981 0 0 0 25.658138 56.943641 C 25.639898 56.815997 25.629365 56.66316 25.628795 56.490158 L 25.628795 56.48265 C 25.628792 56.48045 25.628795 56.478944 25.628795 56.476644 L 25.660272 55.902532 C 25.680802 55.697217 25.70006 55.497887 25.72056 55.302894 L 25.722694 55.290881 C 25.72276 55.290253 25.722628 55.289579 25.722694 55.288879 C 25.753444 55.093528 25.780262 54.916263 25.801122 54.759815 A 0.26460981 0.26460981 0 0 0 25.757907 54.578122 L 25.285206 53.867365 A 0.26460981 0.26460981 0 0 0 25.021647 53.753744 L 24.398493 53.857354 L 24.179749 53.638621 A 0.26460981 0.26460981 0 0 0 24.013824 53.56204 z M 23.900183 56.156302 L 23.978611 56.386548 L 23.93753 57.140851 L 23.588073 57.630873 A 0.26460981 0.26460981 0 0 0 23.541123 57.75 L 23.472832 58.271555 L 22.955316 58.875198 A 0.26460981 0.26460981 0 0 0 22.89236 59.025358 L 22.820335 59.943335 C 22.656887 60.141426 22.502548 60.344726 22.365241 60.560493 C 22.286471 60.684277 22.213426 60.81355 22.146497 60.947405 A 0.26460981 0.26460981 0 0 0 22.138494 60.964923 C 22.094274 61.071039 22.037905 61.173143 21.965099 61.273252 A 0.26460981 0.26460981 0 0 0 21.954962 61.287266 C 21.892252 61.385806 21.815325 61.479626 21.72288 61.57207 A 0.26460981 0.26460981 0 0 0 21.712743 61.584083 C 21.605862 61.70284 21.514764 61.828358 21.441181 61.962986 C 21.44093 61.963445 21.441432 61.964488 21.441181 61.964988 C 21.359601 62.09572 21.290505 62.238725 21.234174 62.396448 A 0.26460981 0.26460981 0 0 0 21.228305 62.413966 C 21.190735 62.545449 21.146134 62.657984 21.093858 62.753828 A 0.26460981 0.26460981 0 0 0 21.091724 62.757833 C 20.977978 62.975846 20.841643 63.190226 20.691049 63.400517 C 20.601149 63.462627 20.510359 63.525135 20.412017 63.587716 C 20.294776 63.658566 20.182894 63.740768 20.078032 63.833979 C 19.96676 63.924238 19.867162 64.026327 19.777126 64.136801 C 19.849296 64.003412 19.90497 63.862773 19.94145 63.716854 C 19.97893 63.577332 19.998004 63.428637 19.998004 63.273382 C 19.998004 63.163614 20.014364 63.070712 20.044954 62.986576 C 20.057384 62.960622 20.068773 62.950298 20.046554 62.972561 A 0.26460981 0.26460981 0 0 0 20.080166 62.931518 C 20.112396 62.883168 20.13513 62.83246 20.15806 62.777353 L 20.167664 62.757833 L 20.408282 62.281325 L 20.412017 62.273317 C 20.541368 62.035435 20.685605 61.813021 20.843636 61.605606 C 21.022146 61.371311 21.17714 61.120461 21.310468 60.853805 A 0.26460981 0.26460981 0 0 0 21.314202 60.845796 C 21.432046 60.588684 21.539761 60.324514 21.63645 60.056456 L 21.638584 60.05095 C 21.739863 59.788235 21.850232 59.541052 21.970434 59.310662 A 0.26460981 0.26460981 0 0 0 21.976303 59.298649 C 22.032503 59.176889 22.098525 59.065967 22.172106 58.964793 C 22.258016 58.846673 22.338253 58.72873 22.414325 58.609415 C 22.507145 58.470187 22.583013 58.328643 22.642672 58.185463 A 0.26460981 0.26460981 0 0 0 22.646407 58.179457 C 22.693897 58.055979 22.750081 57.93811 22.8166 57.824078 A 0.26460981 0.26460981 0 0 0 22.818201 57.820074 C 23.023828 57.460229 23.244242 57.117507 23.480302 56.788976 L 23.480302 56.786974 C 23.628991 56.582478 23.762147 56.368011 23.900183 56.156302 z M 103.59876 57.173386 A 0.26460981 0.26460981 0 0 0 103.63984 57.304525 C 103.63669 57.300415 103.6291 57.290898 103.62917 57.291011 C 103.62948 57.291607 103.6005 57.17952 103.59876 57.173386 z M 100.68466 57.183897 A 0.26460981 0.26460981 0 0 0 100.55449 57.265484 L 99.765406 58.179457 A 0.26460981 0.26460981 0 0 0 99.702984 58.322109 C 99.677534 58.538421 99.702362 58.746184 99.793149 58.927754 C 99.868039 59.07754 99.966329 59.220009 100.08605 59.351705 A 0.26460981 0.26460981 0 0 0 100.09406 59.359213 C 100.19627 59.461421 100.3001 59.568993 100.40243 59.681557 A 0.26460981 0.26460981 0 0 0 100.42004 59.699075 C 100.51744 59.787645 100.5933 59.882636 100.65265 59.984379 A 0.26460981 0.26460981 0 0 0 100.93755 60.109512 C 101.06088 60.082102 101.17705 60.035596 101.27367 59.953346 C 101.37027 59.871096 101.43795 59.748165 101.4572 59.622994 C 101.4807 59.47047 101.48704 59.308508 101.47694 59.14048 C 101.47694 58.994402 101.48709 58.854575 101.50629 58.720533 C 101.51229 58.676953 101.51787 58.652588 101.65461 58.599404 A 0.26460981 0.26460981 0 0 0 101.77945 58.204984 C 101.71775 58.112434 101.66096 58.025082 101.60979 57.943205 C 101.56679 57.850355 101.52167 57.760262 101.46894 57.675921 C 101.40284 57.570127 101.32112 57.475542 101.22672 57.394621 C 101.11873 57.302061 100.9876 57.237159 100.83832 57.1874 L 100.83779 57.1874 A 0.26460981 0.26460981 0 0 0 100.68466 57.183897 z M 103.64891 57.317038 A 0.26460981 0.26460981 0 0 0 103.75402 57.406133 C 103.74802 57.403533 103.74178 57.401523 103.73268 57.396623 C 103.72028 57.389923 103.68513 57.36452 103.68573 57.36509 C 103.68615 57.365461 103.6658 57.339123 103.64891 57.317038 z M 64.878938 59.511876 A 0.26460981 0.26460981 0 0 0 64.73222 59.529394 C 64.44332 59.65162 64.174379 59.801625 63.927669 59.980375 C 63.926469 59.981178 63.925134 59.981577 63.923934 59.982377 C 63.923224 59.982893 63.9226 59.983779 63.9218 59.984379 C 63.686432 60.145088 63.457077 60.316116 63.23249 60.497926 A 0.26460981 0.26460981 0 0 0 63.228755 60.50193 C 63.018092 60.680993 62.801077 60.865518 62.579992 61.055019 A 0.26460981 0.26460981 0 0 0 62.576258 61.058523 C 62.375113 61.239553 62.168172 61.411422 61.957372 61.57257 C 61.824292 61.637944 61.708215 61.740704 61.636725 61.869386 A 0.26460981 0.26460981 0 0 0 61.632991 61.878897 C 61.591071 61.962746 61.558082 62.054739 61.533222 62.15419 A 0.26460981 0.26460981 0 0 0 61.527353 62.179717 C 61.520553 62.227357 61.508447 62.26797 61.490007 62.30485 A 0.26460981 0.26460981 0 0 0 61.480404 62.330377 A 0.26460981 0.26460981 0 0 0 61.464931 62.337885 C 61.507421 62.312395 61.479996 62.335947 61.394506 62.320367 A 0.26460981 0.26460981 0 0 0 61.0936 62.654222 L 61.142684 62.818397 L 60.886594 62.941528 A 0.26460981 0.26460981 0 0 0 60.750012 63.095692 C 60.736162 63.137232 60.711402 63.191658 60.675852 63.253861 C 60.631202 63.322711 60.592195 63.395843 60.558478 63.472594 C 60.557834 63.473894 60.557043 63.475298 60.556343 63.476598 C 60.507474 63.575918 60.484318 63.685842 60.484318 63.794937 C 60.484318 63.854307 60.52813 63.892138 60.54674 63.943595 C 60.437588 64.050503 60.323621 64.15111 60.239965 64.284959 A 0.26460981 0.26460981 0 0 0 60.238364 64.288963 C 60.140934 64.451347 60.043633 64.6241 59.947061 64.806514 A 0.26460981 0.26460981 0 0 0 59.943327 64.812521 C 59.858197 64.982787 59.774344 65.159514 59.68937 65.340082 C 59.6108 65.496665 59.521651 65.648105 59.423676 65.795067 A 0.26460981 0.26460981 0 0 0 59.437548 66.105397 C 59.537378 66.230177 59.530914 66.281082 59.530914 66.281085 C 59.507754 66.356304 59.46813 66.441339 59.40607 66.538859 L 59.421542 66.517837 C 59.329782 66.632532 59.252515 66.758001 59.183591 66.892736 C 59.063489 67.085857 59.063481 67.330508 59.144644 67.546933 A 0.26460981 0.26460981 0 0 0 59.246014 67.67557 C 59.304513 67.71457 59.388347 67.793603 59.482364 67.915825 C 59.589685 68.055341 59.697292 68.189471 59.804611 68.318254 A 0.26460981 0.26460981 0 0 0 59.820083 68.335773 C 59.94961 68.465299 60.090994 68.569426 60.242099 68.646604 C 60.369863 68.719494 60.521152 68.681914 60.66785 68.666124 C 60.751339 68.755494 60.832772 68.850113 60.949016 68.888862 C 61.073911 68.930492 61.205936 68.942845 61.335819 68.929905 C 61.460393 68.928005 61.584897 68.913519 61.70715 68.876849 C 61.80491 68.857149 61.89904 68.838126 61.988316 68.818286 A 0.26460981 0.26460981 0 0 0 61.995786 68.816284 C 62.054856 68.801514 62.099012 68.805402 62.177717 68.851322 A 0.26460981 0.26460981 0 0 0 62.568255 68.683643 C 62.601525 68.542252 62.647961 68.479269 62.675493 68.456902 C 62.755133 68.402312 62.833759 68.364233 62.916111 68.341779 L 63.263434 68.246177 A 0.26460981 0.26460981 0 0 0 63.285308 68.240171 C 63.438282 68.184541 63.572171 68.089403 63.681715 67.968882 C 63.751005 67.899002 63.812778 67.819558 63.857244 67.730628 C 63.876014 67.693088 63.900198 67.660364 63.933538 67.627018 C 64.076416 67.484139 64.217692 67.351963 64.359288 67.230596 C 64.478794 67.128163 64.569544 66.991787 64.663929 66.861202 C 64.688359 66.879732 64.713058 66.900281 64.736488 66.925771 C 64.805478 67.273899 64.898905 67.585682 65.056601 67.822226 A 0.26460981 0.26460981 0 0 0 65.060336 67.828232 C 65.226023 68.064928 65.429311 68.2627 65.668017 68.41786 C 65.897193 68.566825 66.151568 68.691987 66.431487 68.792759 C 66.694993 68.894262 66.969578 69.015048 67.255779 69.158148 A 0.26460981 0.26460981 0 0 0 67.546548 69.123111 L 67.616973 69.060544 C 67.713553 69.091354 67.841475 69.107613 67.96643 69.031013 C 68.04567 68.985813 68.116717 68.919704 68.157964 68.839809 C 68.158791 68.839927 68.159199 68.841612 68.160099 68.841812 C 68.196808 68.846812 68.226745 68.872277 68.261468 68.865337 L 68.210783 68.871343 L 68.400183 68.871343 L 68.458871 68.871343 C 68.481881 68.875643 68.501011 68.88686 68.525561 68.88686 C 68.667037 68.88686 68.766571 68.833174 68.871283 68.767733 C 68.967433 68.713533 69.062766 68.64925 69.156184 68.578031 L 69.167922 68.568521 C 69.281858 68.495051 69.395219 68.406353 69.505641 68.308744 C 69.687905 68.190808 69.830072 68.094051 69.93566 68.011928 A 0.26460981 0.26460981 0 0 0 69.93726 68.009926 C 70.00013 67.959626 70.047467 67.900653 70.101585 67.845751 C 70.231292 68.144304 70.360643 68.444745 70.495858 68.722685 A 0.26460981 0.26460981 0 0 0 70.497992 68.726689 L 70.513464 68.757722 A 0.26460981 0.26460981 0 0 0 70.749814 68.902376 L 71.212911 68.902376 C 71.517925 69.100797 71.832367 69.19773 72.131102 69.1131 C 72.39249 69.041591 72.640502 68.922635 72.873232 68.759724 C 73.084348 68.611942 73.302147 68.458913 73.523595 68.300735 A 0.26460981 0.26460981 0 0 0 73.525195 68.300735 C 73.710174 68.166205 73.920887 68.097519 74.18943 68.097519 A 0.26460981 0.26460981 0 0 0 74.427915 67.951363 L 74.443387 67.917828 A 0.26460981 0.26460981 0 0 0 74.449255 67.904313 C 74.567263 67.619129 74.696722 67.389994 74.833925 67.215079 L 74.836059 67.213077 C 74.836818 67.212112 74.837393 67.210073 74.838193 67.209073 C 74.995809 67.022506 75.161119 66.856751 75.335969 66.711042 C 75.523317 66.55492 75.716155 66.39848 75.914307 66.242043 A 0.26460981 0.26460981 0 0 0 75.92231 66.238039 C 76.02686 66.149999 76.122038 66.030676 76.222682 65.927708 C 76.257402 66.032707 76.303732 66.135147 76.330454 66.242043 A 0.26460981 0.26460981 0 0 0 76.334189 66.254056 C 76.408898 66.49954 76.489098 66.745462 76.574273 66.99034 C 76.656983 67.226651 76.771683 67.435982 76.92213 67.611501 A 0.26460981 0.26460981 0 0 0 76.929599 67.619009 C 77.066635 67.766586 77.208646 67.920244 77.355883 68.077998 A 0.26460981 0.26460981 0 0 0 77.363352 68.084005 C 77.476059 68.196712 77.576766 68.302983 77.667993 68.404346 C 77.747873 68.493106 77.828084 68.604747 77.904344 68.738201 A 0.26460981 0.26460981 0 0 0 77.943291 68.791258 L 77.959296 68.806774 A 0.26460981 0.26460981 0 0 0 77.960897 68.810778 C 78.105244 68.955125 78.295501 69.046543 78.507757 69.097584 C 78.687761 69.149684 78.862504 69.160656 79.031676 69.146636 C 79.209248 69.269801 79.398375 69.379887 79.619083 69.390396 C 79.853526 69.401056 80.067548 69.408415 80.261977 69.408415 A 0.26460981 0.26460981 0 0 0 80.431637 69.33784 L 80.383087 69.370875 C 80.815793 69.186975 81.245419 68.965403 81.67581 68.707168 C 82.106649 68.448664 82.518406 68.162504 82.906646 67.849755 C 83.306575 67.525488 83.668831 67.179736 83.994497 66.810649 C 84.333325 66.428102 84.614886 66.027219 84.835861 65.607367 A 0.26460981 0.26460981 0 0 0 84.837995 65.601361 C 84.882965 65.511421 84.917494 65.410189 84.951635 65.285024 A 0.26460981 0.26460981 0 0 0 84.953236 65.279017 C 84.981856 65.164531 85.015584 65.057066 85.053004 64.95317 C 85.096284 64.860031 85.13941 64.78728 85.179983 64.739943 C 85.201263 64.715063 85.195081 64.716313 85.240271 64.720423 A 0.26460981 0.26460981 0 0 0 85.52944 64.457142 C 85.52944 64.303852 85.551016 64.166159 85.593996 64.037195 C 85.655166 63.874292 85.716405 63.714992 85.777527 63.562189 A 0.26460981 0.26460981 0 0 0 85.779661 63.556683 C 85.843861 63.385474 85.901532 63.219629 85.95519 63.058653 A 0.26460981 0.26460981 0 0 0 85.957324 63.054649 C 86.018864 62.857723 86.045418 62.651478 86.033618 62.442997 L 86.033618 62.439494 C 86.023618 62.217344 86.023568 61.999803 86.033618 61.788801 L 86.031484 61.800813 C 86.054624 61.557842 86.045491 61.334932 85.994671 61.1306 L 85.994671 61.128598 C 85.940271 60.899123 85.802146 60.701324 85.613736 60.562495 C 85.39839 60.384517 85.111142 60.327745 84.757967 60.327745 A 0.26460981 0.26460981 0 0 0 84.496008 60.625061 C 84.497408 60.636351 84.508793 60.610483 84.492273 60.627063 A 0.26460981 0.26460981 0 0 0 84.476801 60.644582 C 84.430551 60.700082 84.371973 60.763183 84.302873 60.832282 A 0.26460981 0.26460981 0 0 0 84.289001 60.845796 C 84.212451 60.935106 84.147875 61.032589 84.095866 61.136606 A 0.26460981 0.26460981 0 0 0 84.085729 61.162133 C 84.034068 61.299891 84.055653 61.44023 84.099601 61.575574 L 84.099601 61.586085 A 0.26460981 0.26460981 0 0 0 84.105469 61.599599 L 84.102802 61.585584 C 84.107181 61.5987 84.110308 61.612121 84.115073 61.625126 A 0.26460981 0.26460981 0 0 0 84.177495 61.773284 L 84.193501 61.789301 A 0.26460981 0.26460981 0 0 0 84.211107 61.80682 C 84.315765 61.89404 84.357841 61.964149 84.365295 61.986511 C 84.384705 62.044741 84.391641 62.104326 84.384501 62.175713 C 84.374901 62.261483 84.36113 62.352957 84.34182 62.449504 A 0.26460981 0.26460981 0 0 0 84.338085 62.474531 C 84.328185 62.573451 84.348345 62.674781 84.365295 62.775351 C 84.301235 62.877864 84.237164 62.982171 84.183364 63.107705 A 0.26460981 0.26460981 0 0 0 84.179629 63.117215 C 84.130299 63.24549 84.072012 63.379552 84.001966 63.519644 A 0.26460981 0.26460981 0 0 0 83.998232 63.527652 C 83.941932 63.649636 83.87633 63.760627 83.802962 63.861508 C 83.747233 63.938148 83.691792 63.977327 83.617297 64.002158 A 0.26460981 0.26460981 0 0 0 83.455106 64.35153 C 83.502846 64.47088 83.481833 64.494225 83.494053 64.474661 A 0.26460981 0.26460981 0 0 0 83.488185 64.484672 C 83.467675 64.520561 83.430699 64.563184 83.369209 64.609304 A 0.26460981 0.26460981 0 0 0 83.355338 64.619315 C 83.270838 64.691745 83.188163 64.775107 83.10725 64.867579 C 83.01156 64.976945 82.998562 65.124966 82.978671 65.269507 C 82.739717 65.425891 82.521131 65.606166 82.362987 65.838113 C 82.206201 66.068065 82.048926 66.294725 81.89242 66.513832 A 0.26460981 0.26460981 0 0 0 81.888686 66.519839 C 81.756069 66.718765 81.601657 66.887114 81.423988 67.027379 C 81.280821 67.140406 81.078361 67.207071 80.783228 67.207071 L 80.342006 67.207071 L 79.675637 67.207071 C 79.467502 67.197171 79.259939 67.172812 79.050882 67.132992 C 78.855322 67.095742 78.6693 67.03095 78.492285 66.937784 C 78.336351 66.855712 78.202362 66.741369 78.082006 66.593417 C 78.05449 66.50719 78.015056 66.425134 77.957162 66.355664 L 77.974769 66.377187 L 77.869131 66.217016 A 0.26460981 0.26460981 0 0 0 77.960897 65.843619 C 77.886597 65.728038 77.855359 65.627788 77.84779 65.531286 C 77.84889 65.408282 77.860077 65.284822 77.886737 65.160391 A 0.26460981 0.26460981 0 0 0 77.888872 65.156387 L 77.982238 64.683383 C 78.010898 64.540082 77.996568 64.39437 77.982238 64.249922 C 78.079738 64.089161 78.182041 63.946957 78.289013 63.839985 C 78.379383 63.749625 78.455199 63.663232 78.517894 63.576204 L 78.521629 63.570198 C 78.582429 63.488758 78.642233 63.397488 78.701425 63.300911 C 78.708325 63.289601 78.715856 63.280897 78.722766 63.269377 L 78.707294 63.288898 A 0.26460981 0.26460981 0 0 0 78.773451 63.160261 C 78.793281 63.041273 78.817691 62.922544 78.84761 62.802881 A 0.26460981 0.26460981 0 0 0 78.84761 62.800378 A 0.26460981 0.26460981 0 0 0 78.84761 62.797875 A 0.26460981 0.26460981 0 0 0 78.84761 62.796874 C 78.88281 62.64433 78.902563 62.499387 78.902563 62.359408 C 78.902563 62.206726 78.87706 62.056384 78.82627 61.913934 L 78.82627 61.911932 C 78.76866 61.740042 78.663209 61.584782 78.525363 61.446937 L 78.494419 61.415903 A 0.26460981 0.26460981 0 0 0 78.060666 61.503997 C 78.079106 61.457897 78.029553 61.546763 77.924084 61.642645 C 77.811119 61.745339 77.687436 61.854529 77.552753 61.968492 A 0.26460981 0.26460981 0 0 0 77.54475 61.974498 C 77.421551 62.087431 77.296879 62.196404 77.173952 62.298844 C 77.052865 62.389914 76.966962 62.457141 76.904524 62.519579 A 0.26460981 0.26460981 0 0 0 76.82823 62.706778 C 76.82823 62.773838 76.83674 62.809806 76.84797 62.876959 A 0.26460981 0.26460981 0 0 0 76.857574 62.916001 C 76.872994 62.962261 76.87518 62.9918 76.87518 62.99008 C 76.87518 63.01892 76.870736 63.039349 76.845836 63.074169 A 0.26460981 0.26460981 0 0 0 76.839967 63.080176 C 76.805507 63.131866 76.758994 63.192499 76.701252 63.259867 A 0.26460981 0.26460981 0 0 0 76.699118 63.263371 C 76.651678 63.320301 76.598055 63.382633 76.541195 63.449069 C 76.479105 63.511159 76.44121 63.590803 76.400345 63.667802 C 76.209037 63.728402 76.01985 63.799073 75.880695 63.937589 C 75.880069 63.938212 75.879794 63.938891 75.879094 63.939591 C 75.729454 64.078904 75.593803 64.238629 75.470416 64.418101 C 75.360494 64.567656 75.240124 64.716039 75.109222 64.867079 C 75.001273 64.991636 74.865086 65.088091 74.68934 65.158389 L 74.750162 65.146376 A 0.26460981 0.26460981 0 0 0 74.497806 65.398645 L 74.504208 65.361105 C 74.461188 65.507378 74.378324 65.68058 74.251852 65.875152 A 0.26460981 0.26460981 0 0 0 74.245984 65.88266 C 74.131226 66.073923 73.992468 66.251997 73.828236 66.416228 C 73.6622 66.582264 73.481992 66.72911 73.287245 66.855696 A 0.26460981 0.26460981 0 0 0 73.282976 66.857699 C 73.1048 66.979609 72.940269 67.052787 72.791069 67.085942 L 72.796938 67.085942 C 72.734438 67.098442 72.687775 67.104248 72.619275 67.138498 C 72.615975 67.140198 72.579959 67.155845 72.534979 67.174035 A 0.26460981 0.26460981 0 0 0 72.287424 67.132992 L 72.178052 67.179541 A 0.26460981 0.26460981 0 0 0 72.028666 67.381256 C 72.026527 67.381514 72.022325 67.383399 72.013728 67.388764 A 0.26460981 0.26460981 0 0 0 71.999856 67.398274 C 71.972746 67.417644 71.926855 67.435942 71.845668 67.443322 A 0.26460981 0.26460981 0 0 0 71.843534 67.443322 C 71.787804 67.448922 71.713377 67.438187 71.62319 67.410287 C 71.57262 67.385097 71.520544 67.335199 71.466868 67.255622 C 71.451078 67.173822 71.433277 67.09243 71.400177 66.976325 L 71.398577 66.972821 L 71.275333 66.509828 L 71.273199 66.503822 C 71.244529 66.349741 71.222244 66.20795 71.202774 66.081872 C 71.201174 65.977674 71.224976 65.904513 71.196906 65.951233 A 0.26460981 0.26460981 0 0 0 71.148355 65.630892 C 71.111915 65.575032 71.10481 65.548213 71.10514 65.546803 C 71.128 65.483723 71.159258 65.418683 71.204908 65.349593 C 71.20581 65.348193 71.206042 65.346988 71.207042 65.345588 C 71.273352 65.260928 71.339873 65.180958 71.406046 65.105332 A 0.26460981 0.26460981 0 0 0 71.41565 65.09382 C 71.504329 64.979798 71.574587 64.858639 71.617321 64.730433 A 0.26460981 0.26460981 0 0 0 71.550631 64.461146 C 71.615551 64.403597 71.68063 64.344357 71.720824 64.26744 C 71.777054 64.164323 71.78233 64.018313 71.73843 63.918068 C 71.73473 63.909568 71.726465 63.906587 71.722425 63.898547 C 71.803145 63.806277 71.887851 63.713888 71.960909 63.621252 L 71.968378 63.611241 C 72.093894 63.464553 72.214481 63.316931 72.330106 63.169771 A 0.26460981 0.26460981 0 0 0 72.382925 63.015607 L 72.376523 63.060655 C 72.396043 62.989095 72.428692 62.934197 72.478425 62.882966 C 72.569945 62.801426 72.656884 62.719201 72.739851 62.636704 L 72.744119 62.632699 C 72.850095 62.537939 72.941951 62.434235 73.017282 62.322369 L 73.017282 62.320367 C 73.123332 62.168109 73.175738 61.981504 73.175738 61.790803 A 0.26460981 0.26460981 0 0 0 73.109048 61.626628 L 73.138392 61.671676 C 73.120772 61.630556 73.10426 61.565915 73.09571 61.480472 C 73.08511 61.374488 73.074872 61.275423 73.064232 61.179652 C 73.061121 61.064562 73.041522 60.951425 73.007679 60.843794 C 72.975599 60.707217 72.906218 60.575477 72.796938 60.484412 C 72.695443 60.399832 72.558984 60.343762 72.421872 60.343762 C 72.344832 60.334462 72.267308 60.328245 72.185522 60.328245 A 0.26460981 0.26460981 0 0 0 71.978515 60.427851 C 71.969815 60.438671 71.927971 60.476989 71.851537 60.519449 L 71.872878 60.509438 C 71.763315 60.558128 71.656575 60.616497 71.550631 60.687127 C 71.437256 60.762707 71.335068 60.853108 71.24599 60.954913 A 0.26460981 0.26460981 0 0 0 71.243855 60.956915 C 71.150296 61.066074 71.122515 61.21085 71.109408 61.353337 L 70.970692 61.353337 C 70.899662 61.353337 70.834168 61.358668 70.761552 61.382868 A 0.26460981 0.26460981 0 0 0 70.580154 61.634636 L 70.580154 62.068098 C 70.551934 62.099008 70.530653 62.121702 70.492123 62.165702 A 0.26460981 0.26460981 0 0 0 70.234432 62.390441 C 70.234432 62.308901 70.27551 62.255479 70.29472 62.236277 A 0.26460981 0.26460981 0 0 0 70.269111 62.265308 C 70.148744 62.429446 70.03835 62.594907 69.939394 62.759835 A 0.26460981 0.26460981 0 0 0 69.933526 62.771347 C 69.844996 62.937345 69.762187 63.114521 69.685438 63.300911 A 0.26460981 0.26460981 0 0 0 69.683304 63.304415 C 69.504527 63.76253 69.407709 64.236662 69.396269 64.718921 C 69.385249 65.181542 69.430503 65.649751 69.529116 66.120914 A 0.26460981 0.26460981 0 0 0 69.529116 66.122916 C 69.576816 66.345504 69.640944 66.564473 69.706779 66.783119 L 69.054281 67.175537 C 68.907777 67.205887 68.761182 67.238212 68.615193 67.277145 A 0.26460981 0.26460981 0 0 0 68.605056 67.28115 C 68.458343 67.32629 68.309158 67.382931 68.15423 67.449329 C 68.08376 67.479529 68.025613 67.521311 67.960561 67.556443 L 67.884268 67.429808 A 0.26460981 0.26460981 0 0 0 67.700736 67.304675 C 67.617416 67.290785 67.532404 67.293022 67.44678 67.302672 C 67.36783 67.303672 67.302523 67.356198 67.23017 67.392268 C 67.13411 67.352958 67.054585 67.269964 66.958607 67.289158 C 66.893837 67.302118 66.851142 67.299142 66.814023 67.292662 C 66.744353 67.245812 66.678898 67.202157 66.620888 67.171533 L 66.617153 67.169531 C 66.573923 67.140421 66.543865 67.113216 66.518985 67.089946 C 66.504865 67.069626 66.488414 67.041918 66.470434 67.007859 C 66.452174 66.941989 66.430324 66.854191 66.402144 66.732065 A 0.26460981 0.26460981 0 0 0 66.204741 66.534855 C 66.063471 66.501615 66.022325 66.45568 66.027078 66.46478 C 66.005378 66.41671 65.987248 66.363897 65.980128 66.296601 C 65.979974 66.295101 65.980274 66.294097 65.980128 66.292597 C 65.979466 66.194117 65.975226 66.092097 65.966256 65.986271 C 65.965962 65.880992 65.89693 65.792568 65.85315 65.696963 C 65.89268 65.651933 65.952657 65.62771 65.976393 65.57233 C 66.022063 65.465763 66.044684 65.348004 66.044684 65.230466 C 66.044684 65.134826 66.038858 65.039689 66.027078 64.945162 C 66.024173 64.921982 66.024127 64.901919 66.024944 64.882595 C 66.282506 64.677318 66.458571 64.423888 66.497644 64.130795 C 66.542634 63.866463 66.551354 63.595192 66.517384 63.321933 C 66.485674 63.047133 66.45306 62.789718 66.42135 62.546608 C 66.39746 62.355518 66.438355 62.169279 66.5622 61.95698 A 0.26460981 0.26460981 0 0 0 66.445359 61.584083 C 66.300207 61.515777 66.22294 61.442643 66.1834 61.37486 C 66.12377 61.272642 66.069269 61.140867 66.021742 60.98044 C 66.021257 60.97884 66.020108 60.978035 66.019608 60.976435 L 65.929443 60.584018 L 65.927843 60.580013 C 65.892793 60.418157 65.839898 60.269364 65.767253 60.133037 C 65.694723 59.975403 65.578028 59.840425 65.433268 59.734613 C 65.281048 59.615227 65.094568 59.547813 64.878938 59.511876 z M 64.624982 61.427416 L 64.624982 61.427916 L 64.777569 61.460951 C 64.759239 61.578165 64.752996 61.697446 64.702876 61.808822 C 64.609736 62.015791 64.511971 62.224286 64.408372 62.431485 A 0.26460981 0.26460981 0 0 0 64.406238 62.435489 C 64.305308 62.648563 64.221398 62.872768 64.154416 63.107205 A 0.26460981 0.26460981 0 0 0 64.150147 63.119217 C 64.095227 63.349873 64.134527 63.590957 64.197097 63.829974 C 64.167917 63.916944 64.142071 64.004774 64.130941 64.093755 A 0.26460981 0.26460981 0 0 0 64.128807 64.12679 C 64.128807 64.21228 64.134633 64.302366 64.146413 64.396578 C 64.157423 64.545675 64.174007 64.690373 64.195497 64.830039 A 0.26460981 0.26460981 0 0 0 64.195497 64.832041 C 64.212027 64.931191 64.210727 65.021594 64.195497 65.105332 C 64.183347 65.172132 64.155533 65.22795 64.099463 65.29103 A 0.26460981 0.26460981 0 0 0 64.099463 65.293032 C 64.081683 65.313352 63.99479 65.372996 63.832168 65.418166 A 0.26460981 0.26460981 0 0 0 63.689184 65.756025 C 63.58031 65.853375 63.470548 65.946349 63.363203 66.06085 C 63.211389 66.222785 63.054345 66.372338 62.892636 66.513832 C 62.744739 66.643242 62.585506 66.743573 62.411933 66.816655 C 62.26534 66.878375 62.106609 66.89281 61.908288 66.84969 A 0.26460981 0.26460981 0 0 0 61.753567 66.863204 C 61.675517 66.894424 61.603775 66.937857 61.536957 66.99034 L 61.409979 67.085942 C 61.309636 67.158682 61.19822 67.227756 61.078128 67.293162 C 61.073228 67.295462 61.066836 67.285356 61.062656 67.287156 C 61.064856 67.254746 61.091121 67.227638 61.087731 67.195558 C 61.085031 67.086944 61.066663 66.977802 61.027443 66.873215 C 60.991743 66.778005 60.945217 66.686307 60.890328 66.59592 L 60.882859 66.581905 C 60.842369 66.501965 60.801051 66.42794 60.757481 66.36117 C 60.725131 66.30455 60.705645 66.256815 60.691325 66.217016 C 60.715355 66.203286 60.798709 66.17287 60.927675 66.15445 A 0.26460981 0.26460981 0 0 0 61.142684 65.97676 C 61.185194 65.849236 61.225638 65.712463 61.267528 65.566323 L 61.271263 65.556813 C 61.320283 65.409989 61.368957 65.268442 61.417981 65.13086 L 61.420116 65.128858 C 61.477015 64.996486 61.541217 64.872717 61.615385 64.761466 C 61.682855 64.660257 61.760846 64.580644 61.849601 64.515705 C 61.850323 64.515177 61.850935 64.514302 61.851735 64.513702 C 61.876635 64.499212 61.901766 64.485939 61.921626 64.472659 C 61.929726 64.467259 61.944238 64.453799 61.955238 64.445129 C 62.002288 64.427489 62.05668 64.42512 62.097688 64.39858 C 62.326294 64.2696 62.505371 64.080544 62.601333 63.847493 A 0.26460981 0.26460981 0 0 0 62.603467 63.843489 C 62.678557 63.650408 62.750177 63.457064 62.814742 63.263371 C 62.872332 63.090587 62.941619 62.934644 63.025483 62.794872 C 63.074153 62.713762 63.157252 62.652683 63.349864 62.619185 A 0.26460981 0.26460981 0 0 0 63.566474 62.396448 C 63.580914 62.295364 63.61358 62.225007 63.673712 62.158194 A 0.26460981 0.26460981 0 0 0 63.683849 62.148183 C 63.764299 62.049853 63.858399 61.959658 63.96875 61.876894 C 64.098529 61.787284 64.228355 61.702714 64.357687 61.623124 C 64.460151 61.560074 64.541043 61.493218 64.624982 61.427416 z M 91.869281 61.427416 L 91.869281 61.427916 L 92.021335 61.460951 C 92.003005 61.578166 91.997295 61.697446 91.947175 61.808822 C 91.854035 62.015791 91.755737 62.224286 91.652138 62.431485 A 0.26460981 0.26460981 0 0 0 91.650537 62.435489 C 91.549443 62.64891 91.465055 62.873146 91.398181 63.107205 A 0.26460981 0.26460981 0 0 0 91.394447 63.119217 C 91.339917 63.34824 91.377762 63.588079 91.439262 63.82597 C 91.409432 63.91409 91.38651 64.003553 91.37524 64.093755 A 0.26460981 0.26460981 0 0 0 91.373106 64.12679 C 91.373106 64.21356 91.379032 64.30346 91.390712 64.396578 C 91.401652 64.545094 91.416082 64.68973 91.437662 64.830039 A 0.26460981 0.26460981 0 0 0 91.439262 64.832041 C 91.455792 64.931191 91.454492 65.021595 91.439262 65.105332 C 91.426972 65.172912 91.399462 65.228366 91.343762 65.29103 A 0.26460981 0.26460981 0 0 0 91.343762 65.293032 C 91.326402 65.312872 91.238678 65.372956 91.075934 65.418166 A 0.26460981 0.26460981 0 0 0 90.931349 65.758028 C 90.823159 65.854877 90.714183 65.947056 90.607502 66.06085 C 90.455687 66.222785 90.298644 66.372338 90.136935 66.513832 C 89.989036 66.643243 89.829804 66.743573 89.656232 66.816655 C 89.509483 66.878445 89.350455 66.89282 89.152054 66.84969 A 0.26460981 0.26460981 0 0 0 88.997866 66.863204 C 88.920366 66.894204 88.84871 66.937397 88.781256 66.99034 L 88.654278 67.085942 C 88.553323 67.159222 88.442737 67.227617 88.322427 67.293162 C 88.317527 67.295462 88.310601 67.285356 88.306421 67.287156 C 88.308721 67.254686 88.33543 67.227828 88.33203 67.195558 C 88.32923 67.086065 88.310109 66.976948 88.271209 66.873215 C 88.235509 66.778005 88.189515 66.686307 88.134627 66.59592 L 88.127158 66.581905 C 88.086668 66.501965 88.04535 66.427943 88.00178 66.36117 C 87.96943 66.30455 87.949944 66.256814 87.935624 66.217016 C 87.959654 66.203286 88.043008 66.17287 88.171974 66.15445 A 0.26460981 0.26460981 0 0 0 88.384849 65.97676 C 88.427359 65.84923 88.469944 65.712465 88.511827 65.566323 L 88.515562 65.556813 C 88.564582 65.409989 88.613257 65.268442 88.662281 65.13086 L 88.663881 65.128858 C 88.720781 64.996487 88.784982 64.872717 88.85915 64.761466 C 88.92717 64.659433 89.005831 64.578916 89.0955 64.513702 C 89.12021 64.499322 89.144575 64.485869 89.164325 64.472659 C 89.171925 64.467559 89.185489 64.454592 89.195269 64.447132 C 89.243919 64.429382 89.299556 64.42604 89.341988 64.39858 C 89.570592 64.2696 89.74967 64.080544 89.845632 63.847493 A 0.26460981 0.26460981 0 0 0 89.847766 63.843489 C 89.923006 63.650006 89.994084 63.457141 90.058508 63.263871 C 90.115957 63.091513 90.185692 62.935021 90.269782 62.794872 C 90.318682 62.713382 90.40108 62.652672 90.59363 62.619185 A 0.26460981 0.26460981 0 0 0 90.810773 62.396448 C 90.825213 62.295366 90.857879 62.225008 90.918011 62.158194 A 0.26460981 0.26460981 0 0 0 90.926014 62.148183 C 91.004484 62.052273 91.096041 61.96398 91.202912 61.882901 L 91.209314 61.878897 C 91.210087 61.878316 91.210115 61.877494 91.210915 61.876894 C 91.341154 61.786934 91.471665 61.702994 91.601453 61.623124 C 91.703918 61.560074 91.785342 61.493218 91.869281 61.427416 z M 48.99599 61.472464 A 0.26460981 0.26460981 0 0 0 49.01573 61.472464 C 49.05495 61.469664 49.164319 61.518421 49.247812 61.545041 C 49.247334 61.546001 49.248294 61.546032 49.247812 61.547043 A 0.26460981 0.26460981 0 0 0 49.244077 61.556553 C 49.189597 61.676417 49.149692 61.769691 49.122968 61.849866 C 49.013447 62.136896 48.879614 62.413572 48.720692 62.681752 C 48.585226 62.910349 48.400522 63.051669 48.119413 63.13073 A 0.26460981 0.26460981 0 0 0 47.955088 63.267876 C 47.882288 63.413477 47.778159 63.524856 47.626972 63.617248 C 47.444469 63.728778 47.251082 63.835565 47.047034 63.937589 C 46.84219 64.034809 46.637517 64.141807 46.433484 64.259932 A 0.26460981 0.26460981 0 0 0 46.429749 64.263936 C 46.331839 64.323766 46.270374 64.416267 46.18753 64.490177 C 46.20901 64.442877 46.241935 64.400042 46.259555 64.35153 L 46.263824 64.34202 C 46.322004 64.19703 46.380016 64.06127 46.437752 63.935587 C 46.501812 63.816615 46.575686 63.709126 46.656496 63.609239 C 46.727576 63.532059 46.826291 63.465013 46.97074 63.414031 A 0.26460981 0.26460981 0 0 0 47.146269 63.181784 C 47.156069 63.024238 47.170154 62.87212 47.189484 62.724797 L 47.191618 62.716789 C 47.191866 62.714889 47.191369 62.712682 47.191618 62.710782 L 47.244437 62.429483 C 47.381181 62.439953 47.523445 62.480049 47.648313 62.435489 C 47.824425 62.372589 47.982594 62.281494 48.115145 62.162198 A 0.26460981 0.26460981 0 0 0 48.117279 62.160196 C 48.241963 62.046848 48.355955 61.927083 48.459266 61.800813 C 48.549426 61.693047 48.640873 61.61244 48.728695 61.556553 A 0.26460981 0.26460981 0 0 0 48.73243 61.554551 C 48.819 61.496841 48.89907 61.472464 48.99599 61.472464 z M 30.759675 61.937459 C 30.776725 61.968369 30.826284 62.003361 30.832234 62.033061 A 0.26460981 0.26460981 0 0 0 30.835969 62.049078 C 30.867429 62.167045 30.871232 62.293898 30.845572 62.439494 L 30.847706 62.437491 C 30.817986 62.596027 30.776951 62.760328 30.726597 62.931518 C 30.682477 63.081524 30.669696 63.225568 30.658306 63.368983 C 30.618706 63.379233 30.574411 63.385182 30.525459 63.386502 C 30.475979 63.378702 30.425807 63.369389 30.375006 63.355469 C 30.340066 63.339489 30.318636 63.325545 30.300846 63.314425 C 30.276136 63.217895 30.290168 63.110485 30.220818 63.041134 C 30.157278 62.968294 30.089216 62.899991 30.015946 62.835916 L 30.004208 62.822401 C 30.003505 62.821796 30.002874 62.820999 30.002074 62.820399 C 29.957484 62.774719 29.921885 62.730429 29.888434 62.687257 C 29.987424 62.669497 30.096878 62.692637 30.177603 62.630697 C 30.303515 62.541017 30.41537 62.433136 30.504118 62.306352 A 0.26460981 0.26460981 0 0 0 30.509987 62.296842 C 30.581667 62.184201 30.653238 62.076249 30.724463 61.974498 A 0.26460981 0.26460981 0 0 0 30.730332 61.964488 C 30.738332 61.951878 30.751255 61.948849 30.759675 61.937459 z M 70.52947 62.162198 C 70.585649 62.148228 70.656824 62.178255 70.668185 62.187725 A 0.26460981 0.26460981 0 0 0 70.515598 62.168205 C 70.524098 62.164205 70.515426 62.165698 70.52947 62.162198 z M 115.5998 62.669739 C 115.6155 62.668039 115.61771 62.669849 115.61741 62.669739 C 115.67761 62.692319 115.75036 62.731008 115.83189 62.785362 A 0.26460981 0.26460981 0 0 0 115.84202 62.790868 C 115.90552 62.828948 115.97022 62.861632 116.03729 62.888472 A 0.26460981 0.26460981 0 0 0 116.03943 62.888472 C 116.03643 63.113252 116.03022 63.342674 116.01382 63.621252 A 0.26460981 0.26460981 0 0 0 116.01382 63.62876 C 116.00372 63.97067 115.9633 64.313283 115.89271 64.656354 C 115.82361 64.992063 115.71647 65.299563 115.57046 65.58184 A 0.26460981 0.26460981 0 0 0 115.56673 65.589848 C 115.45756 65.815972 115.30211 65.960219 115.12924 66.085877 A 0.26460981 0.26460981 0 0 0 114.81073 66.159956 C 114.69972 66.330737 114.56473 66.443311 114.39084 66.517837 C 114.24746 66.579287 114.10985 66.634654 113.97096 66.691522 C 113.96596 66.685822 113.96683 66.677521 113.96083 66.672001 C 113.87253 66.583771 113.74995 66.540947 113.63644 66.531351 C 113.48983 66.508961 113.34236 66.507623 113.20109 66.533353 L 113.20536 66.531351 C 113.16296 66.538451 113.12143 66.539961 113.07838 66.540861 C 113.04928 66.487411 113.02775 66.429729 112.97648 66.392703 C 112.86274 66.307174 112.71532 66.276926 112.58594 66.293097 C 112.51054 66.302497 112.4283 66.312638 112.34372 66.322128 C 112.30722 66.321657 112.26791 66.311885 112.22848 66.300605 C 112.30158 66.224275 112.38971 66.159056 112.41628 66.052841 C 112.44298 65.946127 112.45683 65.835114 112.45683 65.720988 L 112.45683 65.453203 A 0.26460981 0.26460981 0 0 0 112.63876 65.457207 C 113.14843 64.990013 113.63292 64.512579 114.08994 64.023681 C 114.54275 63.539999 115.02963 63.096602 115.55446 62.695266 L 115.41787 62.742316 A 0.26460981 0.26460981 0 0 0 115.52831 62.681251 L 115.51924 62.695266 C 115.55754 62.677846 115.5857 62.671219 115.5998 62.669739 z M 28.806451 64.031189 C 28.937726 64.057329 29.064551 64.086055 29.152174 64.150315 A 0.26460981 0.26460981 0 0 0 29.168179 64.162328 C 29.325634 64.260738 29.472494 64.366822 29.609402 64.484171 A 0.26460981 0.26460981 0 0 0 29.617405 64.490177 C 29.778469 64.619028 29.934164 64.737217 30.085837 64.845556 A 0.26460981 0.26460981 0 0 0 30.103443 64.857569 C 30.214767 64.924359 30.353616 64.927715 30.482244 64.957175 C 30.463954 65.1262 30.448441 65.293636 30.359534 65.439689 A 0.26460981 0.26460981 0 0 0 30.359534 65.443192 C 30.229767 65.662797 30.079303 65.878485 29.908174 66.089881 A 0.26460981 0.26460981 0 0 0 29.919912 66.31462 C 29.793423 66.40525 29.637084 66.459115 29.572055 66.60543 C 29.487596 66.785001 29.408111 66.959833 29.334105 67.128988 C 29.275622 67.262662 29.208498 67.34353 29.140436 67.39427 C 29.136701 67.394235 29.129095 67.394411 29.107358 67.390766 C 29.058968 67.382666 28.968402 67.351562 28.853401 67.287156 A 0.26460981 0.26460981 0 0 0 28.627188 67.271639 C 28.538378 67.307159 28.443871 67.335837 28.345488 67.353727 A 0.26460981 0.26460981 0 0 0 28.341754 67.353727 C 28.235992 67.374877 28.124682 67.40091 28.009903 67.43181 C 27.882818 67.45723 27.759297 67.50302 27.638572 67.562449 C 27.611142 67.573769 27.590782 67.597961 27.564412 67.611501 C 27.531162 67.580521 27.509952 67.537121 27.470512 67.517401 A 0.26460981 0.26460981 0 0 0 27.418227 67.521405 C 27.430027 67.456225 27.469151 67.40375 27.474781 67.336208 L 27.537203 66.587911 C 27.566293 66.355153 27.618755 66.146161 27.693525 65.959242 A 0.26460981 0.26460981 0 0 0 27.693525 65.95774 A 0.26460981 0.26460981 0 0 0 27.693525 65.95724 A 0.26460981 0.26460981 0 0 0 27.693525 65.956739 A 0.26460981 0.26460981 0 0 0 27.693525 65.956239 A 0.26460981 0.26460981 0 0 0 27.693525 65.955738 A 0.26460981 0.26460981 0 0 0 27.693525 65.955238 C 27.753025 65.79905 27.857249 65.688511 28.050984 65.595855 A 0.26460981 0.26460981 0 0 0 28.177963 65.249987 C 28.110373 65.0979 28.101801 64.991163 28.117141 64.914129 C 28.150481 64.802218 28.199583 64.700308 28.273463 64.601796 C 28.355523 64.492385 28.451604 64.391498 28.562632 64.298974 A 0.26460981 0.26460981 0 0 0 28.572235 64.288963 C 28.660925 64.207663 28.73099 64.118538 28.806451 64.031189 z M 61.588708 64.393074 A 0.2646485 0.2646485 0 0 0 61.594044 64.405587 C 61.590771 64.402758 61.586482 64.398842 61.58444 64.397078 C 61.585871 64.395735 61.587272 64.394409 61.588708 64.393074 z M 88.833008 64.393074 A 0.2646485 0.2646485 0 0 0 88.838343 64.405587 C 88.834956 64.40266 88.830276 64.398866 88.828206 64.397078 C 88.829729 64.395648 88.831478 64.394495 88.833008 64.393074 z M 61.629256 64.435619 A 0.2646485 0.2646485 0 0 0 61.789313 64.50219 C 61.789642 64.50219 61.747992 64.498186 61.748232 64.498186 C 61.748479 64.498227 61.673912 64.474581 61.674072 64.474661 C 61.674145 64.474697 61.651384 64.45477 61.629256 64.435619 z M 88.873022 64.435619 A 0.2646485 0.2646485 0 0 0 89.033078 64.50219 C 89.033407 64.50219 88.990147 64.498186 88.990397 64.498186 C 88.990644 64.498227 88.917678 64.474581 88.917838 64.474661 C 88.917911 64.474697 88.895226 64.454836 88.873022 64.435619 z M 34.989971 65.947229 A 0.26460981 0.26460981 0 0 0 34.906208 65.95724 L 34.914211 65.951233 C 34.918011 65.948933 34.972481 65.940229 34.989971 65.947229 z M 110.94909 67.62902 A 0.26460981 0.26460981 0 0 0 110.95123 67.635026 L 110.94909 67.637029 L 110.94909 67.62902 z M 27.658312 67.691587 L 27.683388 67.730628 C 27.678488 67.720828 27.665603 67.716623 27.659913 67.707103 C 27.657013 67.702703 27.661512 67.695777 27.658312 67.691587 z " /></g><text
       xml:space="preserve"
       style="font-style:normal;font-variant:normal;font-weight:normal;font-stretch:normal;font-size:1.9793px;font-family:'Titillium Web';-inkscape-font-specification:'Titillium Web';text-align:center;text-anchor:middle;fill:#4b0f00;fill-opacity:0.996078;stroke:none;stroke-width:0.0618533;stroke-linejoin:round;stroke-dasharray:none;paint-order:markers stroke fill"
       x="67.86293"
       y="115.72113"
       id="text985"><tspan
         sodipodi:role="line"
         id="tspan983"
         style="font-style:normal;font-variant:normal;font-weight:normal;font-stretch:normal;font-family:'Titillium Web';-inkscape-font-specification:'Titillium Web';fill:#4b0f00;fill-opacity:0.996078;stroke:none;stroke-width:0.0618533"
         x="67.86293"
         y="115.72113">Case Wireless/ethernet only.</tspan><tspan
         sodipodi:role="line"
         style="font-style:normal;font-variant:normal;font-weight:normal;font-stretch:normal;font-family:'Titillium Web';-inkscape-font-specification:'Titillium Web';fill:#4b0f00;fill-opacity:0.996078;stroke:none;stroke-width:0.0618533"
         x="67.86293"
         y="118.19526"
         id="tspan1089">Not affiliated with Case Western Reserve University</tspan></text></g></svg>
