<?xml version="1.0" encoding="UTF-8" standalone="no"?>
<!-- Created with Inkscape (http://www.inkscape.org/) -->

<svg
   width="64"
   height="64"
   viewBox="0 0 16.933333 16.933333"
   version="1.1"
   id="svg5"
   inkscape:version="1.2.1 (9c6d41e410, 2022-07-14)"
   sodipodi:docname="genderIcons.svg"
   xmlns:inkscape="http://www.inkscape.org/namespaces/inkscape"
   xmlns:sodipodi="http://sodipodi.sourceforge.net/DTD/sodipodi-0.dtd"
   xmlns="http://www.w3.org/2000/svg"
   xmlns:svg="http://www.w3.org/2000/svg">
  <sodipodi:namedview
     id="namedview7"
     pagecolor="#ffffff"
     bordercolor="#000000"
     borderopacity="0.25"
     inkscape:showpageshadow="2"
     inkscape:pageopacity="0.0"
     inkscape:pagecheckerboard="0"
     inkscape:deskcolor="#d1d1d1"
     inkscape:document-units="px"
     showgrid="true"
     inkscape:zoom="17.335624"
     inkscape:cx="23.823775"
     inkscape:cy="31.207415"
     inkscape:window-width="2048"
     inkscape:window-height="1058"
     inkscape:window-x="-32000"
     inkscape:window-y="-32000"
     inkscape:window-maximized="0"
     inkscape:current-layer="layer2">
    <inkscape:grid
       type="xygrid"
       id="grid132"
       empspacing="4" />
  </sodipodi:namedview>
  <defs
     id="defs2">
    <inkscape:path-effect
       effect="fillet_chamfer"
       id="path-effect1857"
       is_visible="true"
       lpeversion="1"
       nodesatellites_param="F,0,0,1,0,0.79374995,0,1 @ F,0,0,1,0,0,0,1 @ F,0,0,1,0,0,0,1 @ F,0,0,1,0,0,0,1 @ F,0,0,1,0,0,0,1 @ F,0,0,1,0,0.79374996,0,1 @ F,0,0,1,0,0,0,1 @ F,0,0,1,0,0,0,1 @ F,0,0,1,0,0,0,1 @ F,0,0,1,0,0,0,1 @ F,0,0,1,0,0,0,1 @ F,0,0,1,0,0,0,1 @ F,0,0,1,0,0,0,1 @ F,0,0,1,0,0,0,1 | F,0,0,1,0,0,0,1 @ F,0,0,1,0,0,0,1 @ F,0,0,1,0,0,0,1 @ F,0,0,1,0,0,0,1"
       unit="px"
       method="auto"
       mode="F"
       radius="0"
       chamfer_steps="1"
       flexible="false"
       use_knot_distance="true"
       apply_no_radius="true"
       apply_with_radius="true"
       only_selected="false"
       hide_knots="false" />
    <inkscape:path-effect
       effect="fillet_chamfer"
       id="path-effect1855"
       is_visible="true"
       lpeversion="1"
       nodesatellites_param="F,0,0,1,0,0.79375,0,1 @ F,0,0,1,0,0,0,1 @ F,0,0,1,0,0,0,1 @ F,0,0,1,0,0,0,1 @ F,0,0,1,0,0,0,1 @ F,0,0,1,0,0,0,1 @ F,0,0,1,0,0,0,1 @ F,0,0,1,0,0,0,1 @ F,0,0,1,0,0,0,1 @ F,0,0,1,0,0.79375,0,1 @ F,0,0,1,0,0,0,1 | F,0,0,1,0,0,0,1 @ F,0,0,1,0,0,0,1 @ F,0,0,1,0,0,0,1 @ F,0,0,1,0,0,0,1"
       unit="px"
       method="auto"
       mode="F"
       radius="0"
       chamfer_steps="1"
       flexible="false"
       use_knot_distance="true"
       apply_no_radius="true"
       apply_with_radius="true"
       only_selected="false"
       hide_knots="false" />
    <inkscape:path-effect
       effect="fillet_chamfer"
       id="path-effect1832"
       is_visible="true"
       lpeversion="1"
       nodesatellites_param="F,0,0,1,0,0.79374996,0,1 @ F,0,0,1,0,0,0,1 @ F,0,0,1,0,0,0,1 @ F,0,0,1,0,0,0,1 @ F,0,0,1,0,0.7937496,0,1 @ F,0,0,1,0,0,0,1 @ F,0,0,1,0,0,0,1 @ F,0,0,1,0,0,0,1 @ F,0,0,1,0,0,0,1 @ F,0,0,1,0,0,0,1 @ F,0,0,1,0,0,0,1 @ F,0,0,1,0,0,0,1 @ F,0,0,1,0,0,0,1"
       unit="px"
       method="auto"
       mode="F"
       radius="0"
       chamfer_steps="1"
       flexible="false"
       use_knot_distance="true"
       apply_no_radius="true"
       apply_with_radius="true"
       only_selected="false"
       hide_knots="false" />
    <inkscape:path-effect
       effect="fillet_chamfer"
       id="path-effect1827"
       is_visible="true"
       lpeversion="1"
       nodesatellites_param="F,0,0,1,0,0.79375,0,1 @ F,0,0,1,0,0,0,1 @ F,0,0,1,0,0,0,1 @ F,0,0,1,0,0,0,1 @ F,0,0,1,0,0,0,1 @ F,0,0,1,0,0.79375,0,1 @ F,0,0,1,0,0,0,1"
       unit="px"
       method="auto"
       mode="F"
       radius="0"
       chamfer_steps="1"
       flexible="false"
       use_knot_distance="true"
       apply_no_radius="true"
       apply_with_radius="true"
       only_selected="false"
       hide_knots="false" />
    <inkscape:path-effect
       effect="fillet_chamfer"
       id="path-effect1819"
       is_visible="true"
       lpeversion="1"
       nodesatellites_param="F,0,0,1,0,0,0,1 @ F,0,0,1,0,0,0,1 @ F,0,0,1,0,0,0,1 @ F,0,0,1,0,1.0583332,0,1 @ F,0,0,1,0,0,0,1 @ F,0,0,1,0,0,0,1 @ F,0,0,1,0,0,0,1 @ F,0,0,1,0,0,0,1 @ F,0,0,1,0,1.0583328,0,1 @ F,0,0,1,0,0,0,1 @ F,0,0,1,0,0,0,1 @ F,0,0,1,0,0,0,1"
       unit="px"
       method="auto"
       mode="F"
       radius="0"
       chamfer_steps="1"
       flexible="false"
       use_knot_distance="true"
       apply_no_radius="true"
       apply_with_radius="true"
       only_selected="false"
       hide_knots="false" />
    <inkscape:path-effect
       effect="fillet_chamfer"
       id="path-effect1792"
       is_visible="true"
       lpeversion="1"
       nodesatellites_param="F,0,0,1,0,0,0,1 @ F,0,0,1,0,0,0,1 @ F,0,0,1,0,0,0,1 @ F,0,0,1,0,0,0,1 @ F,0,0,1,0,0,0,1 @ F,0,0,1,0,1.0583332,0,1 @ F,0,0,1,0,0,0,1 @ F,0,0,1,0,0,0,1 @ F,0,0,1,0,0,0,1 @ F,0,0,1,0,0,0,1 @ F,0,0,1,0,1.0583328,0,1 @ F,0,0,1,0,0,0,1 @ F,0,0,1,0,0,0,1 @ F,0,0,1,0,0,0,1 @ F,0,0,1,0,0,0,1 | F,0,0,1,0,0,0,1 @ F,0,0,1,0,0,0,1 @ F,0,0,1,0,0,0,1 @ F,0,0,1,0,0,0,1"
       unit="px"
       method="auto"
       mode="F"
       radius="0"
       chamfer_steps="1"
       flexible="false"
       use_knot_distance="true"
       apply_no_radius="true"
       apply_with_radius="true"
       only_selected="false"
       hide_knots="false" />
  </defs>
  <g
     inkscape:label="male"
     inkscape:groupmode="layer"
     id="layer1"
     style="display:none">
    <path
       id="path292"
       style="display:none;fill:#000000;fill-opacity:1;stroke:none;stroke-width:0.499999;stroke-linejoin:round;paint-order:markers stroke fill"
       d="m 10.086266,2.6779327 1.336292,1.3362925 -0.805635,0.8061523 C 9.9654807,4.4361283 9.2229894,4.2334198 8.4666665,4.2333332 c -2.3380032,0 -4.2333333,1.8953301 -4.2333333,4.2333333 C 4.2333331,10.80467 6.1286633,12.7 8.4666665,12.7 10.80467,12.7 12.7,10.80467 12.7,8.4666665 12.699821,7.710519 12.497116,6.968218 12.112955,6.316927 L 12.919625,5.5112914 14.2554,6.8470671 A 0.32878192,0.32878192 157.50001 0 0 14.816666,6.6145832 V 2.1166666 H 10.31875 A 0.32878206,0.32878206 112.5 0 0 10.086266,2.6779327 Z M 8.4666665,5.8208332 C 9.92792,5.8208329 11.1125,7.005413 11.1125,8.4666665 11.1125,9.9279201 9.9279201,11.1125 8.4666665,11.1125 7.005413,11.1125 5.8208329,9.92792 5.8208332,8.4666665 5.820833,7.005413 7.005413,5.820833 8.4666665,5.8208332 Z"
       sodipodi:nodetypes="ccccssccccccsssss"
       inkscape:path-effect="#path-effect1855"
       inkscape:original-d="M 9.5249998,2.1166666 C 10.157519,2.7491865 10.790039,3.3817058 11.422558,4.0142252 L 10.616923,4.8203775 C 9.9654807,4.4361283 9.2229894,4.2334198 8.4666665,4.2333332 c -2.3380032,0 -4.2333333,1.8953301 -4.2333333,4.2333333 C 4.2333331,10.80467 6.1286633,12.7 8.4666665,12.7 10.80467,12.7 12.7,10.80467 12.7,8.4666665 12.699821,7.710519 12.497116,6.968218 12.112955,6.316927 l 0.80667,-0.8056356 c 0.632347,0.6323472 1.264694,1.2646944 1.897041,1.8970418 V 2.1166666 Z M 8.4666665,5.8208332 C 9.92792,5.8208329 11.1125,7.005413 11.1125,8.4666665 11.1125,9.9279201 9.9279201,11.1125 8.4666665,11.1125 7.005413,11.1125 5.8208329,9.92792 5.8208332,8.4666665 5.820833,7.005413 7.005413,5.820833 8.4666665,5.8208332 Z" />
  </g>
  <g
     inkscape:label="maleSquare"
     inkscape:groupmode="layer"
     id="g1692"
     style="display:none">
    <path
       id="path1690"
       style="display:inline;fill:#000000;fill-opacity:1;stroke:none;stroke-width:0.499999;stroke-linejoin:round;paint-order:markers stroke fill"
       d="m 10.31875,2.1166666 a 0.32878206,0.32878206 0 0 0 -0.232544,0.5612061 l 1.336352,1.3363525 -0.221175,0.2211751 c -0.02892,-0.0016 -0.05801,-0.00255 -0.08733,-0.00258 L 5.8208332,4.2333332 C 4.9445221,4.2342765 4.2346854,4.9450384 4.2348835,5.82135 v 5.290633 C 4.2346858,11.988295 4.9445224,12.699057 5.8208332,12.7 H 11.1125 c 0.876311,-9.43e-4 1.586147,-0.711705 1.585949,-1.588017 L 12.7,5.8208332 c 6e-6,-0.029492 -10e-4,-0.058753 -0.0026,-0.08785 L 12.919625,5.5112914 14.25546,6.8471271 A 0.32878192,0.32878192 0 0 0 14.816666,6.6145832 V 2.1166666 Z M 5.8208332,5.8208332 H 11.1125 V 11.1125 H 5.8208332 Z" />
  </g>
  <g
     inkscape:groupmode="layer"
     id="layer3"
     inkscape:label="otherSquare"
     style="display:none">
    <path
       id="path987"
       style="stroke-width:2.11667;stroke-linejoin:round;paint-order:markers stroke fill"
       inkscape:label="path987"
       d="m 8.2020832,2.1166666 c -0.4383756,-9.66e-5 -0.79375,0.3553744 -0.79375,0.79375 v 1.3229166 h -1.5875 C 4.9445221,4.2342765 4.2346854,4.9450384 4.2348835,5.82135 v 5.290633 C 4.2346858,11.988295 4.9445224,12.699057 5.8208332,12.7 H 11.1125 c 0.876311,-9.43e-4 1.586147,-0.711705 1.585949,-1.588017 l 5.17e-4,-1.5864664 c 0.441316,-1.457e-4 0.882634,-4.263e-4 1.32395,-5.168e-4 0.438376,-8.98e-5 0.793857,-0.3553746 0.79375,-0.79375 L 14.81615,7.4083332 H 12.699483 L 12.7,5.8208332 c 6e-6,-0.029667 -9.84e-4,-0.059101 -0.0026,-0.088367 L 13.70509,4.7247758 12.209058,3.2287431 11.202401,4.2354 c -0.02926,-0.00164 -0.0587,-0.00255 -0.08837,-0.00258 H 9.5255166 V 2.1171834 C 9.0843725,2.1170184 8.6432272,2.1167639 8.2020832,2.1166666 Z m -2.38125,3.7041666 H 11.1125 V 11.1125 H 5.8208332 Z" />
  </g>
  <g
     inkscape:groupmode="layer"
     id="g1688"
     inkscape:label="other"
     style="display:none">
    <path
       id="path1686"
       style="stroke-width:2.11667;stroke-linejoin:round;paint-order:markers stroke fill"
       d="m 7.4083332,2.9104165 0,1.4598593 c -1.868186,0.4823631 -3.173853,2.1669369 -3.175,4.0963907 C 4.2333331,10.80467 6.1286633,12.7 8.4666665,12.7 10.395779,12.698678 12.080027,11.393311 12.56254,9.5255166 l 1.460376,-3.348e-4 c 0.438376,-1.005e-4 0.793782,-0.355556 0.793675,-0.793932 -1.07e-4,-0.4409722 -2.98e-4,-0.8819444 -4.41e-4,-1.3229166 H 12.565641 C 12.466508,7.0251586 12.314128,6.6577782 12.112955,6.316927 L 13.705106,4.7247761 12.209074,3.2287434 10.616923,4.8208943 C 10.276071,4.6197213 9.9086912,4.4673419 9.5255166,4.3682087 V 2.1171834 L 8.2020831,2.1168604 A 0.79355622,0.79355622 135.00699 0 0 7.4083332,2.9104165 Z M 8.4666665,5.8208332 C 9.92792,5.8208329 11.1125,7.005413 11.1125,8.4666665 11.1125,9.9279201 9.9279201,11.1125 8.4666665,11.1125 7.005413,11.1125 5.8208329,9.92792 5.8208332,8.4666665 5.820833,7.005413 7.005413,5.820833 8.4666665,5.8208332 Z"
       sodipodi:nodetypes="cccccccccccccccsssss"
       inkscape:path-effect="#path-effect1857"
       inkscape:original-d="m 7.4083332,2.1166666 c 0,0.7512031 0,1.5024061 0,2.2536092 -1.868186,0.4823631 -3.173853,2.1669369 -3.175,4.0963907 C 4.2333331,10.80467 6.1286633,12.7 8.4666665,12.7 10.395779,12.698678 12.080027,11.393311 12.56254,9.5255166 l 2.254126,-5.168e-4 C 14.81673,8.8194442 14.816379,8.1138887 14.81615,7.4083332 H 12.565641 C 12.466508,7.0251586 12.314128,6.6577782 12.112955,6.316927 L 13.705106,4.7247761 12.209074,3.2287434 10.616923,4.8208943 C 10.276071,4.6197213 9.9086912,4.4673419 9.5255166,4.3682087 V 2.1171834 Z M 8.4666665,5.8208332 C 9.92792,5.8208329 11.1125,7.005413 11.1125,8.4666665 11.1125,9.9279201 9.9279201,11.1125 8.4666665,11.1125 7.005413,11.1125 5.8208329,9.92792 5.8208332,8.4666665 5.820833,7.005413 7.005413,5.820833 8.4666665,5.8208332 Z" />
  </g>
  <g
     inkscape:groupmode="layer"
     id="layer2"
     inkscape:label="female"
     style="display:inline">
    <path
       style="display:inline;fill-opacity:1;stroke:none;stroke-width:2.11667;stroke-linejoin:round;stroke-dasharray:none;stroke-opacity:1;paint-order:markers stroke fill"
       d="m 8.4666665,4.2333332 c -2.3380032,0 -4.2333333,1.8953301 -4.2333333,4.2333333 0.00115,1.9294535 1.3068141,3.6140275 3.175,4.0963905 L 7.40885,12.964583 H 5.2916666 l 2e-7,0.79375 a 1.0583334,1.0583334 44.999994 0 0 1.0583334,1.058333 h 1.0583334 l -4e-7,1.058334 h 2.1166666 l 0.00103,-1.057817 1.0572992,-2.58e-4 a 1.0594492,1.0594492 135.0162 0 0 1.05919,-1.058591 l 6.43e-4,-0.793751 H 9.5260334 L 9.5255166,12.56254 C 11.393311,12.080027 12.698678,10.395779 12.7,8.4666665 12.7,6.1286633 10.80467,4.2333331 8.4666665,4.2333332 Z m 0,1.5875 C 9.92792,5.8208329 11.1125,7.005413 11.1125,8.4666665 11.1125,9.9279201 9.9279201,11.1125 8.4666665,11.1125 7.005413,11.1125 5.8208329,9.92792 5.8208332,8.4666665 5.820833,7.005413 7.005413,5.820833 8.4666665,5.8208332 Z"
       id="path907"
       sodipodi:nodetypes="sccccccccccccccssssss"
       inkscape:path-effect="#path-effect1792"
       inkscape:original-d="m 8.4666665,4.2333332 c -2.3380032,0 -4.2333333,1.8953301 -4.2333333,4.2333333 0.00115,1.9294535 1.3068141,3.6140275 3.175,4.0963905 L 7.40885,12.964583 H 5.2916666 l 4e-7,1.852083 h 2.1166666 l -4e-7,1.058334 h 2.1166666 l 0.00103,-1.057817 2.1156322,-5.17e-4 0.0015,-1.852083 H 9.5260334 L 9.5255166,12.56254 C 11.393311,12.080027 12.698678,10.395779 12.7,8.4666665 12.7,6.1286633 10.80467,4.2333331 8.4666665,4.2333332 Z m 0,1.5875 C 9.92792,5.8208329 11.1125,7.005413 11.1125,8.4666665 11.1125,9.9279201 9.9279201,11.1125 8.4666665,11.1125 7.005413,11.1125 5.8208329,9.92792 5.8208332,8.4666665 5.820833,7.005413 7.005413,5.820833 8.4666665,5.8208332 Z" />
  </g>
  <g
     inkscape:groupmode="layer"
     id="g1474"
     inkscape:label="femaleSquare"
     style="display:none">
    <path
       id="path1681"
       style="color:#000000;display:inline;fill:#000000;stroke-linejoin:round;paint-order:markers stroke fill"
       inkscape:label="square"
       d="M 11.114567,4.2328165 5.82135,4.2333332 C 4.9450389,4.2342765 4.2352022,4.9450384 4.2354003,5.82135 V 11.1125 C 4.2352026,11.988812 4.9450392,12.699057 5.82135,12.7 H 7.4083332 L 7.40885,12.964583 H 5.2916666 v 0.79375 a 1.0583334,1.0583334 0 0 0 1.0583333,1.058333 H 7.4083332 V 15.875 h 2.1166666 l 0.00103,-1.057817 1.0573002,-5.17e-4 a 1.0594492,1.0594492 0 0 0 1.05937,-1.058333 l 5.17e-4,-0.79375 H 9.5260333 L 9.5255166,12.7 h 1.5880164 c 0.876311,-9.43e-4 1.586148,-0.711188 1.58595,-1.5875 l 10e-4,-5.2916668 C 12.700715,4.9445214 11.990878,4.2337596 11.114567,4.2328165 Z M 5.82135,5.8208332 h 5.291667 V 11.1125 H 5.82135 Z" />
  </g>
</svg>
