<?xml version="1.0" encoding="UTF-8"?>
<svg width="64" height="64" version="1.1" viewBox="0 0 16.933 16.933" xmlns="http://www.w3.org/2000/svg"><g style="display:none"><path d="m10.086 2.6779 1.3363 1.3363-0.80564 0.80615c-0.65144-0.38425-1.3939-0.58696-2.1503-0.58704-2.338 0-4.2333 1.8953-4.2333 4.2333-1e-7 2.338 1.8953 4.2333 4.2333 4.2333 2.338 0 4.2333-1.8953 4.2333-4.2333-1.79e-4 -0.75615-0.20288-1.4984-0.58704-2.1497l0.80667-0.80564 1.3358 1.3358a0.32878 0.32878 157.5 0 0 0.56127-0.23248v-4.4979h-4.4979a0.32878 0.32878 112.5 0 0-0.23248 0.56127zm-1.6196 3.1429c1.4613-3e-7 2.6458 1.1846 2.6458 2.6458 0 1.4613-1.1846 2.6458-2.6458 2.6458-1.4613 0-2.6458-1.1846-2.6458-2.6458-2e-7 -1.4613 1.1846-2.6458 2.6458-2.6458z" style="display:inline;paint-order:markers stroke fill"/><path d="m10.319 2.1167a0.32878 0.32878 0 0 0-0.23254 0.56121l1.3364 1.3364-0.22118 0.22118c-0.02892-0.0016-0.05801-0.00255-0.08733-0.00258l-5.2932 5.129e-4c-0.87631 9.433e-4 -1.5861 0.71171-1.5859 1.588v5.2906c-1.977e-4 0.87631 0.70964 1.5871 1.5859 1.588h5.2917c0.87631-9.43e-4 1.5861-0.7117 1.5859-1.588l0.001551-5.2911c6e-6 -0.029492-1e-3 -0.058753-0.0026-0.08785l0.22222-0.22169 1.3358 1.3358a0.32878 0.32878 0 0 0 0.56121-0.23254v-4.4979zm-4.4979 3.7042h5.2917v5.2917h-5.2917z" style="display:inline;paint-order:markers stroke fill"/></g><g><path d="m8.2021 2.1167c-0.43838-9.66e-5 -0.79375 0.35537-0.79375 0.79375v1.3229h-1.5875c-0.87631 9.433e-4 -1.5861 0.71171-1.5859 1.588v5.2906c-1.977e-4 0.87631 0.70964 1.5871 1.5859 1.588h5.2917c0.87631-9.43e-4 1.5861-0.7117 1.5859-1.588l5.17e-4 -1.5865c0.44132-1.457e-4 0.88263-4.263e-4 1.324-5.168e-4 0.43838-8.98e-5 0.79386-0.35537 0.79375-0.79375l-5.16e-4 -1.3229h-2.1167l5.17e-4 -1.5875c6e-6 -0.029667-9.84e-4 -0.059101-0.0026-0.088367l1.0077-1.0077-1.496-1.496-1.0067 1.0067c-0.02926-0.00164-0.0587-0.00255-0.08837-0.00258h-1.5885v-2.1156c-0.44114-1.65e-4 -0.88229-4.195e-4 -1.3234-5.168e-4zm-2.3812 3.7042h5.2917v5.2917h-5.2917z" style="paint-order:markers stroke fill;stroke-linejoin:round;stroke-width:2.1167"/></g><g style="display:none"><path d="m7.4083 2.9104v1.4599c-1.8682 0.48236-3.1739 2.1669-3.175 4.0964-1e-7 2.338 1.8953 4.2333 4.2333 4.2333 1.9291-0.001322 3.6134-1.3067 4.0959-3.1745l1.4604-3.348e-4c0.43838-1.005e-4 0.79378-0.35556 0.79368-0.79393-1.07e-4 -0.44097-2.98e-4 -0.88194-4.41e-4 -1.3229h-2.2505c-0.099133-0.38317-0.25151-0.75056-0.45269-1.0914l1.5922-1.5922-1.496-1.496-1.5922 1.5922c-0.34085-0.20117-0.70823-0.35355-1.0914-0.45269v-2.251l-1.3234-3.23e-4a0.79356 0.79356 135.01 0 0-0.79375 0.79356zm1.0583 2.9104c1.4613-3e-7 2.6458 1.1846 2.6458 2.6458 0 1.4613-1.1846 2.6458-2.6458 2.6458-1.4613 0-2.6458-1.1846-2.6458-2.6458-2e-7 -1.4613 1.1846-2.6458 2.6458-2.6458z" style="paint-order:markers stroke fill;stroke-linejoin:round;stroke-width:2.1167"/><path d="m8.4667 4.2333c-2.338 0-4.2333 1.8953-4.2333 4.2333 0.00115 1.9295 1.3068 3.614 3.175 4.0964l5.168e-4 0.40153h-2.1172l2e-7 0.79375a1.0583 1.0583 45 0 0 1.0583 1.0583h1.0583l-4e-7 1.0583h2.1167l0.00103-1.0578 1.0573-2.58e-4a1.0594 1.0594 135.02 0 0 1.0592-1.0586l6.43e-4 -0.79375h-2.1171l-5.168e-4 -0.40204c1.8678-0.48251 3.1732-2.1668 3.1745-4.0959 0-2.338-1.8953-4.2333-4.2333-4.2333zm0 1.5875c1.4613-3e-7 2.6458 1.1846 2.6458 2.6458 0 1.4613-1.1846 2.6458-2.6458 2.6458-1.4613 0-2.6458-1.1846-2.6458-2.6458-2e-7 -1.4613 1.1846-2.6458 2.6458-2.6458z" style="display:inline;paint-order:markers stroke fill"/><path d="m11.115 4.2328-5.2932 5.167e-4c-0.87631 9.433e-4 -1.5861 0.71171-1.5859 1.588v5.2912c-1.977e-4 0.87631 0.70964 1.5866 1.5859 1.5875h1.587l5.168e-4 0.26458h-2.1172v0.79375a1.0583 1.0583 0 0 0 1.0583 1.0583h1.0583v1.0583h2.1167l0.00103-1.0578 1.0573-5.17e-4a1.0594 1.0594 0 0 0 1.0594-1.0583l5.17e-4 -0.79375h-2.1172l-5.167e-4 -0.26458h1.588c0.87631-9.43e-4 1.5861-0.71119 1.586-1.5875l1e-3 -5.2917c2.32e-4 -0.87631-0.7096-1.5871-1.5859-1.588zm-5.2932 1.588h5.2917v5.2917h-5.2917z" style="color:#000000;display:inline;paint-order:markers stroke fill;stroke-linejoin:round"/></g></svg>
